<svg width="300" height="80" viewBox="0 0 300 80" fill="none" xmlns="http://www.w3.org/2000/svg">
<rect width="300" height="80" rx="40" fill="#F7DFC7"/>
<path d="M111.761 50V26.7273H121.466C123.208 26.7273 124.667 26.9735 125.841 27.4659C127.023 27.9583 127.909 28.6477 128.5 29.5341C129.098 30.4205 129.398 31.447 129.398 32.6136C129.398 33.5 129.212 34.2917 128.841 34.9886C128.47 35.678 127.958 36.25 127.307 36.7045C126.655 37.1591 125.902 37.4773 125.045 37.6591V37.8864C125.985 37.9318 126.852 38.1856 127.648 38.6477C128.451 39.1098 129.095 39.7538 129.58 40.5795C130.064 41.3977 130.307 42.3674 130.307 43.4886C130.307 44.7386 129.989 45.8561 129.352 46.8409C128.716 47.8182 127.795 48.5909 126.591 49.1591C125.386 49.7197 123.924 50 122.205 50H111.761ZM117.386 45.4659H120.864C122.083 45.4659 122.981 45.2348 123.557 44.7727C124.14 44.3106 124.432 43.6667 124.432 42.8409C124.432 42.2424 124.292 41.7273 124.011 41.2955C123.731 40.8561 123.333 40.5189 122.818 40.2841C122.303 40.0417 121.686 39.9205 120.966 39.9205H117.386V45.4659ZM117.386 36.2955H120.5C121.114 36.2955 121.659 36.1932 122.136 35.9886C122.614 35.7841 122.985 35.4886 123.25 35.1023C123.523 34.7159 123.659 34.25 123.659 33.7045C123.659 32.9242 123.383 32.3106 122.83 31.8636C122.277 31.4167 121.53 31.1932 120.591 31.1932H117.386V36.2955ZM138.045 50H132L139.852 26.7273H147.341L155.193 50H149.148L143.682 32.5909H143.5L138.045 50ZM137.239 40.8409H149.875V45.1136H137.239V40.8409ZM177.73 35.1591H172.048C171.973 34.5758 171.817 34.0492 171.582 33.5795C171.348 33.1098 171.037 32.7083 170.651 32.375C170.264 32.0417 169.806 31.7879 169.276 31.6136C168.753 31.4318 168.173 31.3409 167.537 31.3409C166.408 31.3409 165.435 31.6174 164.616 32.1705C163.806 32.7235 163.181 33.5227 162.741 34.5682C162.31 35.6136 162.094 36.8788 162.094 38.3636C162.094 39.9091 162.313 41.2045 162.753 42.25C163.2 43.2879 163.825 44.072 164.628 44.6023C165.438 45.125 166.397 45.3864 167.503 45.3864C168.124 45.3864 168.688 45.3068 169.196 45.1477C169.711 44.9886 170.162 44.7576 170.548 44.4545C170.942 44.1439 171.264 43.7689 171.514 43.3295C171.772 42.8826 171.95 42.3788 172.048 41.8182L177.73 41.8523C177.632 42.8826 177.332 43.8977 176.832 44.8977C176.34 45.8977 175.662 46.8106 174.798 47.6364C173.935 48.4545 172.882 49.1061 171.639 49.5909C170.404 50.0758 168.988 50.3182 167.389 50.3182C165.283 50.3182 163.397 49.8561 161.73 48.9318C160.071 48 158.76 46.6439 157.798 44.8636C156.836 43.0833 156.355 40.9167 156.355 38.3636C156.355 35.803 156.844 33.6326 157.821 31.8523C158.798 30.072 160.12 28.7197 161.787 27.7955C163.454 26.8712 165.321 26.4091 167.389 26.4091C168.798 26.4091 170.101 26.6061 171.298 27C172.495 27.3864 173.548 27.9545 174.457 28.7045C175.366 29.447 176.105 30.3598 176.673 31.4432C177.241 32.5265 177.594 33.7652 177.73 35.1591ZM180.949 50V26.7273H186.574V36.5682H186.881L194.574 26.7273H201.199L192.949 37.1136L201.347 50H194.619L188.824 40.8523L186.574 43.6932V50H180.949Z" fill="black"/>
<path d="M77.3751 39.5H88.3789M82.0475 44.9688L76.6211 39.5L82.0475 34.0312V44.9688Z" stroke="black" stroke-width="1.875" stroke-linecap="round" stroke-linejoin="round"/>
<path d="M95.625 39.5C95.625 32.2539 89.7461 26.375 82.5 26.375C75.2539 26.375 69.375 32.2539 69.375 39.5C69.375 46.7461 75.2539 52.625 82.5 52.625C89.7461 52.625 95.625 46.7461 95.625 39.5Z" stroke="black" stroke-width="1.875" stroke-miterlimit="10"/>
</svg>
