<svg width="200" height="64" viewBox="0 0 200 64" fill="none" xmlns="http://www.w3.org/2000/svg">
<rect y="24" width="200" height="40" rx="20" fill="#F7DFC7"/>
<path d="M9.88068 15V3.36364H14.733C15.6042 3.36364 16.3333 3.48674 16.9205 3.73295C17.5114 3.97917 17.9545 4.32386 18.25 4.76705C18.5492 5.21023 18.6989 5.72348 18.6989 6.30682C18.6989 6.75 18.6061 7.14583 18.4205 7.49432C18.2348 7.83902 17.9792 8.125 17.6534 8.35227C17.3277 8.57955 16.9508 8.73864 16.5227 8.82955V8.94318C16.9924 8.96591 17.4261 9.0928 17.8239 9.32386C18.2254 9.55492 18.5473 9.87689 18.7898 10.2898C19.0322 10.6989 19.1534 11.1837 19.1534 11.7443C19.1534 12.3693 18.9943 12.928 18.6761 13.4205C18.358 13.9091 17.8977 14.2955 17.2955 14.5795C16.6932 14.8598 15.9621 15 15.1023 15H9.88068ZM12.6932 12.733H14.4318C15.0417 12.733 15.4905 12.6174 15.7784 12.3864C16.0701 12.1553 16.2159 11.8333 16.2159 11.4205C16.2159 11.1212 16.1458 10.8636 16.0057 10.6477C15.8655 10.428 15.6667 10.2595 15.4091 10.142C15.1515 10.0208 14.8428 9.96023 14.483 9.96023H12.6932V12.733ZM12.6932 8.14773H14.25C14.5568 8.14773 14.8295 8.09659 15.0682 7.99432C15.3068 7.89205 15.4924 7.74432 15.625 7.55114C15.7614 7.35795 15.8295 7.125 15.8295 6.85227C15.8295 6.46212 15.6913 6.1553 15.4148 5.93182C15.1383 5.70833 14.7652 5.59659 14.2955 5.59659H12.6932V8.14773ZM20.5057 15V6.27273H23.2841V15H20.5057ZM21.8977 5.25568C21.5076 5.25568 21.1723 5.12689 20.892 4.86932C20.6117 4.60795 20.4716 4.29356 20.4716 3.92614C20.4716 3.5625 20.6117 3.25189 20.892 2.99432C21.1723 2.73295 21.5076 2.60227 21.8977 2.60227C22.2917 2.60227 22.6269 2.73295 22.9034 2.99432C23.1837 3.25189 23.3239 3.5625 23.3239 3.92614C23.3239 4.29356 23.1837 4.60795 22.9034 4.86932C22.6269 5.12689 22.2917 5.25568 21.8977 5.25568ZM25.0526 15V6.27273H27.7514V7.86364H27.8423C28.0014 7.28788 28.2609 6.85985 28.6207 6.57955C28.9806 6.29545 29.3991 6.15341 29.8764 6.15341C30.0052 6.15341 30.1378 6.16288 30.2741 6.18182C30.4105 6.19697 30.5374 6.22159 30.6548 6.25568V8.67045C30.5223 8.625 30.348 8.58902 30.1321 8.5625C29.92 8.53598 29.7306 8.52273 29.5639 8.52273C29.2344 8.52273 28.937 8.59659 28.6719 8.74432C28.4105 8.88826 28.2041 9.09091 28.0526 9.35227C27.9048 9.60985 27.831 9.91288 27.831 10.2614V15H25.0526ZM37.1193 6.27273V8.31818H31.6136V6.27273H37.1193ZM32.767 4.18182H35.5455V12.2557C35.5455 12.4261 35.572 12.5644 35.625 12.6705C35.6818 12.7727 35.7633 12.8466 35.8693 12.892C35.9754 12.9337 36.1023 12.9545 36.25 12.9545C36.3561 12.9545 36.4678 12.9451 36.5852 12.9261C36.7064 12.9034 36.7973 12.8845 36.858 12.8693L37.2784 14.875C37.1458 14.9129 36.9583 14.9602 36.7159 15.017C36.4773 15.0739 36.1913 15.1098 35.858 15.125C35.2064 15.1553 34.6477 15.0795 34.1818 14.8977C33.7197 14.7121 33.3655 14.4242 33.1193 14.0341C32.8769 13.6439 32.7595 13.1534 32.767 12.5625V4.18182ZM41.5028 10.0227V15H38.7244V3.36364H41.4119V7.875H41.5085C41.7055 7.33712 42.0275 6.91667 42.4744 6.61364C42.9252 6.31061 43.4763 6.15909 44.1278 6.15909C44.7415 6.15909 45.2756 6.29545 45.7301 6.56818C46.1847 6.83712 46.5369 7.2178 46.7869 7.71023C47.0407 8.20265 47.1657 8.77841 47.1619 9.4375V15H44.3835V9.98295C44.3873 9.49811 44.2661 9.11932 44.0199 8.84659C43.7737 8.57386 43.4271 8.4375 42.9801 8.4375C42.6884 8.4375 42.4309 8.50189 42.2074 8.63068C41.9877 8.75568 41.8153 8.93561 41.6903 9.17045C41.5691 9.4053 41.5066 9.68939 41.5028 10.0227ZM52.0838 15.125C51.4399 15.125 50.8546 14.9583 50.3281 14.625C49.8016 14.2917 49.3812 13.7917 49.0668 13.125C48.7524 12.4583 48.5952 11.6307 48.5952 10.642C48.5952 9.61553 48.758 8.77083 49.0838 8.10795C49.4096 7.44508 49.8357 6.95455 50.3622 6.63636C50.8925 6.31818 51.4626 6.15909 52.0724 6.15909C52.5308 6.15909 52.9228 6.23864 53.2486 6.39773C53.5743 6.55303 53.8433 6.75379 54.0554 7C54.2675 7.24621 54.4285 7.50189 54.5384 7.76705H54.5952V3.36364H57.3736V15H54.6236V13.5852H54.5384C54.4209 13.8542 54.2543 14.1061 54.0384 14.3409C53.8224 14.5758 53.5516 14.7652 53.2259 14.9091C52.9039 15.053 52.5232 15.125 52.0838 15.125ZM53.0497 12.9602C53.3868 12.9602 53.6747 12.8655 53.9134 12.6761C54.152 12.483 54.3357 12.2121 54.4645 11.8636C54.5933 11.5152 54.6577 11.1061 54.6577 10.6364C54.6577 10.1591 54.5933 9.74811 54.4645 9.40341C54.3395 9.05871 54.1558 8.79356 53.9134 8.60795C53.6747 8.42235 53.3868 8.32955 53.0497 8.32955C52.705 8.32955 52.4134 8.42424 52.1747 8.61364C51.9361 8.80303 51.7543 9.07008 51.6293 9.41477C51.508 9.75947 51.4474 10.1667 51.4474 10.6364C51.4474 11.1061 51.5099 11.5152 51.6349 11.8636C51.7599 12.2121 51.9399 12.483 52.1747 12.6761C52.4134 12.8655 52.705 12.9602 53.0497 12.9602ZM61.5909 15.1477C61.0341 15.1477 60.5398 15.0549 60.108 14.8693C59.6799 14.6799 59.3409 14.3958 59.0909 14.017C58.8447 13.6345 58.7216 13.1553 58.7216 12.5795C58.7216 12.0947 58.8068 11.6856 58.9773 11.3523C59.1477 11.0189 59.3826 10.7481 59.6818 10.5398C59.9811 10.3314 60.3258 10.1742 60.7159 10.0682C61.1061 9.95833 61.5227 9.88447 61.9659 9.84659C62.4621 9.80114 62.8617 9.75379 63.1648 9.70455C63.4678 9.65152 63.6875 9.57765 63.8239 9.48295C63.964 9.38447 64.0341 9.24621 64.0341 9.06818V9.03977C64.0341 8.74811 63.9337 8.52273 63.733 8.36364C63.5322 8.20455 63.2614 8.125 62.9205 8.125C62.553 8.125 62.2576 8.20455 62.0341 8.36364C61.8106 8.52273 61.6686 8.74242 61.608 9.02273L59.0455 8.93182C59.1212 8.40152 59.3163 7.92803 59.6307 7.51136C59.9489 7.09091 60.3845 6.76136 60.9375 6.52273C61.4943 6.2803 62.1629 6.15909 62.9432 6.15909C63.5 6.15909 64.0133 6.22538 64.483 6.35795C64.9527 6.48674 65.3617 6.67614 65.7102 6.92614C66.0587 7.17235 66.3277 7.47538 66.517 7.83523C66.7102 8.19508 66.8068 8.60606 66.8068 9.06818V15H64.1932V13.7841H64.125C63.9697 14.0795 63.7708 14.3295 63.5284 14.5341C63.2898 14.7386 63.0076 14.892 62.6818 14.9943C62.3598 15.0966 61.9962 15.1477 61.5909 15.1477ZM62.4489 13.3295C62.7481 13.3295 63.017 13.2689 63.2557 13.1477C63.4981 13.0265 63.6913 12.8598 63.8352 12.6477C63.9792 12.4318 64.0511 12.1818 64.0511 11.8977V11.0682C63.9716 11.1098 63.875 11.1477 63.7614 11.1818C63.6515 11.2159 63.5303 11.2481 63.3977 11.2784C63.2652 11.3087 63.1288 11.3352 62.9886 11.358C62.8485 11.3807 62.714 11.4015 62.5852 11.4205C62.3239 11.4621 62.1004 11.5265 61.9148 11.6136C61.733 11.7008 61.5928 11.8144 61.4943 11.9545C61.3996 12.0909 61.3523 12.2538 61.3523 12.4432C61.3523 12.7311 61.4545 12.9508 61.6591 13.1023C61.8674 13.2538 62.1307 13.3295 62.4489 13.3295ZM69.892 18.2727C69.5587 18.2727 69.2443 18.2462 68.9489 18.1932C68.6534 18.1439 68.3996 18.0777 68.1875 17.9943L68.8011 15.9773C69.0739 16.0682 69.3201 16.1212 69.5398 16.1364C69.7633 16.1515 69.9545 16.1155 70.1136 16.0284C70.2765 15.9451 70.4015 15.7955 70.4886 15.5795L70.5966 15.3182L67.4943 6.27273H70.4034L72.0114 12.5H72.1023L73.733 6.27273H76.6591L73.3693 15.8352C73.2102 16.3125 72.9848 16.733 72.6932 17.0966C72.4053 17.464 72.0322 17.7519 71.5739 17.9602C71.1193 18.1686 70.5587 18.2727 69.892 18.2727Z" fill="black"/>
<path fill-rule="evenodd" clip-rule="evenodd" d="M15 36C14.7348 36 14.4804 36.1054 14.2929 36.2929C14.1054 36.4804 14 36.7348 14 37V38H13C12.4696 38 11.9609 38.2107 11.5858 38.5858C11.2107 38.9609 11 39.4696 11 40V50C11 50.5304 11.2107 51.0391 11.5858 51.4142C11.9609 51.7893 12.4696 52 13 52H25C25.5304 52 26.0391 51.7893 26.4142 51.4142C26.7893 51.0391 27 50.5304 27 50V40C27 39.4696 26.7893 38.9609 26.4142 38.5858C26.0391 38.2107 25.5304 38 25 38H24V37C24 36.7348 23.8946 36.4804 23.7071 36.2929C23.5196 36.1054 23.2652 36 23 36C22.7348 36 22.4804 36.1054 22.2929 36.2929C22.1054 36.4804 22 36.7348 22 37V38H16V37C16 36.7348 15.8946 36.4804 15.7071 36.2929C15.5196 36.1054 15.2652 36 15 36ZM15 41C14.7348 41 14.4804 41.1054 14.2929 41.2929C14.1054 41.4804 14 41.7348 14 42C14 42.2652 14.1054 42.5196 14.2929 42.7071C14.4804 42.8946 14.7348 43 15 43H23C23.2652 43 23.5196 42.8946 23.7071 42.7071C23.8946 42.5196 24 42.2652 24 42C24 41.7348 23.8946 41.4804 23.7071 41.2929C23.5196 41.1054 23.2652 41 23 41H15Z" fill="black"/>
</svg>
