<svg width="140" height="140" viewBox="0 0 140 140" fill="none" xmlns="http://www.w3.org/2000/svg">
<circle cx="70" cy="70" r="67.5" fill="#F7DFC7" stroke="#0AFF22" stroke-width="5"/>
<path d="M92.0756 73.9596L81.6153 70.7892C99.292 70.7892 89.3865 29 72.3781 29H67.6219C47.7587 29 41.6147 70.7892 58.3847 70.7892L47.9244 73.9596C40.5594 76.0762 36.1673 107.897 36.1673 107.897C36.1545 108.005 36.146 108.115 36.146 108.226C36.146 109.758 37.3877 111 38.9198 111H101.08C102.612 111 103.854 109.758 103.854 108.226C103.854 108.115 103.846 108.005 103.833 107.897C103.833 107.897 99.4406 76.0762 92.0756 73.9596ZM63.2982 72.3269C63.5809 72.127 63.9503 72.0986 64.2602 72.253C65.327 72.7839 66.3829 73.0531 67.3985 73.0531H72.6015C73.6169 73.0531 74.6724 72.7839 75.739 72.2534C76.0488 72.0991 76.4185 72.1277 76.7012 72.3277C76.9837 72.5276 77.1336 72.8667 77.0913 73.2101L76.4074 78.7642C76.3956 78.8613 76.3685 78.9559 76.3275 79.0447L70.8533 90.8638C70.6993 91.1962 70.3664 91.4089 70 91.4089C69.6336 91.4089 69.3007 91.1964 69.1467 90.8638L63.6691 79.0445C63.6279 78.9555 63.6008 78.8607 63.589 78.7635L62.908 73.209C62.8657 72.8656 63.0157 72.5266 63.2982 72.3269ZM57.5651 54.3794C57.2982 54.206 57.1372 53.9092 57.1372 53.591V52.0427C57.1372 51.5234 57.5583 51.1023 58.0776 51.1023H58.4618V47.8685C58.4618 47.5428 58.6303 47.2402 58.9076 47.0688C59.1848 46.8973 59.5307 46.8817 59.8222 47.0271C61.2676 47.7483 63.1972 47.8317 64.523 47.8317C65.4181 47.8317 66.3161 47.7869 67.1085 47.7472C67.3537 47.735 67.5917 47.7231 67.8204 47.713C68.1354 47.6991 68.4561 47.6919 68.7734 47.6919C72.6446 47.6919 75.893 48.7028 78.2651 49.441C79.3046 49.7643 80.1254 50.0198 80.7223 50.0993C81.1895 50.1616 81.5386 50.5601 81.5386 51.0314V51.1023H81.9228C82.4421 51.1023 82.8632 51.5234 82.8632 52.0427V53.591C82.8632 53.9092 82.7022 54.206 82.4353 54.3794L81.5226 54.9726L81.4718 55.3598C81.1746 57.6085 79.9132 60.5214 78.0973 63.1534C75.7979 66.4886 73.6423 67.9816 72.5264 67.9816H67.4743C66.3583 67.9816 64.2027 66.4884 61.9029 63.1527C60.0874 60.5214 58.8259 57.6089 58.529 55.3619L58.478 54.9724L57.5651 54.3794Z" fill="black"/>
</svg>
