<svg width="200" height="62" viewBox="0 0 200 62" fill="none" xmlns="http://www.w3.org/2000/svg">
<rect y="22" width="200" height="40" rx="20" fill="#F7DFC7"/>
<path d="M9.88068 15V3.36364H17.8239V5.64773H12.6932V8.03409H17.3182V10.3239H12.6932V15H9.88068ZM24.3239 11.233V6.27273H27.0966V15H24.4489V13.375H24.358C24.1648 13.9091 23.8352 14.3333 23.3693 14.6477C22.9072 14.9583 22.3485 15.1136 21.6932 15.1136C21.0985 15.1136 20.5758 14.9773 20.125 14.7045C19.6742 14.4318 19.3239 14.0511 19.0739 13.5625C18.8239 13.0701 18.697 12.4943 18.6932 11.8352V6.27273H21.4716V11.2898C21.4754 11.7633 21.6004 12.1364 21.8466 12.4091C22.0928 12.6818 22.428 12.8182 22.8523 12.8182C23.1288 12.8182 23.3769 12.7576 23.5966 12.6364C23.8201 12.5114 23.9962 12.3314 24.125 12.0966C24.2576 11.858 24.3239 11.5701 24.3239 11.233ZM31.6435 3.36364V15H28.8651V3.36364H31.6435ZM36.1903 3.36364V15H33.4119V3.36364H36.1903ZM47.8622 3.36364V15H45.4759L40.8452 8.28409H40.7713V15H37.9588V3.36364H40.3793L44.9588 10.0682H45.0554V3.36364H47.8622ZM52.0909 15.1477C51.5341 15.1477 51.0398 15.0549 50.608 14.8693C50.1799 14.6799 49.8409 14.3958 49.5909 14.017C49.3447 13.6345 49.2216 13.1553 49.2216 12.5795C49.2216 12.0947 49.3068 11.6856 49.4773 11.3523C49.6477 11.0189 49.8826 10.7481 50.1818 10.5398C50.4811 10.3314 50.8258 10.1742 51.2159 10.0682C51.6061 9.95833 52.0227 9.88447 52.4659 9.84659C52.9621 9.80114 53.3617 9.75379 53.6648 9.70455C53.9678 9.65152 54.1875 9.57765 54.3239 9.48295C54.464 9.38447 54.5341 9.24621 54.5341 9.06818V9.03977C54.5341 8.74811 54.4337 8.52273 54.233 8.36364C54.0322 8.20455 53.7614 8.125 53.4205 8.125C53.053 8.125 52.7576 8.20455 52.5341 8.36364C52.3106 8.52273 52.1686 8.74242 52.108 9.02273L49.5455 8.93182C49.6212 8.40152 49.8163 7.92803 50.1307 7.51136C50.4489 7.09091 50.8845 6.76136 51.4375 6.52273C51.9943 6.2803 52.6629 6.15909 53.4432 6.15909C54 6.15909 54.5133 6.22538 54.983 6.35795C55.4527 6.48674 55.8617 6.67614 56.2102 6.92614C56.5587 7.17235 56.8277 7.47538 57.017 7.83523C57.2102 8.19508 57.3068 8.60606 57.3068 9.06818V15H54.6932V13.7841H54.625C54.4697 14.0795 54.2708 14.3295 54.0284 14.5341C53.7898 14.7386 53.5076 14.892 53.1818 14.9943C52.8598 15.0966 52.4962 15.1477 52.0909 15.1477ZM52.9489 13.3295C53.2481 13.3295 53.517 13.2689 53.7557 13.1477C53.9981 13.0265 54.1913 12.8598 54.3352 12.6477C54.4792 12.4318 54.5511 12.1818 54.5511 11.8977V11.0682C54.4716 11.1098 54.375 11.1477 54.2614 11.1818C54.1515 11.2159 54.0303 11.2481 53.8977 11.2784C53.7652 11.3087 53.6288 11.3352 53.4886 11.358C53.3485 11.3807 53.214 11.4015 53.0852 11.4205C52.8239 11.4621 52.6004 11.5265 52.4148 11.6136C52.233 11.7008 52.0928 11.8144 51.9943 11.9545C51.8996 12.0909 51.8523 12.2538 51.8523 12.4432C51.8523 12.7311 51.9545 12.9508 52.1591 13.1023C52.3674 13.2538 52.6307 13.3295 52.9489 13.3295ZM59.0057 15V6.27273H61.6477V7.875H61.7443C61.9261 7.3447 62.233 6.92614 62.6648 6.61932C63.0966 6.3125 63.6117 6.15909 64.2102 6.15909C64.8163 6.15909 65.3352 6.31439 65.767 6.625C66.1989 6.93561 66.4735 7.35227 66.5909 7.875H66.6818C66.8447 7.35606 67.1629 6.94129 67.6364 6.63068C68.1098 6.31629 68.6686 6.15909 69.3125 6.15909C70.1383 6.15909 70.8087 6.42424 71.3239 6.95455C71.839 7.48106 72.0966 8.20455 72.0966 9.125V15H69.3182V9.76136C69.3182 9.32576 69.2064 8.99432 68.983 8.76705C68.7595 8.53598 68.4697 8.42045 68.1136 8.42045C67.7311 8.42045 67.4299 8.54545 67.2102 8.79545C66.9943 9.04167 66.8864 9.37311 66.8864 9.78977V15H64.2159V9.73295C64.2159 9.32765 64.1061 9.00758 63.8864 8.77273C63.6667 8.53788 63.3769 8.42045 63.017 8.42045C62.7746 8.42045 62.5606 8.47917 62.375 8.59659C62.1894 8.71023 62.0436 8.87311 61.9375 9.08523C61.8352 9.29735 61.7841 9.54735 61.7841 9.83523V15H59.0057ZM77.8977 15.1648C76.9848 15.1648 76.197 14.9848 75.5341 14.625C74.875 14.2614 74.3674 13.7443 74.0114 13.0739C73.6591 12.3996 73.483 11.5985 73.483 10.6705C73.483 9.76894 73.661 8.98106 74.017 8.30682C74.3731 7.62879 74.875 7.10227 75.5227 6.72727C76.1705 6.34848 76.9337 6.15909 77.8125 6.15909C78.4337 6.15909 79.0019 6.25568 79.517 6.44886C80.0322 6.64205 80.4773 6.92803 80.8523 7.30682C81.2273 7.68561 81.5189 8.15341 81.7273 8.71023C81.9356 9.26326 82.0398 9.89773 82.0398 10.6136V11.3068H74.4545V9.69318H79.4545C79.4508 9.39773 79.3807 9.13447 79.2443 8.90341C79.108 8.67235 78.9205 8.49242 78.6818 8.36364C78.447 8.23106 78.1761 8.16477 77.8693 8.16477C77.5587 8.16477 77.2803 8.23485 77.0341 8.375C76.7879 8.51136 76.5928 8.69886 76.4489 8.9375C76.3049 9.17235 76.2292 9.43939 76.2216 9.73864V11.3807C76.2216 11.7367 76.2917 12.0492 76.4318 12.3182C76.572 12.5833 76.7708 12.7898 77.0284 12.9375C77.286 13.0852 77.5928 13.1591 77.9489 13.1591C78.1951 13.1591 78.4186 13.125 78.6193 13.0568C78.8201 12.9886 78.9924 12.8883 79.1364 12.7557C79.2803 12.6231 79.3883 12.4602 79.4602 12.267L82.0114 12.3409C81.9053 12.9129 81.6723 13.411 81.3125 13.8352C80.9564 14.2557 80.4886 14.5833 79.9091 14.8182C79.3295 15.0492 78.6591 15.1648 77.8977 15.1648Z" fill="black"/>
<path d="M18 41C18.7956 41 19.5587 40.6839 20.1213 40.1213C20.6839 39.5587 21 38.7956 21 38C21 37.2044 20.6839 36.4413 20.1213 35.8787C19.5587 35.3161 18.7956 35 18 35C17.2044 35 16.4413 35.3161 15.8787 35.8787C15.3161 36.4413 15 37.2044 15 38C15 38.7956 15.3161 39.5587 15.8787 40.1213C16.4413 40.6839 17.2044 41 18 41ZM18 43C19.5913 43 21.1174 43.6321 22.2426 44.7574C23.3679 45.8826 24 47.4087 24 49H12C12 47.4087 12.6321 45.8826 13.7574 44.7574C14.8826 43.6321 16.4087 43 18 43ZM26 39C26 38.7348 25.8946 38.4804 25.7071 38.2929C25.5196 38.1054 25.2652 38 25 38C24.7348 38 24.4804 38.1054 24.2929 38.2929C24.1054 38.4804 24 38.7348 24 39V40H23C22.7348 40 22.4804 40.1054 22.2929 40.2929C22.1054 40.4804 22 40.7348 22 41C22 41.2652 22.1054 41.5196 22.2929 41.7071C22.4804 41.8946 22.7348 42 23 42H24V43C24 43.2652 24.1054 43.5196 24.2929 43.7071C24.4804 43.8946 24.7348 44 25 44C25.2652 44 25.5196 43.8946 25.7071 43.7071C25.8946 43.5196 26 43.2652 26 43V42H27C27.2652 42 27.5196 41.8946 27.7071 41.7071C27.8946 41.5196 28 41.2652 28 41C28 40.7348 27.8946 40.4804 27.7071 40.2929C27.5196 40.1054 27.2652 40 27 40H26V39Z" fill="black"/>
</svg>
