<svg width="140" height="140" viewBox="0 0 140 140" fill="none" xmlns="http://www.w3.org/2000/svg">
<circle cx="70" cy="70" r="67.5" fill="#F7DFC7" stroke="#0AFF22" stroke-width="5"/>
<g clip-path="url(#clip0_6_21)">
<path d="M111 109.023H29C29 93.8153 29.4659 85.125 30.3977 82.9525C30.8636 82.3755 31.5334 81.8067 32.407 81.2467C33.2805 80.6866 34.4259 80.135 35.843 79.5918C37.2602 79.0487 38.5511 78.582 39.7159 78.1915C40.8807 77.8012 42.4725 77.2835 44.4914 76.6385C46.5104 75.9936 48.1023 75.4843 49.267 75.1109C50.2764 74.7714 51.2569 74.3811 52.2081 73.9397C53.1592 73.4985 53.7709 73.2269 54.0427 73.125C54.3145 73.4306 54.5667 75.0176 54.7997 77.886C55.0326 80.7545 55.3627 84.0219 55.7898 87.688C56.2168 91.3541 56.741 93.7836 57.3622 95.6165C57.634 96.4313 58.197 97.1102 59.0511 97.6534C59.9054 98.1965 60.643 98.536 61.2643 98.6717C61.7857 98.7857 62.2252 98.7798 62.5827 98.775C62.6509 98.774 62.7161 98.7732 62.7784 98.7732H77.5711C77.6334 98.7732 77.6985 98.774 77.7668 98.775C78.1242 98.7798 78.5637 98.7857 79.0852 98.6717C79.7064 98.536 80.4441 98.1965 81.2982 97.6534C82.1525 97.1102 82.7154 96.4313 82.9872 95.6165C83.6085 93.7836 84.1035 91.3541 84.4724 87.688C84.8412 84.0219 85.113 80.7545 85.2877 77.886C85.4623 75.0176 85.6855 73.4306 85.9573 73.125C86.2291 73.2269 86.8408 73.4985 87.7919 73.9397C88.7431 74.3811 89.7236 74.7714 90.733 75.1109C91.8977 75.4843 93.4896 75.9936 95.5086 76.6385C97.5275 77.2835 99.1193 77.8012 100.284 78.1915C101.449 78.582 102.74 79.0487 104.157 79.5918C105.574 80.135 106.72 80.6866 107.593 81.2467C108.467 81.8067 109.136 82.3755 109.602 82.9525C110.107 84.3103 110.466 88.0444 110.68 94.1548C110.893 100.262 111 105.217 111 109.023V109.023ZM72.5625 93.625C72.5625 95.0403 71.4153 96.1875 70 96.1875C68.5847 96.1875 67.4375 95.0403 67.4375 93.625C67.4375 92.2097 68.5847 91.0625 70 91.0625C71.4153 91.0625 72.5625 92.2097 72.5625 93.625ZM70 88.5C71.4153 88.5 72.5625 87.3528 72.5625 85.9375C72.5625 84.5222 71.4153 83.375 70 83.375C68.5847 83.375 67.4375 84.5222 67.4375 85.9375C67.4375 87.3528 68.5847 88.5 70 88.5ZM59.75 70.5625L70 73.125L80.25 70.5625V80.8125L70 78.5703L59.75 80.8125V70.5625ZM70 68C58.6782 68 49.5 58.8218 49.5 47.5C49.5 36.1782 58.6782 27 70 27C81.3218 27 90.5 36.1782 90.5 47.5C90.5 58.8218 81.3218 68 70 68ZM87.425 47.6281C85.7594 47.9697 83.3783 47.8096 80.282 47.1477C77.1857 46.4856 74.5697 45.7062 72.4344 44.8094C70.9822 44.1687 69.5943 43.432 68.2703 42.5992C66.9463 41.7664 65.4303 40.7199 63.7219 39.4602C62.0135 38.2002 60.6896 37.2713 59.75 36.6734C60.4334 41.7557 58.0416 45.3859 52.575 47.5641C52.6178 52.39 54.3367 56.4901 57.732 59.8641C61.1273 63.2379 65.2166 64.925 70 64.925C74.7834 64.925 78.8727 63.2379 82.268 59.8641C85.6633 56.4901 87.3822 52.4115 87.425 47.6281V47.6281Z" fill="black"/>
</g>
<defs>
<clipPath id="clip0_6_21">
<rect width="82" height="82" fill="white" transform="translate(29 27)"/>
</clipPath>
</defs>
</svg>
