<svg width="450" height="700" viewBox="0 0 450 700" fill="none" xmlns="http://www.w3.org/2000/svg">
<rect width="450" height="700" rx="20" fill="#BFE3FF"/>
<rect x="75" y="28" width="300" height="100" rx="40" fill="#F7DFC7"/>
<path d="M120.899 46.7273H127.183L132.104 56.4659H132.308L137.229 46.7273H143.513L135.001 62.2273V70H129.411V62.2273L120.899 46.7273ZM149.987 70.3295C148.154 70.3295 146.578 69.9545 145.26 69.2045C143.949 68.447 142.938 67.3939 142.226 66.0455C141.521 64.6894 141.169 63.1174 141.169 61.3295C141.169 59.5341 141.521 57.9621 142.226 56.6136C142.938 55.2576 143.949 54.2045 145.26 53.4545C146.578 52.697 148.154 52.3182 149.987 52.3182C151.821 52.3182 153.393 52.697 154.703 53.4545C156.021 54.2045 157.033 55.2576 157.737 56.6136C158.449 57.9621 158.805 59.5341 158.805 61.3295C158.805 63.1174 158.449 64.6894 157.737 66.0455C157.033 67.3939 156.021 68.447 154.703 69.2045C153.393 69.9545 151.821 70.3295 149.987 70.3295ZM150.021 66.1364C150.688 66.1364 151.252 65.9318 151.714 65.5227C152.177 65.1136 152.529 64.5455 152.771 63.8182C153.021 63.0909 153.146 62.25 153.146 61.2955C153.146 60.3258 153.021 59.4773 152.771 58.75C152.529 58.0227 152.177 57.4545 151.714 57.0455C151.252 56.6364 150.688 56.4318 150.021 56.4318C149.332 56.4318 148.749 56.6364 148.271 57.0455C147.802 57.4545 147.442 58.0227 147.192 58.75C146.949 59.4773 146.828 60.3258 146.828 61.2955C146.828 62.25 146.949 63.0909 147.192 63.8182C147.442 64.5455 147.802 65.1136 148.271 65.5227C148.749 65.9318 149.332 66.1364 150.021 66.1364ZM172.913 62.4659V52.5455H178.459V70H173.163V66.75H172.982C172.595 67.8182 171.936 68.6667 171.004 69.2955C170.08 69.9167 168.963 70.2273 167.652 70.2273C166.463 70.2273 165.417 69.9545 164.516 69.4091C163.614 68.8636 162.913 68.1023 162.413 67.125C161.913 66.1402 161.66 64.9886 161.652 63.6705V52.5455H167.209V62.5795C167.216 63.5265 167.466 64.2727 167.959 64.8182C168.451 65.3636 169.122 65.6364 169.97 65.6364C170.523 65.6364 171.019 65.5152 171.459 65.2727C171.906 65.0227 172.258 64.6629 172.516 64.1932C172.781 63.7159 172.913 63.1402 172.913 62.4659ZM187.089 46.7273V49.3182C187.089 50.0379 186.946 50.7652 186.658 51.5C186.377 52.2273 186.01 52.9091 185.555 53.5455C185.101 54.1818 184.62 54.7197 184.112 55.1591L181.749 53.8636C182.097 53.2879 182.408 52.6402 182.68 51.9205C182.953 51.1932 183.089 50.3295 183.089 49.3295V46.7273H187.089ZM189.527 70V52.5455H194.925V55.7273H195.107C195.425 54.5758 195.944 53.7197 196.663 53.1591C197.383 52.5909 198.22 52.3068 199.175 52.3068C199.432 52.3068 199.697 52.3258 199.97 52.3636C200.243 52.3939 200.497 52.4432 200.732 52.5114V57.3409C200.466 57.25 200.118 57.178 199.686 57.125C199.262 57.072 198.883 57.0455 198.55 57.0455C197.891 57.0455 197.296 57.1932 196.766 57.4886C196.243 57.7765 195.83 58.1818 195.527 58.7045C195.232 59.2197 195.084 59.8258 195.084 60.5227V70H189.527ZM210.249 70.3295C208.423 70.3295 206.847 69.9697 205.521 69.25C204.203 68.5227 203.188 67.4886 202.476 66.1477C201.771 64.7992 201.419 63.197 201.419 61.3409C201.419 59.5379 201.775 57.9621 202.487 56.6136C203.199 55.2576 204.203 54.2045 205.499 53.4545C206.794 52.697 208.321 52.3182 210.078 52.3182C211.321 52.3182 212.457 52.5114 213.487 52.8977C214.518 53.2841 215.408 53.8561 216.158 54.6136C216.908 55.3712 217.491 56.3068 217.908 57.4205C218.324 58.5265 218.533 59.7955 218.533 61.2273V62.6136H203.362V59.3864H213.362C213.355 58.7955 213.214 58.2689 212.942 57.8068C212.669 57.3447 212.294 56.9848 211.817 56.7273C211.347 56.4621 210.805 56.3295 210.192 56.3295C209.571 56.3295 209.014 56.4697 208.521 56.75C208.029 57.0227 207.639 57.3977 207.351 57.875C207.063 58.3447 206.911 58.8788 206.896 59.4773V62.7614C206.896 63.4735 207.036 64.0985 207.317 64.6364C207.597 65.1667 207.995 65.5795 208.51 65.875C209.025 66.1705 209.639 66.3182 210.351 66.3182C210.843 66.3182 211.29 66.25 211.692 66.1136C212.093 65.9773 212.438 65.7765 212.726 65.5114C213.014 65.2462 213.23 64.9205 213.374 64.5341L218.476 64.6818C218.264 65.8258 217.798 66.822 217.078 67.6705C216.366 68.5114 215.43 69.1667 214.271 69.6364C213.112 70.0985 211.771 70.3295 210.249 70.3295ZM248.053 46.7273V70H243.28L234.018 56.5682H233.871V70H228.246V46.7273H233.087L242.246 60.1364H242.439V46.7273H248.053ZM259.737 70.3295C257.904 70.3295 256.328 69.9545 255.01 69.2045C253.699 68.447 252.688 67.3939 251.976 66.0455C251.271 64.6894 250.919 63.1174 250.919 61.3295C250.919 59.5341 251.271 57.9621 251.976 56.6136C252.688 55.2576 253.699 54.2045 255.01 53.4545C256.328 52.697 257.904 52.3182 259.737 52.3182C261.571 52.3182 263.143 52.697 264.453 53.4545C265.771 54.2045 266.783 55.2576 267.487 56.6136C268.199 57.9621 268.555 59.5341 268.555 61.3295C268.555 63.1174 268.199 64.6894 267.487 66.0455C266.783 67.3939 265.771 68.447 264.453 69.2045C263.143 69.9545 261.571 70.3295 259.737 70.3295ZM259.771 66.1364C260.438 66.1364 261.002 65.9318 261.464 65.5227C261.927 65.1136 262.279 64.5455 262.521 63.8182C262.771 63.0909 262.896 62.25 262.896 61.2955C262.896 60.3258 262.771 59.4773 262.521 58.75C262.279 58.0227 261.927 57.4545 261.464 57.0455C261.002 56.6364 260.438 56.4318 259.771 56.4318C259.082 56.4318 258.499 56.6364 258.021 57.0455C257.552 57.4545 257.192 58.0227 256.942 58.75C256.699 59.4773 256.578 60.3258 256.578 61.2955C256.578 62.25 256.699 63.0909 256.942 63.8182C257.192 64.5455 257.552 65.1136 258.021 65.5227C258.499 65.9318 259.082 66.1364 259.771 66.1364ZM281.254 52.5455V56.6364H270.243V52.5455H281.254ZM272.55 48.3636H278.107V64.5114C278.107 64.8523 278.16 65.1288 278.266 65.3409C278.379 65.5455 278.542 65.6932 278.754 65.7841C278.966 65.8674 279.22 65.9091 279.516 65.9091C279.728 65.9091 279.951 65.8902 280.186 65.8523C280.429 65.8068 280.61 65.7689 280.732 65.7386L281.572 69.75C281.307 69.8258 280.932 69.9205 280.447 70.0341C279.97 70.1477 279.398 70.2197 278.732 70.25C277.429 70.3106 276.311 70.1591 275.379 69.7955C274.455 69.4242 273.747 68.8485 273.254 68.0682C272.769 67.2879 272.535 66.3068 272.55 65.125V48.3636ZM290.964 70V46.7273H306.851V51.2955H296.589V56.0682H305.839V60.6477H296.589V70H290.964ZM309.683 70V52.5455H315.24V70H309.683ZM312.467 50.5114C311.687 50.5114 311.017 50.2538 310.456 49.7386C309.895 49.2159 309.615 48.5871 309.615 47.8523C309.615 47.125 309.895 46.5038 310.456 45.9886C311.017 45.4659 311.687 45.2045 312.467 45.2045C313.255 45.2045 313.926 45.4659 314.479 45.9886C315.039 46.5038 315.32 47.125 315.32 47.8523C315.32 48.5871 315.039 49.2159 314.479 49.7386C313.926 50.2538 313.255 50.5114 312.467 50.5114ZM328.629 52.5455V56.6364H317.618V52.5455H328.629ZM319.925 48.3636H325.482V64.5114C325.482 64.8523 325.535 65.1288 325.641 65.3409C325.754 65.5455 325.917 65.6932 326.129 65.7841C326.341 65.8674 326.595 65.9091 326.891 65.9091C327.103 65.9091 327.326 65.8902 327.561 65.8523C327.804 65.8068 327.985 65.7689 328.107 65.7386L328.947 69.75C328.682 69.8258 328.307 69.9205 327.822 70.0341C327.345 70.1477 326.773 70.2197 326.107 70.25C324.804 70.3106 323.686 70.1591 322.754 69.7955C321.83 69.4242 321.122 68.8485 320.629 68.0682C320.144 67.2879 319.91 66.3068 319.925 65.125V48.3636ZM109.949 109V85.7273H125.835V90.2955H115.574V95.0682H124.824V99.6477H115.574V109H109.949ZM135.534 109.33C133.701 109.33 132.125 108.955 130.807 108.205C129.496 107.447 128.485 106.394 127.773 105.045C127.068 103.689 126.716 102.117 126.716 100.33C126.716 98.5341 127.068 96.9621 127.773 95.6136C128.485 94.2576 129.496 93.2045 130.807 92.4545C132.125 91.697 133.701 91.3182 135.534 91.3182C137.367 91.3182 138.939 91.697 140.25 92.4545C141.568 93.2045 142.58 94.2576 143.284 95.6136C143.996 96.9621 144.352 98.5341 144.352 100.33C144.352 102.117 143.996 103.689 143.284 105.045C142.58 106.394 141.568 107.447 140.25 108.205C138.939 108.955 137.367 109.33 135.534 109.33ZM135.568 105.136C136.235 105.136 136.799 104.932 137.261 104.523C137.723 104.114 138.076 103.545 138.318 102.818C138.568 102.091 138.693 101.25 138.693 100.295C138.693 99.3258 138.568 98.4773 138.318 97.75C138.076 97.0227 137.723 96.4545 137.261 96.0455C136.799 95.6364 136.235 95.4318 135.568 95.4318C134.879 95.4318 134.295 95.6364 133.818 96.0455C133.348 96.4545 132.989 97.0227 132.739 97.75C132.496 98.4773 132.375 99.3258 132.375 100.295C132.375 101.25 132.496 102.091 132.739 102.818C132.989 103.545 133.348 104.114 133.818 104.523C134.295 104.932 134.879 105.136 135.568 105.136ZM147.199 109V91.5455H152.597V94.7273H152.778C153.097 93.5758 153.616 92.7197 154.335 92.1591C155.055 91.5909 155.892 91.3068 156.847 91.3068C157.104 91.3068 157.369 91.3258 157.642 91.3636C157.915 91.3939 158.169 91.4432 158.403 91.5114V96.3409C158.138 96.25 157.79 96.178 157.358 96.125C156.934 96.072 156.555 96.0455 156.222 96.0455C155.563 96.0455 154.968 96.1932 154.438 96.4886C153.915 96.7765 153.502 97.1818 153.199 97.7045C152.903 98.2197 152.756 98.8258 152.756 99.5227V109H147.199ZM173.122 109L166.349 85.7273H172.565L176.077 100.977H176.27L180.281 85.7273H185.349L189.361 101.011H189.554L193.077 85.7273H199.281L192.52 109H187.099L182.906 94.8864H182.724L178.531 109H173.122ZM204.588 109.295C203.474 109.295 202.486 109.11 201.622 108.739C200.766 108.36 200.088 107.792 199.588 107.034C199.096 106.269 198.849 105.311 198.849 104.159C198.849 103.189 199.02 102.371 199.361 101.705C199.702 101.038 200.171 100.496 200.77 100.08C201.368 99.6629 202.058 99.3485 202.838 99.1364C203.618 98.9167 204.452 98.7689 205.338 98.6932C206.33 98.6023 207.13 98.5076 207.736 98.4091C208.342 98.303 208.781 98.1553 209.054 97.9659C209.334 97.7689 209.474 97.4924 209.474 97.1364V97.0795C209.474 96.4962 209.274 96.0455 208.872 95.7273C208.471 95.4091 207.929 95.25 207.247 95.25C206.512 95.25 205.921 95.4091 205.474 95.7273C205.027 96.0455 204.743 96.4848 204.622 97.0455L199.497 96.8636C199.649 95.803 200.039 94.8561 200.668 94.0227C201.304 93.1818 202.175 92.5227 203.281 92.0455C204.395 91.5606 205.732 91.3182 207.293 91.3182C208.406 91.3182 209.433 91.4508 210.372 91.7159C211.312 91.9735 212.13 92.3523 212.827 92.8523C213.524 93.3447 214.062 93.9508 214.44 94.6705C214.827 95.3902 215.02 96.2121 215.02 97.1364V109H209.793V106.568H209.656C209.346 107.159 208.948 107.659 208.463 108.068C207.986 108.477 207.421 108.784 206.77 108.989C206.126 109.193 205.399 109.295 204.588 109.295ZM206.304 105.659C206.902 105.659 207.44 105.538 207.918 105.295C208.402 105.053 208.789 104.72 209.077 104.295C209.365 103.864 209.509 103.364 209.509 102.795V101.136C209.349 101.22 209.156 101.295 208.929 101.364C208.709 101.432 208.467 101.496 208.202 101.557C207.937 101.617 207.664 101.67 207.384 101.716C207.103 101.761 206.834 101.803 206.577 101.841C206.054 101.924 205.607 102.053 205.236 102.227C204.872 102.402 204.592 102.629 204.395 102.909C204.205 103.182 204.111 103.508 204.111 103.886C204.111 104.462 204.315 104.902 204.724 105.205C205.141 105.508 205.668 105.659 206.304 105.659ZM218.418 109V91.5455H223.815V94.7273H223.997C224.315 93.5758 224.834 92.7197 225.554 92.1591C226.274 91.5909 227.111 91.3068 228.065 91.3068C228.323 91.3068 228.588 91.3258 228.861 91.3636C229.134 91.3939 229.387 91.4432 229.622 91.5114V96.3409C229.357 96.25 229.009 96.178 228.577 96.125C228.152 96.072 227.774 96.0455 227.44 96.0455C226.781 96.0455 226.187 96.1932 225.656 96.4886C225.134 96.7765 224.721 97.1818 224.418 97.7045C224.122 98.2197 223.974 98.8258 223.974 99.5227V109H218.418ZM235.557 105.818L235.455 107.08C235.364 108.125 235.178 109.144 234.898 110.136C234.625 111.136 234.333 112.034 234.023 112.83C233.712 113.625 233.466 114.242 233.284 114.682H229.784C229.905 114.242 230.068 113.625 230.273 112.83C230.485 112.034 230.682 111.136 230.864 110.136C231.045 109.136 231.148 108.121 231.17 107.091L231.193 105.818H235.557ZM257.81 92.7045C257.734 91.8712 257.397 91.2235 256.798 90.7614C256.207 90.2917 255.363 90.0568 254.264 90.0568C253.537 90.0568 252.931 90.1515 252.446 90.3409C251.961 90.5303 251.598 90.7917 251.355 91.125C251.113 91.4508 250.988 91.8258 250.98 92.25C250.965 92.5985 251.033 92.9053 251.185 93.1705C251.344 93.4356 251.571 93.6705 251.866 93.875C252.17 94.072 252.533 94.2462 252.957 94.3977C253.382 94.5492 253.859 94.6818 254.389 94.7955L256.389 95.25C257.541 95.5 258.556 95.8333 259.435 96.25C260.321 96.6667 261.063 97.1629 261.662 97.7386C262.268 98.3144 262.726 98.9773 263.037 99.7273C263.348 100.477 263.507 101.318 263.514 102.25C263.507 103.72 263.135 104.981 262.401 106.034C261.666 107.087 260.609 107.894 259.23 108.455C257.859 109.015 256.204 109.295 254.264 109.295C252.317 109.295 250.62 109.004 249.173 108.42C247.726 107.837 246.601 106.951 245.798 105.761C244.995 104.572 244.582 103.068 244.56 101.25H249.946C249.991 102 250.192 102.625 250.548 103.125C250.904 103.625 251.393 104.004 252.014 104.261C252.643 104.519 253.37 104.648 254.196 104.648C254.954 104.648 255.598 104.545 256.128 104.341C256.666 104.136 257.079 103.852 257.366 103.489C257.654 103.125 257.802 102.708 257.81 102.239C257.802 101.799 257.666 101.424 257.401 101.114C257.135 100.795 256.726 100.523 256.173 100.295C255.628 100.061 254.931 99.8447 254.082 99.6477L251.651 99.0795C249.635 98.6174 248.048 97.8712 246.889 96.8409C245.73 95.803 245.154 94.4015 245.162 92.6364C245.154 91.197 245.541 89.9356 246.321 88.8523C247.101 87.7689 248.181 86.9242 249.56 86.3182C250.938 85.7121 252.51 85.4091 254.276 85.4091C256.079 85.4091 257.643 85.7159 258.969 86.3295C260.302 86.9356 261.336 87.7879 262.071 88.8864C262.806 89.9848 263.181 91.2576 263.196 92.7045H257.81ZM274.503 109.33C272.67 109.33 271.094 108.955 269.776 108.205C268.465 107.447 267.454 106.394 266.741 105.045C266.037 103.689 265.685 102.117 265.685 100.33C265.685 98.5341 266.037 96.9621 266.741 95.6136C267.454 94.2576 268.465 93.2045 269.776 92.4545C271.094 91.697 272.67 91.3182 274.503 91.3182C276.336 91.3182 277.908 91.697 279.219 92.4545C280.537 93.2045 281.548 94.2576 282.253 95.6136C282.965 96.9621 283.321 98.5341 283.321 100.33C283.321 102.117 282.965 103.689 282.253 105.045C281.548 106.394 280.537 107.447 279.219 108.205C277.908 108.955 276.336 109.33 274.503 109.33ZM274.537 105.136C275.204 105.136 275.768 104.932 276.23 104.523C276.692 104.114 277.045 103.545 277.287 102.818C277.537 102.091 277.662 101.25 277.662 100.295C277.662 99.3258 277.537 98.4773 277.287 97.75C277.045 97.0227 276.692 96.4545 276.23 96.0455C275.768 95.6364 275.204 95.4318 274.537 95.4318C273.848 95.4318 273.264 95.6364 272.787 96.0455C272.317 96.4545 271.957 97.0227 271.707 97.75C271.465 98.4773 271.344 99.3258 271.344 100.295C271.344 101.25 271.465 102.091 271.707 102.818C271.957 103.545 272.317 104.114 272.787 104.523C273.264 104.932 273.848 105.136 274.537 105.136ZM286.168 109V91.5455H291.565V94.7273H291.747C292.065 93.5758 292.584 92.7197 293.304 92.1591C294.024 91.5909 294.861 91.3068 295.815 91.3068C296.073 91.3068 296.338 91.3258 296.611 91.3636C296.884 91.3939 297.137 91.4432 297.372 91.5114V96.3409C297.107 96.25 296.759 96.178 296.327 96.125C295.902 96.072 295.524 96.0455 295.19 96.0455C294.531 96.0455 293.937 96.1932 293.406 96.4886C292.884 96.7765 292.471 97.1818 292.168 97.7045C291.872 98.2197 291.724 98.8258 291.724 99.5227V109H286.168ZM299.636 109V91.5455H305.034V94.7273H305.216C305.534 93.5758 306.053 92.7197 306.773 92.1591C307.492 91.5909 308.33 91.3068 309.284 91.3068C309.542 91.3068 309.807 91.3258 310.08 91.3636C310.352 91.3939 310.606 91.4432 310.841 91.5114V96.3409C310.576 96.25 310.227 96.178 309.795 96.125C309.371 96.072 308.992 96.0455 308.659 96.0455C308 96.0455 307.405 96.1932 306.875 96.4886C306.352 96.7765 305.939 97.1818 305.636 97.7045C305.341 98.2197 305.193 98.8258 305.193 99.5227V109H299.636ZM317.034 115.545C316.367 115.545 315.739 115.492 315.148 115.386C314.557 115.288 314.049 115.155 313.625 114.989L314.852 110.955C315.398 111.136 315.89 111.242 316.33 111.273C316.777 111.303 317.159 111.231 317.477 111.057C317.803 110.89 318.053 110.591 318.227 110.159L318.443 109.636L312.239 91.5455H318.057L321.273 104H321.455L324.716 91.5455H330.568L323.989 110.67C323.67 111.625 323.22 112.466 322.636 113.193C322.061 113.928 321.314 114.504 320.398 114.92C319.489 115.337 318.367 115.545 317.034 115.545ZM339.233 85.7273L338.71 101.875H334.04L333.517 85.7273H339.233ZM336.369 109.33C335.559 109.33 334.862 109.042 334.278 108.466C333.703 107.89 333.415 107.193 333.415 106.375C333.415 105.572 333.703 104.886 334.278 104.318C334.862 103.742 335.559 103.455 336.369 103.455C337.15 103.455 337.835 103.742 338.426 104.318C339.025 104.886 339.324 105.572 339.324 106.375C339.324 106.92 339.184 107.417 338.903 107.864C338.631 108.311 338.271 108.667 337.824 108.932C337.384 109.197 336.9 109.33 336.369 109.33Z" fill="black"/>
<rect x="125" y="301" width="200" height="40" rx="20" fill="#F7DFC7"/>
<path d="M227.562 366C249.725 366 270.979 374.804 286.65 390.475C302.321 406.146 311.125 427.4 311.125 449.562C311.125 471.725 302.321 492.979 286.65 508.65C270.979 524.321 249.725 533.125 227.562 533.125C205.4 533.125 184.146 524.321 168.475 508.65C152.804 492.979 144 471.725 144 449.562C144 427.4 152.804 406.146 168.475 390.475C184.146 374.804 205.4 366 227.562 366V366ZM227.562 401.812C226.047 401.811 224.548 402.126 223.161 402.737C221.774 403.348 220.529 404.241 219.507 405.36C218.485 406.479 217.707 407.799 217.224 409.235C216.74 410.671 216.562 412.193 216.699 413.702L221.057 461.524C221.225 463.132 221.984 464.62 223.185 465.702C224.387 466.783 225.946 467.382 227.562 467.382C229.179 467.382 230.738 466.783 231.94 465.702C233.141 464.62 233.9 463.132 234.068 461.524L238.414 413.702C238.551 412.194 238.373 410.673 237.89 409.238C237.408 407.802 236.631 406.483 235.61 405.364C234.589 404.246 233.346 403.352 231.961 402.74C230.575 402.129 229.077 401.813 227.562 401.812V401.812ZM227.562 497.312C230.095 497.312 232.524 496.306 234.315 494.515C236.106 492.724 237.113 490.295 237.113 487.762C237.113 485.23 236.106 482.801 234.315 481.01C232.524 479.219 230.095 478.212 227.562 478.212C225.03 478.212 222.601 479.219 220.81 481.01C219.019 482.801 218.012 485.23 218.012 487.762C218.012 490.295 219.019 492.724 220.81 494.515C222.601 496.306 225.03 497.312 227.562 497.312V497.312Z" fill="black"/>
</svg>
