<svg width="450" height="700" viewBox="0 0 450 700" fill="none" xmlns="http://www.w3.org/2000/svg">
<rect width="450" height="700" rx="20" fill="#BFE3FF"/>
<rect x="75" y="14" width="300" height="80" rx="40" fill="#F7DFC7"/>
<path d="M151.693 49L146.614 31.5455H151.276L153.909 42.983H154.054L157.062 31.5455H160.864L163.872 43.0085H164.017L166.659 31.5455H171.312L166.241 49H162.176L159.031 38.4148H158.895L155.75 49H151.693ZM177.722 49.2472C176.352 49.2472 175.17 48.9773 174.176 48.4375C173.188 47.892 172.426 47.1165 171.892 46.1108C171.364 45.0994 171.099 43.8977 171.099 42.5057C171.099 41.1534 171.366 39.9716 171.901 38.9602C172.435 37.9432 173.188 37.1534 174.159 36.5909C175.131 36.0227 176.276 35.7386 177.594 35.7386C178.526 35.7386 179.378 35.8835 180.151 36.1733C180.923 36.4631 181.591 36.892 182.153 37.4602C182.716 38.0284 183.153 38.7301 183.466 39.5653C183.778 40.3949 183.935 41.3466 183.935 42.4205V43.4602H172.557V41.0398H180.057C180.051 40.5966 179.946 40.2017 179.741 39.8551C179.537 39.5085 179.256 39.2386 178.898 39.0455C178.545 38.8466 178.139 38.7472 177.679 38.7472C177.213 38.7472 176.795 38.8523 176.426 39.0625C176.057 39.267 175.764 39.5483 175.548 39.9062C175.332 40.2585 175.219 40.6591 175.207 41.108V43.571C175.207 44.1051 175.313 44.5739 175.523 44.9773C175.733 45.375 176.031 45.6847 176.418 45.9062C176.804 46.1278 177.264 46.2386 177.798 46.2386C178.168 46.2386 178.503 46.1875 178.804 46.0852C179.105 45.983 179.364 45.8324 179.58 45.6335C179.795 45.4347 179.957 45.1903 180.065 44.9006L183.892 45.0114C183.733 45.8693 183.384 46.6165 182.844 47.2528C182.31 47.8835 181.608 48.375 180.739 48.7273C179.869 49.0739 178.864 49.2472 177.722 49.2472ZM190.231 31.5455V49H186.063V31.5455H190.231ZM198.994 49.2472C197.614 49.2472 196.429 48.9631 195.44 48.3949C194.457 47.8267 193.702 47.0369 193.173 46.0256C192.645 45.0085 192.381 43.8324 192.381 42.4972C192.381 41.1562 192.645 39.9801 193.173 38.9688C193.707 37.9517 194.466 37.1591 195.449 36.5909C196.438 36.0227 197.616 35.7386 198.986 35.7386C200.196 35.7386 201.25 35.9574 202.148 36.3949C203.051 36.8324 203.756 37.4517 204.261 38.2528C204.773 39.0483 205.043 39.983 205.071 41.0568H201.176C201.097 40.3864 200.869 39.8608 200.494 39.4801C200.125 39.0994 199.642 38.9091 199.045 38.9091C198.563 38.9091 198.139 39.0455 197.776 39.3182C197.412 39.5852 197.128 39.983 196.923 40.5114C196.724 41.0341 196.625 41.6818 196.625 42.4545C196.625 43.2273 196.724 43.8807 196.923 44.4148C197.128 44.9432 197.412 45.3437 197.776 45.6165C198.139 45.8835 198.563 46.017 199.045 46.017C199.432 46.017 199.773 45.9347 200.068 45.7699C200.369 45.6051 200.616 45.3636 200.81 45.0455C201.003 44.7216 201.125 44.3295 201.176 43.8693H205.071C205.031 44.9489 204.761 45.892 204.261 46.6989C203.767 47.5057 203.071 48.1335 202.173 48.5824C201.281 49.0256 200.222 49.2472 198.994 49.2472ZM213.315 49.2472C211.94 49.2472 210.758 48.9659 209.769 48.4034C208.786 47.8352 208.028 47.0455 207.494 46.0341C206.965 45.017 206.701 43.8381 206.701 42.4972C206.701 41.1506 206.965 39.9716 207.494 38.9602C208.028 37.9432 208.786 37.1534 209.769 36.5909C210.758 36.0227 211.94 35.7386 213.315 35.7386C214.69 35.7386 215.869 36.0227 216.852 36.5909C217.84 37.1534 218.599 37.9432 219.127 38.9602C219.661 39.9716 219.928 41.1506 219.928 42.4972C219.928 43.8381 219.661 45.017 219.127 46.0341C218.599 47.0455 217.84 47.8352 216.852 48.4034C215.869 48.9659 214.69 49.2472 213.315 49.2472ZM213.34 46.1023C213.84 46.1023 214.263 45.9489 214.61 45.642C214.957 45.3352 215.221 44.9091 215.403 44.3636C215.59 43.8182 215.684 43.1875 215.684 42.4716C215.684 41.7443 215.59 41.108 215.403 40.5625C215.221 40.017 214.957 39.5909 214.61 39.2841C214.263 38.9773 213.84 38.8239 213.34 38.8239C212.823 38.8239 212.386 38.9773 212.028 39.2841C211.675 39.5909 211.406 40.017 211.218 40.5625C211.036 41.108 210.945 41.7443 210.945 42.4716C210.945 43.1875 211.036 43.8182 211.218 44.3636C211.406 44.9091 211.675 45.3352 212.028 45.642C212.386 45.9489 212.823 46.1023 213.34 46.1023ZM222.063 49V35.9091H226.026V38.3125H226.171C226.444 37.517 226.904 36.8892 227.552 36.429C228.2 35.9688 228.972 35.7386 229.87 35.7386C230.779 35.7386 231.558 35.9716 232.205 36.4375C232.853 36.9034 233.265 37.5284 233.441 38.3125H233.577C233.822 37.5341 234.299 36.9119 235.009 36.446C235.719 35.9744 236.558 35.7386 237.523 35.7386C238.762 35.7386 239.768 36.1364 240.54 36.9318C241.313 37.7216 241.7 38.8068 241.7 40.1875V49H237.532V41.142C237.532 40.4886 237.364 39.9915 237.029 39.6506C236.694 39.304 236.259 39.1307 235.725 39.1307C235.151 39.1307 234.7 39.3182 234.37 39.6932C234.046 40.0625 233.884 40.5597 233.884 41.1847V49H229.879V41.0994C229.879 40.4915 229.714 40.0114 229.384 39.6591C229.055 39.3068 228.62 39.1307 228.08 39.1307C227.717 39.1307 227.396 39.2187 227.117 39.3949C226.839 39.5653 226.62 39.8097 226.461 40.1278C226.308 40.446 226.231 40.821 226.231 41.2528V49H222.063ZM250.401 49.2472C249.032 49.2472 247.85 48.9773 246.856 48.4375C245.867 47.892 245.106 47.1165 244.572 46.1108C244.043 45.0994 243.779 43.8977 243.779 42.5057C243.779 41.1534 244.046 39.9716 244.58 38.9602C245.114 37.9432 245.867 37.1534 246.839 36.5909C247.81 36.0227 248.955 35.7386 250.273 35.7386C251.205 35.7386 252.058 35.8835 252.83 36.1733C253.603 36.4631 254.271 36.892 254.833 37.4602C255.396 38.0284 255.833 38.7301 256.146 39.5653C256.458 40.3949 256.614 41.3466 256.614 42.4205V43.4602H245.237V41.0398H252.737C252.731 40.5966 252.626 40.2017 252.421 39.8551C252.217 39.5085 251.935 39.2386 251.577 39.0455C251.225 38.8466 250.819 38.7472 250.359 38.7472C249.893 38.7472 249.475 38.8523 249.106 39.0625C248.737 39.267 248.444 39.5483 248.228 39.9062C248.012 40.2585 247.898 40.6591 247.887 41.108V43.571C247.887 44.1051 247.992 44.5739 248.202 44.9773C248.413 45.375 248.711 45.6847 249.097 45.9062C249.484 46.1278 249.944 46.2386 250.478 46.2386C250.847 46.2386 251.183 46.1875 251.484 46.0852C251.785 45.983 252.043 45.8324 252.259 45.6335C252.475 45.4347 252.637 45.1903 252.745 44.9006L256.572 45.0114C256.413 45.8693 256.063 46.6165 255.523 47.2528C254.989 47.8835 254.288 48.375 253.418 48.7273C252.549 49.0739 251.543 49.2472 250.401 49.2472ZM271.288 35.9091V38.9773H263.03V35.9091H271.288ZM264.76 32.7727H268.928V44.8835C268.928 45.1392 268.967 45.3466 269.047 45.5057C269.132 45.6591 269.254 45.7699 269.413 45.8381C269.572 45.9006 269.763 45.9318 269.984 45.9318C270.143 45.9318 270.311 45.9176 270.487 45.8892C270.669 45.8551 270.805 45.8267 270.896 45.804L271.527 48.8125C271.328 48.8693 271.047 48.9403 270.683 49.0256C270.325 49.1108 269.896 49.1648 269.396 49.1875C268.419 49.233 267.581 49.1193 266.882 48.8466C266.189 48.5682 265.658 48.1364 265.288 47.5511C264.925 46.9659 264.749 46.2301 264.76 45.3438V32.7727ZM279.385 49.2472C278.01 49.2472 276.828 48.9659 275.839 48.4034C274.857 47.8352 274.098 47.0455 273.564 46.0341C273.036 45.017 272.771 43.8381 272.771 42.4972C272.771 41.1506 273.036 39.9716 273.564 38.9602C274.098 37.9432 274.857 37.1534 275.839 36.5909C276.828 36.0227 278.01 35.7386 279.385 35.7386C280.76 35.7386 281.939 36.0227 282.922 36.5909C283.911 37.1534 284.669 37.9432 285.197 38.9602C285.732 39.9716 285.999 41.1506 285.999 42.4972C285.999 43.8381 285.732 45.017 285.197 46.0341C284.669 47.0455 283.911 47.8352 282.922 48.4034C281.939 48.9659 280.76 49.2472 279.385 49.2472ZM279.411 46.1023C279.911 46.1023 280.334 45.9489 280.68 45.642C281.027 45.3352 281.291 44.9091 281.473 44.3636C281.661 43.8182 281.754 43.1875 281.754 42.4716C281.754 41.7443 281.661 41.108 281.473 40.5625C281.291 40.017 281.027 39.5909 280.68 39.2841C280.334 38.9773 279.911 38.8239 279.411 38.8239C278.893 38.8239 278.456 38.9773 278.098 39.2841C277.746 39.5909 277.476 40.017 277.288 40.5625C277.107 41.108 277.016 41.7443 277.016 42.4716C277.016 43.1875 277.107 43.8182 277.288 44.3636C277.476 44.9091 277.746 45.3352 278.098 45.642C278.456 45.9489 278.893 46.1023 279.411 46.1023ZM104.225 78.2472C102.844 78.2472 101.659 77.9631 100.671 77.3949C99.6879 76.8267 98.9322 76.0369 98.4038 75.0256C97.8754 74.0085 97.6112 72.8324 97.6112 71.4972C97.6112 70.1562 97.8754 68.9801 98.4038 67.9688C98.9379 66.9517 99.6964 66.1591 100.679 65.5909C101.668 65.0227 102.847 64.7386 104.216 64.7386C105.426 64.7386 106.48 64.9574 107.378 65.3949C108.282 65.8324 108.986 66.4517 109.492 67.2528C110.003 68.0483 110.273 68.983 110.301 70.0568H106.407C106.327 69.3864 106.1 68.8608 105.725 68.4801C105.355 68.0994 104.873 67.9091 104.276 67.9091C103.793 67.9091 103.37 68.0455 103.006 68.3182C102.642 68.5852 102.358 68.983 102.154 69.5114C101.955 70.0341 101.855 70.6818 101.855 71.4545C101.855 72.2273 101.955 72.8807 102.154 73.4148C102.358 73.9432 102.642 74.3437 103.006 74.6165C103.37 74.8835 103.793 75.017 104.276 75.017C104.662 75.017 105.003 74.9347 105.299 74.7699C105.6 74.6051 105.847 74.3636 106.04 74.0455C106.233 73.7216 106.355 73.3295 106.407 72.8693H110.301C110.262 73.9489 109.992 74.892 109.492 75.6989C108.998 76.5057 108.301 77.1335 107.404 77.5824C106.512 78.0256 105.452 78.2472 104.225 78.2472ZM118.545 78.2472C117.17 78.2472 115.988 77.9659 115 77.4034C114.017 76.8352 113.258 76.0455 112.724 75.0341C112.196 74.017 111.931 72.8381 111.931 71.4972C111.931 70.1506 112.196 68.9716 112.724 67.9602C113.258 66.9432 114.017 66.1534 115 65.5909C115.988 65.0227 117.17 64.7386 118.545 64.7386C119.92 64.7386 121.099 65.0227 122.082 65.5909C123.071 66.1534 123.829 66.9432 124.358 67.9602C124.892 68.9716 125.159 70.1506 125.159 71.4972C125.159 72.8381 124.892 74.017 124.358 75.0341C123.829 76.0455 123.071 76.8352 122.082 77.4034C121.099 77.9659 119.92 78.2472 118.545 78.2472ZM118.571 75.1023C119.071 75.1023 119.494 74.9489 119.841 74.642C120.187 74.3352 120.451 73.9091 120.633 73.3636C120.821 72.8182 120.914 72.1875 120.914 71.4716C120.914 70.7443 120.821 70.108 120.633 69.5625C120.451 69.017 120.187 68.5909 119.841 68.2841C119.494 67.9773 119.071 67.8239 118.571 67.8239C118.054 67.8239 117.616 67.9773 117.258 68.2841C116.906 68.5909 116.636 69.017 116.449 69.5625C116.267 70.108 116.176 70.7443 116.176 71.4716C116.176 72.1875 116.267 72.8182 116.449 73.3636C116.636 73.9091 116.906 74.3352 117.258 74.642C117.616 74.9489 118.054 75.1023 118.571 75.1023ZM131.461 70.5341V78H127.294V64.9091H131.257V67.3125H131.402C131.691 66.5114 132.186 65.8835 132.885 65.429C133.583 64.9688 134.416 64.7386 135.382 64.7386C136.302 64.7386 137.1 64.946 137.777 65.3608C138.458 65.7699 138.987 66.3437 139.362 67.0824C139.743 67.8153 139.93 68.6733 139.924 69.6562V78H135.757V70.4744C135.762 69.7472 135.578 69.179 135.203 68.7699C134.833 68.3608 134.319 68.1562 133.66 68.1562C133.223 68.1562 132.836 68.2528 132.501 68.446C132.172 68.6335 131.916 68.9034 131.734 69.2557C131.558 69.608 131.467 70.0341 131.461 70.5341ZM153.934 68.9062L150.107 69.0085C150.067 68.7358 149.959 68.4943 149.783 68.2841C149.607 68.0682 149.377 67.9006 149.093 67.7812C148.814 67.6562 148.49 67.5938 148.121 67.5938C147.638 67.5938 147.226 67.6903 146.885 67.8835C146.55 68.0767 146.385 68.3381 146.391 68.6676C146.385 68.9233 146.488 69.1449 146.698 69.3324C146.914 69.5199 147.297 69.6705 147.848 69.7841L150.371 70.2614C151.678 70.5114 152.65 70.9261 153.286 71.5057C153.928 72.0852 154.252 72.8523 154.257 73.8068C154.252 74.7045 153.985 75.4858 153.456 76.1506C152.934 76.8153 152.218 77.3324 151.309 77.7017C150.4 78.0653 149.36 78.2472 148.189 78.2472C146.32 78.2472 144.846 77.8636 143.766 77.0966C142.692 76.3239 142.078 75.2898 141.925 73.9943L146.042 73.892C146.132 74.3693 146.368 74.733 146.749 74.983C147.13 75.233 147.615 75.358 148.206 75.358C148.74 75.358 149.175 75.2585 149.51 75.0597C149.846 74.8608 150.016 74.5966 150.022 74.267C150.016 73.9716 149.885 73.7358 149.63 73.5597C149.374 73.3778 148.973 73.2358 148.428 73.1335L146.144 72.6989C144.831 72.4602 143.854 72.0199 143.212 71.3778C142.57 70.7301 142.252 69.9062 142.257 68.9062C142.252 68.0312 142.485 67.2841 142.956 66.6648C143.428 66.0398 144.098 65.5625 144.968 65.233C145.837 64.9034 146.863 64.7386 148.044 64.7386C149.817 64.7386 151.215 65.1108 152.238 65.8551C153.26 66.5937 153.826 67.6108 153.934 68.9062ZM164.755 72.3494V64.9091H168.914V78H164.943V75.5625H164.806C164.517 76.3636 164.022 77 163.324 77.4716C162.63 77.9375 161.792 78.1705 160.809 78.1705C159.917 78.1705 159.133 77.9659 158.457 77.5568C157.781 77.1477 157.255 76.5767 156.88 75.8438C156.505 75.1051 156.315 74.2415 156.309 73.2528V64.9091H160.477V72.4347C160.483 73.1449 160.67 73.7045 161.039 74.1136C161.409 74.5227 161.912 74.7273 162.548 74.7273C162.963 74.7273 163.335 74.6364 163.664 74.4545C164 74.267 164.264 73.9972 164.457 73.6449C164.656 73.2869 164.755 72.8551 164.755 72.3494ZM175.735 60.5455V78H171.567V60.5455H175.735ZM185.777 64.9091V67.9773H177.518V64.9091H185.777ZM179.248 61.7727H183.416V73.8835C183.416 74.1392 183.456 74.3466 183.535 74.5057C183.62 74.6591 183.743 74.7699 183.902 74.8381C184.061 74.9006 184.251 74.9318 184.473 74.9318C184.632 74.9318 184.799 74.9176 184.975 74.8892C185.157 74.8551 185.294 74.8267 185.385 74.804L186.015 77.8125C185.816 77.8693 185.535 77.9403 185.172 78.0256C184.814 78.1108 184.385 78.1648 183.885 78.1875C182.907 78.233 182.069 78.1193 181.37 77.8466C180.677 77.5682 180.146 77.1364 179.777 76.5511C179.413 75.9659 179.237 75.2301 179.248 74.3438V61.7727ZM191.593 78.2216C190.758 78.2216 190.017 78.0824 189.369 77.804C188.727 77.5199 188.218 77.0937 187.843 76.5256C187.474 75.9517 187.289 75.233 187.289 74.3693C187.289 73.642 187.417 73.0284 187.673 72.5284C187.929 72.0284 188.281 71.6222 188.73 71.3097C189.179 70.9972 189.696 70.7614 190.281 70.6023C190.866 70.4375 191.491 70.3267 192.156 70.2699C192.9 70.2017 193.5 70.1307 193.954 70.0568C194.409 69.9773 194.738 69.8665 194.943 69.7244C195.153 69.5767 195.258 69.3693 195.258 69.1023V69.0597C195.258 68.6222 195.108 68.2841 194.806 68.0455C194.505 67.8068 194.099 67.6875 193.588 67.6875C193.037 67.6875 192.593 67.8068 192.258 68.0455C191.923 68.2841 191.71 68.6136 191.619 69.0341L187.775 68.8977C187.889 68.1023 188.181 67.392 188.653 66.767C189.13 66.1364 189.784 65.642 190.613 65.2841C191.449 64.9205 192.451 64.7386 193.622 64.7386C194.457 64.7386 195.227 64.8381 195.931 65.0369C196.636 65.2301 197.25 65.5142 197.772 65.8892C198.295 66.2585 198.699 66.7131 198.983 67.2528C199.272 67.7926 199.417 68.4091 199.417 69.1023V78H195.497V76.1761H195.395C195.162 76.6193 194.863 76.9943 194.5 77.3011C194.142 77.608 193.718 77.8381 193.23 77.9915C192.747 78.1449 192.201 78.2216 191.593 78.2216ZM192.88 75.4943C193.329 75.4943 193.733 75.4034 194.091 75.2216C194.454 75.0398 194.744 74.7898 194.96 74.4716C195.176 74.1477 195.284 73.7727 195.284 73.3466V72.1023C195.164 72.1648 195.02 72.2216 194.849 72.2727C194.684 72.3239 194.502 72.3722 194.304 72.4176C194.105 72.4631 193.9 72.5028 193.69 72.5369C193.48 72.571 193.278 72.6023 193.085 72.6307C192.693 72.6932 192.358 72.7898 192.079 72.9205C191.806 73.0511 191.596 73.2216 191.449 73.4318C191.306 73.6364 191.235 73.8807 191.235 74.1648C191.235 74.5966 191.389 74.9261 191.696 75.1534C192.008 75.3807 192.403 75.4943 192.88 75.4943ZM209.355 64.9091V67.9773H201.096V64.9091H209.355ZM202.826 61.7727H206.994V73.8835C206.994 74.1392 207.034 74.3466 207.113 74.5057C207.199 74.6591 207.321 74.7699 207.48 74.8381C207.639 74.9006 207.829 74.9318 208.051 74.9318C208.21 74.9318 208.377 74.9176 208.554 74.8892C208.735 74.8551 208.872 74.8267 208.963 74.804L209.593 77.8125C209.395 77.8693 209.113 77.9403 208.75 78.0256C208.392 78.1108 207.963 78.1648 207.463 78.1875C206.485 78.233 205.647 78.1193 204.949 77.8466C204.255 77.5682 203.724 77.1364 203.355 76.5511C202.991 75.9659 202.815 75.2301 202.826 74.3438V61.7727ZM211.481 78V64.9091H215.649V78H211.481ZM213.569 63.3835C212.984 63.3835 212.481 63.1903 212.061 62.804C211.64 62.4119 211.43 61.9403 211.43 61.3892C211.43 60.8437 211.64 60.3778 212.061 59.9915C212.481 59.5994 212.984 59.4034 213.569 59.4034C214.16 59.4034 214.663 59.5994 215.078 59.9915C215.498 60.3778 215.708 60.8437 215.708 61.3892C215.708 61.9403 215.498 62.4119 215.078 62.804C214.663 63.1903 214.16 63.3835 213.569 63.3835ZM224.412 78.2472C223.037 78.2472 221.855 77.9659 220.867 77.4034C219.884 76.8352 219.125 76.0455 218.591 75.0341C218.063 74.017 217.799 72.8381 217.799 71.4972C217.799 70.1506 218.063 68.9716 218.591 67.9602C219.125 66.9432 219.884 66.1534 220.867 65.5909C221.855 65.0227 223.037 64.7386 224.412 64.7386C225.787 64.7386 226.966 65.0227 227.949 65.5909C228.938 66.1534 229.696 66.9432 230.225 67.9602C230.759 68.9716 231.026 70.1506 231.026 71.4972C231.026 72.8381 230.759 74.017 230.225 75.0341C229.696 76.0455 228.938 76.8352 227.949 77.4034C226.966 77.9659 225.787 78.2472 224.412 78.2472ZM224.438 75.1023C224.938 75.1023 225.361 74.9489 225.708 74.642C226.054 74.3352 226.319 73.9091 226.5 73.3636C226.688 72.8182 226.782 72.1875 226.782 71.4716C226.782 70.7443 226.688 70.108 226.5 69.5625C226.319 69.017 226.054 68.5909 225.708 68.2841C225.361 67.9773 224.938 67.8239 224.438 67.8239C223.921 67.8239 223.483 67.9773 223.125 68.2841C222.773 68.5909 222.503 69.017 222.316 69.5625C222.134 70.108 222.043 70.7443 222.043 71.4716C222.043 72.1875 222.134 72.8182 222.316 73.3636C222.503 73.9091 222.773 74.3352 223.125 74.642C223.483 74.9489 223.921 75.1023 224.438 75.1023ZM237.328 70.5341V78H233.161V64.9091H237.124V67.3125H237.269C237.559 66.5114 238.053 65.8835 238.752 65.429C239.451 64.9688 240.283 64.7386 241.249 64.7386C242.169 64.7386 242.968 64.946 243.644 65.3608C244.326 65.7699 244.854 66.3437 245.229 67.0824C245.61 67.8153 245.797 68.6733 245.792 69.6562V78H241.624V70.4744C241.63 69.7472 241.445 69.179 241.07 68.7699C240.701 68.3608 240.186 68.1562 239.527 68.1562C239.09 68.1562 238.703 68.2528 238.368 68.446C238.039 68.6335 237.783 68.9034 237.601 69.2557C237.425 69.608 237.334 70.0341 237.328 70.5341ZM260.968 64.9091V67.9773H252.548V64.9091H260.968ZM254.304 78V64.2443C254.304 63.233 254.494 62.3949 254.875 61.7301C255.255 61.0597 255.784 60.5597 256.46 60.2301C257.136 59.8949 257.917 59.7273 258.804 59.7273C259.383 59.7273 259.929 59.7727 260.44 59.8636C260.957 59.9489 261.341 60.0256 261.591 60.0938L260.926 63.1449C260.772 63.0937 260.585 63.0511 260.363 63.017C260.147 62.983 259.943 62.9659 259.75 62.9659C259.261 62.9659 258.926 63.0739 258.744 63.2898C258.562 63.5057 258.471 63.8011 258.471 64.1761V78H254.304ZM268.662 78.2472C267.287 78.2472 266.105 77.9659 265.117 77.4034C264.134 76.8352 263.375 76.0455 262.841 75.0341C262.313 74.017 262.049 72.8381 262.049 71.4972C262.049 70.1506 262.313 68.9716 262.841 67.9602C263.375 66.9432 264.134 66.1534 265.117 65.5909C266.105 65.0227 267.287 64.7386 268.662 64.7386C270.037 64.7386 271.216 65.0227 272.199 65.5909C273.188 66.1534 273.946 66.9432 274.475 67.9602C275.009 68.9716 275.276 70.1506 275.276 71.4972C275.276 72.8381 275.009 74.017 274.475 75.0341C273.946 76.0455 273.188 76.8352 272.199 77.4034C271.216 77.9659 270.037 78.2472 268.662 78.2472ZM268.688 75.1023C269.188 75.1023 269.611 74.9489 269.958 74.642C270.304 74.3352 270.569 73.9091 270.75 73.3636C270.938 72.8182 271.032 72.1875 271.032 71.4716C271.032 70.7443 270.938 70.108 270.75 69.5625C270.569 69.017 270.304 68.5909 269.958 68.2841C269.611 67.9773 269.188 67.8239 268.688 67.8239C268.171 67.8239 267.733 67.9773 267.375 68.2841C267.023 68.5909 266.753 69.017 266.566 69.5625C266.384 70.108 266.293 70.7443 266.293 71.4716C266.293 72.1875 266.384 72.8182 266.566 73.3636C266.753 73.9091 267.023 74.3352 267.375 74.642C267.733 74.9489 268.171 75.1023 268.688 75.1023ZM277.411 78V64.9091H281.459V67.2955H281.596C281.834 66.4318 282.223 65.7898 282.763 65.3693C283.303 64.9432 283.931 64.7301 284.647 64.7301C284.84 64.7301 285.039 64.7443 285.243 64.7727C285.448 64.7955 285.638 64.8324 285.814 64.8835V68.5057C285.615 68.4375 285.354 68.3835 285.03 68.3438C284.712 68.304 284.428 68.2841 284.178 68.2841C283.684 68.2841 283.238 68.3949 282.84 68.6165C282.448 68.8324 282.138 69.1364 281.911 69.5284C281.689 69.9148 281.578 70.3693 281.578 70.892V78H277.411ZM295.115 78L291.706 64.9091H295.89L297.654 73.2955H297.765L299.657 64.9091H303.74L305.683 73.2358H305.794L307.507 64.9091H311.691L308.274 78H303.816L301.771 70.3722H301.626L299.581 78H295.115ZM317.054 78.2216C316.219 78.2216 315.478 78.0824 314.83 77.804C314.188 77.5199 313.679 77.0937 313.304 76.5256C312.935 75.9517 312.75 75.233 312.75 74.3693C312.75 73.642 312.878 73.0284 313.134 72.5284C313.39 72.0284 313.742 71.6222 314.191 71.3097C314.64 70.9972 315.157 70.7614 315.742 70.6023C316.327 70.4375 316.952 70.3267 317.617 70.2699C318.361 70.2017 318.961 70.1307 319.415 70.0568C319.87 69.9773 320.199 69.8665 320.404 69.7244C320.614 69.5767 320.719 69.3693 320.719 69.1023V69.0597C320.719 68.6222 320.569 68.2841 320.267 68.0455C319.966 67.8068 319.56 67.6875 319.049 67.6875C318.498 67.6875 318.054 67.8068 317.719 68.0455C317.384 68.2841 317.171 68.6136 317.08 69.0341L313.236 68.8977C313.35 68.1023 313.642 67.392 314.114 66.767C314.591 66.1364 315.245 65.642 316.074 65.2841C316.909 64.9205 317.912 64.7386 319.083 64.7386C319.918 64.7386 320.688 64.8381 321.392 65.0369C322.097 65.2301 322.711 65.5142 323.233 65.8892C323.756 66.2585 324.159 66.7131 324.444 67.2528C324.733 67.7926 324.878 68.4091 324.878 69.1023V78H320.958V76.1761H320.855C320.623 76.6193 320.324 76.9943 319.961 77.3011C319.603 77.608 319.179 77.8381 318.691 77.9915C318.208 78.1449 317.662 78.2216 317.054 78.2216ZM318.341 75.4943C318.79 75.4943 319.194 75.4034 319.551 75.2216C319.915 75.0398 320.205 74.7898 320.421 74.4716C320.637 74.1477 320.745 73.7727 320.745 73.3466V72.1023C320.625 72.1648 320.48 72.2216 320.31 72.2727C320.145 72.3239 319.963 72.3722 319.765 72.4176C319.566 72.4631 319.361 72.5028 319.151 72.5369C318.941 72.571 318.739 72.6023 318.546 72.6307C318.154 72.6932 317.819 72.7898 317.54 72.9205C317.267 73.0511 317.057 73.2216 316.909 73.4318C316.767 73.6364 316.696 73.8807 316.696 74.1648C316.696 74.5966 316.85 74.9261 317.157 75.1534C317.469 75.3807 317.864 75.4943 318.341 75.4943ZM327.426 78V64.9091H331.475V67.2955H331.611C331.85 66.4318 332.239 65.7898 332.779 65.3693C333.319 64.9432 333.946 64.7301 334.662 64.7301C334.855 64.7301 335.054 64.7443 335.259 64.7727C335.463 64.7955 335.654 64.8324 335.83 64.8835V68.5057C335.631 68.4375 335.37 68.3835 335.046 68.3438C334.728 68.304 334.444 68.2841 334.194 68.2841C333.699 68.2841 333.253 68.3949 332.855 68.6165C332.463 68.8324 332.154 69.1364 331.926 69.5284C331.705 69.9148 331.594 70.3693 331.594 70.892V78H327.426Z" fill="black"/>
</svg>
