<svg width="300" height="80" viewBox="0 0 300 80" fill="none" xmlns="http://www.w3.org/2000/svg">
<rect width="300" height="80" rx="40" fill="#F7DFC7"/>
<path d="M95.0455 26.7273L100.25 43.7727H100.443L105.648 26.7273H111.943L104.091 50H96.6023L88.75 26.7273H95.0455ZM114.449 50V26.7273H130.676V31.2955H120.074V36.0682H129.847V40.6477H120.074V45.4318H130.676V50H114.449ZM134.199 50V26.7273H143.812C145.555 26.7273 147.059 27.0417 148.324 27.6705C149.597 28.2917 150.578 29.1856 151.267 30.3523C151.956 31.5114 152.301 32.8864 152.301 34.4773C152.301 36.0909 151.949 37.4621 151.244 38.5909C150.54 39.7121 149.54 40.5682 148.244 41.1591C146.949 41.7424 145.415 42.0341 143.642 42.0341H137.562V37.6023H142.597C143.445 37.6023 144.153 37.4924 144.722 37.2727C145.297 37.0455 145.733 36.7045 146.028 36.25C146.324 35.7879 146.472 35.197 146.472 34.4773C146.472 33.7576 146.324 33.1629 146.028 32.6932C145.733 32.2159 145.297 31.8598 144.722 31.625C144.146 31.3826 143.438 31.2614 142.597 31.2614H139.824V50H134.199ZM147.301 39.3636L153.097 50H146.96L141.278 39.3636H147.301ZM161.011 26.7273V50H155.386V26.7273H161.011ZM164.543 50V26.7273H180.429V31.2955H170.168V36.0682H179.418V40.6477H170.168V50H164.543ZM182.102 26.7273H188.386L193.307 36.4659H193.511L198.432 26.7273H204.716L196.205 42.2273V50H190.614V42.2273L182.102 26.7273Z" fill="black"/>
</svg>
