<svg width="450" height="700" viewBox="0 0 450 700" fill="none" xmlns="http://www.w3.org/2000/svg">
<rect width="450" height="700" rx="20" fill="#BFE3FF"/>
<path d="M159.094 450.5C154.057 450.5 149.869 446.394 150.558 441.398C154.819 410.432 180.493 386.625 211.531 386.625C234.33 386.625 254.236 399.468 264.885 418.562H314.187C315.398 418.562 316.558 419.043 317.414 419.899C318.269 420.754 318.75 421.915 318.75 423.125C318.75 424.335 318.269 425.496 317.414 426.351C316.558 427.207 315.398 427.688 314.187 427.688H269.083C270.689 432.049 271.852 436.639 272.504 441.398C273.189 446.394 269.005 450.5 263.963 450.5H159.094Z" fill="black"/>
<path fill-rule="evenodd" clip-rule="evenodd" d="M137.007 477.642C133.868 468.777 140.872 459.625 150.791 459.625H304.209C314.128 459.625 321.132 468.777 317.993 477.642L311.619 495.655C307.663 506.833 296.558 514.375 284.048 514.375H170.952C158.442 514.375 147.337 506.833 143.381 495.655L137.007 477.647V477.642ZM191 487C191 490.025 189.798 492.926 187.659 495.065C185.52 497.205 182.619 498.406 179.594 498.406C176.569 498.406 173.667 497.205 171.528 495.065C169.389 492.926 168.188 490.025 168.188 487C168.188 483.975 169.389 481.074 171.528 478.935C173.667 476.795 176.569 475.594 179.594 475.594C182.619 475.594 185.52 476.795 187.659 478.935C189.798 481.074 191 483.975 191 487ZM227.5 498.406C230.525 498.406 233.426 497.205 235.565 495.065C237.705 492.926 238.906 490.025 238.906 487C238.906 483.975 237.705 481.074 235.565 478.935C233.426 476.795 230.525 475.594 227.5 475.594C224.475 475.594 221.574 476.795 219.435 478.935C217.295 481.074 216.094 483.975 216.094 487C216.094 490.025 217.295 492.926 219.435 495.065C221.574 497.205 224.475 498.406 227.5 498.406V498.406ZM286.813 487C286.813 490.025 285.611 492.926 283.472 495.065C281.333 497.205 278.431 498.406 275.406 498.406C272.381 498.406 269.48 497.205 267.341 495.065C265.202 492.926 264 490.025 264 487C264 483.975 265.202 481.074 267.341 478.935C269.48 476.795 272.381 475.594 275.406 475.594C278.431 475.594 281.333 476.795 283.472 478.935C285.611 481.074 286.813 483.975 286.813 487Z" fill="black"/>
<rect x="75" y="28" width="300" height="100" rx="40" fill="#F7DFC7"/>
<path d="M145.122 53.7045C145.046 52.8712 144.709 52.2235 144.111 51.7614C143.52 51.2917 142.675 51.0568 141.577 51.0568C140.849 51.0568 140.243 51.1515 139.759 51.3409C139.274 51.5303 138.91 51.7917 138.668 52.125C138.425 52.4508 138.3 52.8258 138.293 53.25C138.277 53.5985 138.346 53.9053 138.497 54.1705C138.656 54.4356 138.884 54.6705 139.179 54.875C139.482 55.072 139.846 55.2462 140.27 55.3977C140.694 55.5492 141.171 55.6818 141.702 55.7955L143.702 56.25C144.853 56.5 145.868 56.8333 146.747 57.25C147.634 57.6667 148.376 58.1629 148.974 58.7386C149.58 59.3144 150.039 59.9773 150.349 60.7273C150.66 61.4773 150.819 62.3182 150.827 63.25C150.819 64.7197 150.448 65.9811 149.713 67.0341C148.978 68.0871 147.921 68.8939 146.543 69.4545C145.171 70.0152 143.516 70.2955 141.577 70.2955C139.63 70.2955 137.933 70.0038 136.486 69.4205C135.039 68.8371 133.914 67.9508 133.111 66.7614C132.308 65.572 131.895 64.0682 131.872 62.25H137.259C137.304 63 137.505 63.625 137.861 64.125C138.217 64.625 138.705 65.0038 139.327 65.2614C139.955 65.5189 140.683 65.6477 141.509 65.6477C142.266 65.6477 142.91 65.5455 143.44 65.3409C143.978 65.1364 144.391 64.8523 144.679 64.4886C144.967 64.125 145.115 63.7083 145.122 63.2386C145.115 62.7992 144.978 62.4242 144.713 62.1136C144.448 61.7955 144.039 61.5227 143.486 61.2955C142.94 61.0606 142.243 60.8447 141.395 60.6477L138.963 60.0795C136.948 59.6174 135.361 58.8712 134.202 57.8409C133.043 56.803 132.467 55.4015 132.474 53.6364C132.467 52.197 132.853 50.9356 133.634 49.8523C134.414 48.7689 135.493 47.9242 136.872 47.3182C138.251 46.7121 139.823 46.4091 141.588 46.4091C143.391 46.4091 144.955 46.7159 146.281 47.3295C147.615 47.9356 148.649 48.7879 149.384 49.8864C150.118 50.9848 150.493 52.2576 150.509 53.7045H145.122ZM164.929 62.4659V52.5455H170.474V70H165.179V66.75H164.997C164.611 67.8182 163.952 68.6667 163.02 69.2955C162.096 69.9167 160.978 70.2273 159.668 70.2273C158.478 70.2273 157.433 69.9545 156.531 69.4091C155.63 68.8636 154.929 68.1023 154.429 67.125C153.929 66.1402 153.675 64.9886 153.668 63.6705V52.5455H159.224V62.5795C159.232 63.5265 159.482 64.2727 159.974 64.8182C160.467 65.3636 161.137 65.6364 161.986 65.6364C162.539 65.6364 163.035 65.5152 163.474 65.2727C163.921 65.0227 164.274 64.6629 164.531 64.1932C164.796 63.7159 164.929 63.1402 164.929 62.4659ZM174.011 70V52.5455H179.568V70H174.011ZM176.795 50.5114C176.015 50.5114 175.345 50.2538 174.784 49.7386C174.223 49.2159 173.943 48.5871 173.943 47.8523C173.943 47.125 174.223 46.5038 174.784 45.9886C175.345 45.4659 176.015 45.2045 176.795 45.2045C177.583 45.2045 178.254 45.4659 178.807 45.9886C179.367 46.5038 179.648 47.125 179.648 47.8523C179.648 48.5871 179.367 49.2159 178.807 49.7386C178.254 50.2538 177.583 50.5114 176.795 50.5114ZM192.957 52.5455V56.6364H181.946V52.5455H192.957ZM184.253 48.3636H189.81V64.5114C189.81 64.8523 189.863 65.1288 189.969 65.3409C190.082 65.5455 190.245 65.6932 190.457 65.7841C190.67 65.8674 190.923 65.9091 191.219 65.9091C191.431 65.9091 191.654 65.8902 191.889 65.8523C192.132 65.8068 192.313 65.7689 192.435 65.7386L193.276 69.75C193.01 69.8258 192.635 69.9205 192.151 70.0341C191.673 70.1477 191.101 70.2197 190.435 70.25C189.132 70.3106 188.014 70.1591 187.082 69.7955C186.158 69.4242 185.45 68.8485 184.957 68.0682C184.473 67.2879 184.238 66.3068 184.253 65.125V48.3636ZM200.713 70.2955C199.599 70.2955 198.611 70.1098 197.747 69.7386C196.891 69.3598 196.213 68.7917 195.713 68.0341C195.221 67.2689 194.974 66.3106 194.974 65.1591C194.974 64.1894 195.145 63.3712 195.486 62.7045C195.827 62.0379 196.296 61.4962 196.895 61.0795C197.493 60.6629 198.183 60.3485 198.963 60.1364C199.743 59.9167 200.577 59.7689 201.463 59.6932C202.455 59.6023 203.255 59.5076 203.861 59.4091C204.467 59.303 204.906 59.1553 205.179 58.9659C205.459 58.7689 205.599 58.4924 205.599 58.1364V58.0795C205.599 57.4962 205.399 57.0455 204.997 56.7273C204.596 56.4091 204.054 56.25 203.372 56.25C202.637 56.25 202.046 56.4091 201.599 56.7273C201.152 57.0455 200.868 57.4848 200.747 58.0455L195.622 57.8636C195.774 56.803 196.164 55.8561 196.793 55.0227C197.429 54.1818 198.3 53.5227 199.406 53.0455C200.52 52.5606 201.857 52.3182 203.418 52.3182C204.531 52.3182 205.558 52.4508 206.497 52.7159C207.437 52.9735 208.255 53.3523 208.952 53.8523C209.649 54.3447 210.187 54.9508 210.565 55.6705C210.952 56.3902 211.145 57.2121 211.145 58.1364V70H205.918V67.5682H205.781C205.471 68.1591 205.073 68.6591 204.588 69.0682C204.111 69.4773 203.546 69.7841 202.895 69.9886C202.251 70.1932 201.524 70.2955 200.713 70.2955ZM202.429 66.6591C203.027 66.6591 203.565 66.5379 204.043 66.2955C204.527 66.053 204.914 65.7197 205.202 65.2955C205.49 64.8636 205.634 64.3636 205.634 63.7955V62.1364C205.474 62.2197 205.281 62.2955 205.054 62.3636C204.834 62.4318 204.592 62.4962 204.327 62.5568C204.062 62.6174 203.789 62.6705 203.509 62.7159C203.228 62.7614 202.959 62.803 202.702 62.8409C202.179 62.9242 201.732 63.053 201.361 63.2273C200.997 63.4015 200.717 63.6288 200.52 63.9091C200.33 64.1818 200.236 64.5076 200.236 64.8864C200.236 65.4621 200.44 65.9015 200.849 66.2045C201.266 66.5076 201.793 66.6591 202.429 66.6591ZM214.543 70V46.7273H220.099V55.5341H220.213C220.44 55.0038 220.762 54.4924 221.179 54C221.603 53.5076 222.141 53.1061 222.793 52.7955C223.452 52.4773 224.24 52.3182 225.156 52.3182C226.368 52.3182 227.501 52.6364 228.554 53.2727C229.615 53.9091 230.471 54.8902 231.122 56.2159C231.774 57.5417 232.099 59.2311 232.099 61.2841C232.099 63.2614 231.785 64.9167 231.156 66.25C230.535 67.5833 229.694 68.5833 228.634 69.25C227.58 69.9167 226.41 70.25 225.122 70.25C224.243 70.25 223.482 70.1061 222.838 69.8182C222.194 69.5303 221.652 69.1515 221.213 68.6818C220.781 68.2121 220.448 67.7083 220.213 67.1705H220.043V70H214.543ZM219.986 61.2727C219.986 62.2121 220.111 63.0303 220.361 63.7273C220.618 64.4242 220.986 64.9659 221.463 65.3523C221.948 65.7311 222.527 65.9205 223.202 65.9205C223.884 65.9205 224.463 65.7311 224.94 65.3523C225.418 64.9659 225.777 64.4242 226.02 63.7273C226.27 63.0303 226.395 62.2121 226.395 61.2727C226.395 60.3333 226.27 59.5189 226.02 58.8295C225.777 58.1402 225.418 57.6061 224.94 57.2273C224.471 56.8485 223.891 56.6591 223.202 56.6591C222.52 56.6591 221.94 56.8447 221.463 57.2159C220.986 57.5871 220.618 58.1174 220.361 58.8068C220.111 59.4962 219.986 60.3182 219.986 61.2727ZM240.568 46.7273V70H235.011V46.7273H240.568ZM252.264 70.3295C250.438 70.3295 248.863 69.9697 247.537 69.25C246.219 68.5227 245.204 67.4886 244.491 66.1477C243.787 64.7992 243.435 63.197 243.435 61.3409C243.435 59.5379 243.791 57.9621 244.503 56.6136C245.215 55.2576 246.219 54.2045 247.514 53.4545C248.81 52.697 250.336 52.3182 252.094 52.3182C253.336 52.3182 254.473 52.5114 255.503 52.8977C256.533 53.2841 257.423 53.8561 258.173 54.6136C258.923 55.3712 259.507 56.3068 259.923 57.4205C260.34 58.5265 260.548 59.7955 260.548 61.2273V62.6136H245.378V59.3864H255.378C255.37 58.7955 255.23 58.2689 254.957 57.8068C254.685 57.3447 254.31 56.9848 253.832 56.7273C253.363 56.4621 252.821 56.3295 252.207 56.3295C251.586 56.3295 251.029 56.4697 250.537 56.75C250.045 57.0227 249.654 57.3977 249.366 57.875C249.079 58.3447 248.927 58.8788 248.912 59.4773V62.7614C248.912 63.4735 249.052 64.0985 249.332 64.6364C249.613 65.1667 250.01 65.5795 250.526 65.875C251.041 66.1705 251.654 66.3182 252.366 66.3182C252.859 66.3182 253.306 66.25 253.707 66.1136C254.109 65.9773 254.454 65.7765 254.741 65.5114C255.029 65.2462 255.245 64.9205 255.389 64.5341L260.491 64.6818C260.279 65.8258 259.813 66.822 259.094 67.6705C258.382 68.5114 257.446 69.1667 256.287 69.6364C255.128 70.0985 253.787 70.3295 252.264 70.3295ZM270.261 70V46.7273H286.148V51.2955H275.886V56.0682H285.136V60.6477H275.886V70H270.261ZM295.847 70.3295C294.013 70.3295 292.438 69.9545 291.119 69.2045C289.809 68.447 288.797 67.3939 288.085 66.0455C287.381 64.6894 287.028 63.1174 287.028 61.3295C287.028 59.5341 287.381 57.9621 288.085 56.6136C288.797 55.2576 289.809 54.2045 291.119 53.4545C292.438 52.697 294.013 52.3182 295.847 52.3182C297.68 52.3182 299.252 52.697 300.562 53.4545C301.881 54.2045 302.892 55.2576 303.597 56.6136C304.309 57.9621 304.665 59.5341 304.665 61.3295C304.665 63.1174 304.309 64.6894 303.597 66.0455C302.892 67.3939 301.881 68.447 300.562 69.2045C299.252 69.9545 297.68 70.3295 295.847 70.3295ZM295.881 66.1364C296.547 66.1364 297.112 65.9318 297.574 65.5227C298.036 65.1136 298.388 64.5455 298.631 63.8182C298.881 63.0909 299.006 62.25 299.006 61.2955C299.006 60.3258 298.881 59.4773 298.631 58.75C298.388 58.0227 298.036 57.4545 297.574 57.0455C297.112 56.6364 296.547 56.4318 295.881 56.4318C295.191 56.4318 294.608 56.6364 294.131 57.0455C293.661 57.4545 293.301 58.0227 293.051 58.75C292.809 59.4773 292.688 60.3258 292.688 61.2955C292.688 62.25 292.809 63.0909 293.051 63.8182C293.301 64.5455 293.661 65.1136 294.131 65.5227C294.608 65.9318 295.191 66.1364 295.881 66.1364ZM307.511 70V52.5455H312.909V55.7273H313.091C313.409 54.5758 313.928 53.7197 314.648 53.1591C315.367 52.5909 316.205 52.3068 317.159 52.3068C317.417 52.3068 317.682 52.3258 317.955 52.3636C318.227 52.3939 318.481 52.4432 318.716 52.5114V57.3409C318.451 57.25 318.102 57.178 317.67 57.125C317.246 57.072 316.867 57.0455 316.534 57.0455C315.875 57.0455 315.28 57.1932 314.75 57.4886C314.227 57.7765 313.814 58.1818 313.511 58.7045C313.216 59.2197 313.068 59.8258 313.068 60.5227V70H307.511ZM125.544 109L118.771 85.7273H124.987L128.499 100.977H128.692L132.703 85.7273H137.771L141.783 101.011H141.976L145.499 85.7273H151.703L144.942 109H139.521L135.328 94.8864H135.146L130.953 109H125.544ZM157.01 109.295C155.896 109.295 154.908 109.11 154.044 108.739C153.188 108.36 152.51 107.792 152.01 107.034C151.518 106.269 151.271 105.311 151.271 104.159C151.271 103.189 151.442 102.371 151.783 101.705C152.124 101.038 152.593 100.496 153.192 100.08C153.79 99.6629 154.48 99.3485 155.26 99.1364C156.04 98.9167 156.874 98.7689 157.76 98.6932C158.752 98.6023 159.552 98.5076 160.158 98.4091C160.764 98.303 161.203 98.1553 161.476 97.9659C161.756 97.7689 161.896 97.4924 161.896 97.1364V97.0795C161.896 96.4962 161.696 96.0455 161.294 95.7273C160.893 95.4091 160.351 95.25 159.669 95.25C158.934 95.25 158.343 95.4091 157.896 95.7273C157.449 96.0455 157.165 96.4848 157.044 97.0455L151.919 96.8636C152.071 95.803 152.461 94.8561 153.089 94.0227C153.726 93.1818 154.597 92.5227 155.703 92.0455C156.817 91.5606 158.154 91.3182 159.714 91.3182C160.828 91.3182 161.855 91.4508 162.794 91.7159C163.733 91.9735 164.552 92.3523 165.249 92.8523C165.946 93.3447 166.483 93.9508 166.862 94.6705C167.249 95.3902 167.442 96.2121 167.442 97.1364V109H162.214V106.568H162.078C161.768 107.159 161.37 107.659 160.885 108.068C160.408 108.477 159.843 108.784 159.192 108.989C158.548 109.193 157.821 109.295 157.01 109.295ZM158.726 105.659C159.324 105.659 159.862 105.538 160.339 105.295C160.824 105.053 161.211 104.72 161.499 104.295C161.786 103.864 161.93 103.364 161.93 102.795V101.136C161.771 101.22 161.578 101.295 161.351 101.364C161.131 101.432 160.889 101.496 160.624 101.557C160.358 101.617 160.086 101.67 159.805 101.716C159.525 101.761 159.256 101.803 158.999 101.841C158.476 101.924 158.029 102.053 157.658 102.227C157.294 102.402 157.014 102.629 156.817 102.909C156.627 103.182 156.533 103.508 156.533 103.886C156.533 104.462 156.737 104.902 157.146 105.205C157.563 105.508 158.089 105.659 158.726 105.659ZM170.839 109V91.5455H176.237V94.7273H176.419C176.737 93.5758 177.256 92.7197 177.976 92.1591C178.696 91.5909 179.533 91.3068 180.487 91.3068C180.745 91.3068 181.01 91.3258 181.283 91.3636C181.555 91.3939 181.809 91.4432 182.044 91.5114V96.3409C181.779 96.25 181.43 96.178 180.999 96.125C180.574 96.072 180.196 96.0455 179.862 96.0455C179.203 96.0455 178.608 96.1932 178.078 96.4886C177.555 96.7765 177.143 97.1818 176.839 97.7045C176.544 98.2197 176.396 98.8258 176.396 99.5227V109H170.839ZM187.979 105.818L187.876 107.08C187.786 108.125 187.6 109.144 187.32 110.136C187.047 111.136 186.755 112.034 186.445 112.83C186.134 113.625 185.888 114.242 185.706 114.682H182.206C182.327 114.242 182.49 113.625 182.695 112.83C182.907 112.034 183.104 111.136 183.286 110.136C183.467 109.136 183.57 108.121 183.592 107.091L183.615 105.818H187.979ZM197.652 109V85.7273H203.277V104.432H212.959V109H197.652ZM224.03 109.33C222.204 109.33 220.628 108.97 219.303 108.25C217.984 107.523 216.969 106.489 216.257 105.148C215.553 103.799 215.2 102.197 215.2 100.341C215.2 98.5379 215.556 96.9621 216.268 95.6136C216.981 94.2576 217.984 93.2045 219.28 92.4545C220.575 91.697 222.102 91.3182 223.859 91.3182C225.102 91.3182 226.238 91.5114 227.268 91.8977C228.299 92.2841 229.189 92.8561 229.939 93.6136C230.689 94.3712 231.272 95.3068 231.689 96.4205C232.106 97.5265 232.314 98.7955 232.314 100.227V101.614H217.143V98.3864H227.143C227.136 97.7955 226.996 97.2689 226.723 96.8068C226.45 96.3447 226.075 95.9848 225.598 95.7273C225.128 95.4621 224.587 95.3295 223.973 95.3295C223.352 95.3295 222.795 95.4697 222.303 95.75C221.81 96.0227 221.42 96.3977 221.132 96.875C220.844 97.3447 220.693 97.8788 220.678 98.4773V101.761C220.678 102.473 220.818 103.098 221.098 103.636C221.378 104.167 221.776 104.58 222.291 104.875C222.806 105.17 223.42 105.318 224.132 105.318C224.625 105.318 225.071 105.25 225.473 105.114C225.875 104.977 226.219 104.777 226.507 104.511C226.795 104.246 227.011 103.92 227.155 103.534L232.257 103.682C232.045 104.826 231.579 105.822 230.859 106.67C230.147 107.511 229.212 108.167 228.053 108.636C226.893 109.098 225.553 109.33 224.03 109.33ZM245.004 91.5455V95.6364H233.993V91.5455H245.004ZM236.3 87.3636H241.857V103.511C241.857 103.852 241.91 104.129 242.016 104.341C242.129 104.545 242.292 104.693 242.504 104.784C242.716 104.867 242.97 104.909 243.266 104.909C243.478 104.909 243.701 104.89 243.936 104.852C244.179 104.807 244.36 104.769 244.482 104.739L245.322 108.75C245.057 108.826 244.682 108.92 244.197 109.034C243.72 109.148 243.148 109.22 242.482 109.25C241.179 109.311 240.061 109.159 239.129 108.795C238.205 108.424 237.497 107.848 237.004 107.068C236.519 106.288 236.285 105.307 236.3 104.125V87.3636ZM262.859 96.875L257.757 97.0114C257.704 96.6477 257.56 96.3258 257.325 96.0455C257.09 95.7576 256.784 95.5341 256.405 95.375C256.034 95.2083 255.602 95.125 255.109 95.125C254.465 95.125 253.916 95.2538 253.462 95.5114C253.015 95.7689 252.795 96.1174 252.803 96.5568C252.795 96.8977 252.931 97.1932 253.212 97.4432C253.5 97.6932 254.011 97.8939 254.746 98.0455L258.109 98.6818C259.852 99.0152 261.147 99.5682 261.996 100.341C262.852 101.114 263.284 102.136 263.291 103.409C263.284 104.606 262.928 105.648 262.223 106.534C261.526 107.42 260.571 108.11 259.359 108.602C258.147 109.087 256.761 109.33 255.2 109.33C252.708 109.33 250.742 108.818 249.303 107.795C247.871 106.765 247.053 105.386 246.848 103.659L252.337 103.523C252.458 104.159 252.772 104.644 253.28 104.977C253.787 105.311 254.435 105.477 255.223 105.477C255.935 105.477 256.515 105.345 256.962 105.08C257.409 104.814 257.636 104.462 257.643 104.023C257.636 103.629 257.462 103.314 257.121 103.08C256.78 102.837 256.246 102.648 255.518 102.511L252.473 101.932C250.723 101.614 249.42 101.027 248.564 100.17C247.708 99.3068 247.284 98.2083 247.291 96.875C247.284 95.7083 247.594 94.7121 248.223 93.8864C248.852 93.053 249.746 92.4167 250.905 91.9773C252.064 91.5379 253.431 91.3182 255.007 91.3182C257.371 91.3182 259.234 91.8144 260.598 92.8068C261.962 93.7917 262.715 95.1477 262.859 96.875ZM288.175 93.3295C288.046 92.8523 287.857 92.4318 287.607 92.0682C287.357 91.697 287.05 91.3826 286.686 91.125C286.322 90.8674 285.906 90.6742 285.436 90.5455C284.966 90.4091 284.451 90.3409 283.891 90.3409C282.762 90.3409 281.785 90.6136 280.959 91.1591C280.141 91.7045 279.508 92.5 279.061 93.5455C278.614 94.5833 278.391 95.8447 278.391 97.3295C278.391 98.822 278.607 100.095 279.038 101.148C279.47 102.201 280.095 103.004 280.913 103.557C281.732 104.11 282.724 104.386 283.891 104.386C284.921 104.386 285.792 104.22 286.504 103.886C287.224 103.545 287.769 103.064 288.141 102.443C288.512 101.822 288.697 101.091 288.697 100.25L289.743 100.375H284.084V96.2727H294.118V99.3523C294.118 101.436 293.675 103.22 292.788 104.705C291.91 106.189 290.697 107.33 289.152 108.125C287.614 108.92 285.845 109.318 283.845 109.318C281.625 109.318 279.675 108.837 277.993 107.875C276.311 106.913 275 105.542 274.061 103.761C273.122 101.973 272.652 99.8523 272.652 97.3977C272.652 95.4886 272.936 93.7955 273.504 92.3182C274.072 90.8333 274.864 89.5758 275.879 88.5455C276.902 87.5152 278.084 86.7348 279.425 86.2045C280.773 85.6742 282.224 85.4091 283.777 85.4091C285.125 85.4091 286.379 85.6023 287.538 85.9886C288.705 86.375 289.735 86.9205 290.629 87.625C291.531 88.3295 292.262 89.1667 292.822 90.1364C293.383 91.1061 293.732 92.1705 293.868 93.3295H288.175ZM319.399 97.3636C319.399 99.9242 318.907 102.095 317.922 103.875C316.937 105.655 315.604 107.008 313.922 107.932C312.248 108.856 310.369 109.318 308.286 109.318C306.195 109.318 304.312 108.852 302.638 107.92C300.964 106.989 299.634 105.636 298.649 103.864C297.672 102.083 297.183 99.9167 297.183 97.3636C297.183 94.803 297.672 92.6326 298.649 90.8523C299.634 89.072 300.964 87.7197 302.638 86.7955C304.312 85.8712 306.195 85.4091 308.286 85.4091C310.369 85.4091 312.248 85.8712 313.922 86.7955C315.604 87.7197 316.937 89.072 317.922 90.8523C318.907 92.6326 319.399 94.803 319.399 97.3636ZM313.649 97.3636C313.649 95.8485 313.433 94.5682 313.001 93.5227C312.577 92.4773 311.964 91.6856 311.161 91.1477C310.365 90.6098 309.407 90.3409 308.286 90.3409C307.172 90.3409 306.214 90.6098 305.411 91.1477C304.607 91.6856 303.99 92.4773 303.558 93.5227C303.134 94.5682 302.922 95.8485 302.922 97.3636C302.922 98.8788 303.134 100.159 303.558 101.205C303.99 102.25 304.607 103.042 305.411 103.58C306.214 104.117 307.172 104.386 308.286 104.386C309.407 104.386 310.365 104.117 311.161 103.58C311.964 103.042 312.577 102.25 313.001 101.205C313.433 100.159 313.649 98.8788 313.649 97.3636ZM329.217 85.7273L328.695 101.875H324.024L323.501 85.7273H329.217ZM326.354 109.33C325.543 109.33 324.846 109.042 324.263 108.466C323.687 107.89 323.399 107.193 323.399 106.375C323.399 105.572 323.687 104.886 324.263 104.318C324.846 103.742 325.543 103.455 326.354 103.455C327.134 103.455 327.82 103.742 328.411 104.318C329.009 104.886 329.308 105.572 329.308 106.375C329.308 106.92 329.168 107.417 328.888 107.864C328.615 108.311 328.255 108.667 327.808 108.932C327.369 109.197 326.884 109.33 326.354 109.33Z" fill="black"/>
<rect x="125" y="301" width="200" height="40" rx="20" fill="#F7DFC7"/>
</svg>
