<svg width="360" height="86" viewBox="0 0 360 86" fill="none" xmlns="http://www.w3.org/2000/svg">
<rect x="3" y="3" width="354" height="80" rx="40" fill="#CD1414" fill-opacity="0.2" stroke="#FF0000" stroke-width="6"/>
<path d="M96.8114 36.2782L77.2824 24.6101C75.7571 23.7006 73.9523 23.1529 72.068 23.0276C70.1838 22.9024 68.2938 23.2045 66.6075 23.9006C64.9213 24.5966 63.5047 25.6593 62.5149 26.9708C61.5252 28.2824 61.0008 29.7915 61 31.3309V54.6671C61.0003 56.2072 61.5247 57.7171 62.515 59.0292C63.5052 60.3414 64.9226 61.4044 66.6098 62.1004C68.297 62.7964 70.1881 63.0981 72.0731 62.972C73.9581 62.846 75.7634 62.2971 77.2885 61.3863L96.8175 49.7182C98.1139 48.9441 99.1681 47.9322 99.8947 46.7646C100.621 45.5969 101 44.3063 101 42.9973C101 41.6883 100.621 40.3977 99.8947 39.2301C99.1681 38.0625 98.1139 37.0506 96.8175 36.2765L96.8114 36.2782ZM94.3877 47.0295L74.8586 58.6976C73.9436 59.2421 72.8615 59.5697 71.7319 59.6443C70.6023 59.719 69.4694 59.5376 68.4586 59.1204C67.4478 58.7031 66.5985 58.0663 66.0047 57.2803C65.4109 56.4944 65.0957 55.5899 65.0941 54.6671V31.3309C65.0828 30.4064 65.392 29.498 65.9862 28.7101C66.5804 27.9222 67.4356 27.2869 68.4534 26.877C69.3191 26.5184 70.2764 26.3311 71.2476 26.3303C72.5493 26.3343 73.8151 26.6785 74.8586 27.3121L94.3877 38.9802C95.1645 39.4447 95.7962 40.0516 96.2316 40.7518C96.6669 41.452 96.8938 42.2258 96.8938 43.0107C96.8938 43.7955 96.6669 44.5693 96.2316 45.2695C95.7962 45.9697 95.1645 46.5766 94.3877 47.0412V47.0295Z" fill="#FF7C03"/>
<path d="M107.872 31.088V29.36H122.752H137.68V29.552C137.712 29.68 137.968 31.744 138.448 35.744C138.864 39.648 139.104 41.712 139.168 41.936V42.128H137.44H135.712L135.616 41.312C135.328 39.232 134.944 37.648 134.464 36.56C133.472 34.544 131.632 33.344 128.944 32.96C128.08 32.864 126.464 32.816 124.096 32.816H121.072V38.048V43.328H121.936C123.408 43.328 124.48 43.152 125.152 42.8C125.696 42.576 126.096 42.224 126.352 41.744C126.8 41.008 127.024 39.872 127.024 38.336V37.712H128.752H130.48V45.056V52.4H128.752H127.024V51.776C127.024 50.24 126.8 49.104 126.352 48.368C126.096 47.888 125.696 47.536 125.152 47.312C124.48 46.96 123.408 46.784 121.936 46.784H121.072V52.64V58.544H124.192C126.464 58.544 127.744 58.528 128.032 58.496C131.296 58.272 133.6 57.216 134.944 55.328C135.104 55.136 135.312 54.768 135.568 54.224C136.144 53.104 136.64 51.344 137.056 48.944C137.12 48.304 137.184 47.92 137.248 47.792V47.648H138.976H140.704V47.792C140.672 47.856 140.304 50.192 139.6 54.8C138.896 59.44 138.528 61.792 138.496 61.856V62H123.184H107.872V60.272V58.544H110.464H113.056V45.68V32.816H110.464H107.872V31.088ZM144.153 30.8V29.072H150.777H157.449L157.641 29.168C157.737 29.2 160.569 32.64 166.137 39.488C171.801 46.464 174.585 49.904 174.489 49.808L174.633 49.952V41.264V32.528H172.041H169.449V30.8V29.072H169.929L173.433 29.168C175.481 29.2 177.529 29.2 179.577 29.168C181.881 29.104 183.049 29.072 183.081 29.072H183.561V30.8V32.528H180.969H178.377V46.928C178.377 56.496 178.345 61.344 178.281 61.472C178.217 61.664 178.089 61.808 177.897 61.904C177.769 61.968 177.305 62 176.505 62C175.705 62 175.241 61.968 175.113 61.904C175.049 61.872 171.385 57.408 164.121 48.512C156.793 39.392 153.161 34.896 153.225 35.024L153.081 34.88V46.688V58.544H155.673H158.265V60.272V62H157.785C157.817 62 156.649 61.968 154.281 61.904C152.233 61.872 150.185 61.872 148.137 61.904C145.769 61.968 144.601 62 144.633 62H144.153V60.272V58.544H146.745H149.337V45.536V32.528H146.745H144.153V30.8ZM188.476 29.888V29.6H204.652H220.876V29.888L221.404 35.984C221.692 39.984 221.852 42.016 221.884 42.08V42.368H220.156C219.004 42.368 218.428 42.352 218.428 42.32C218.428 41.68 218.348 40.848 218.188 39.824C217.996 38.384 217.724 37.2 217.372 36.272C216.892 35.152 216.076 34.32 214.924 33.776C214.444 33.52 213.804 33.328 213.004 33.2C212.716 33.136 211.9 33.088 210.556 33.056H208.684V45.776V58.544H212.38H216.028V60.272V62H215.26L209.596 61.904C206.3 61.872 203.02 61.872 199.756 61.904L194.092 62H193.324V60.272V58.544H197.02H200.668V45.776V33.056H198.796C197.452 33.088 196.636 33.136 196.348 33.2C194.844 33.488 193.692 34.048 192.892 34.88C192.38 35.392 191.964 36.16 191.644 37.184C191.388 38.112 191.18 39.536 191.02 41.456C190.956 42 190.924 42.288 190.924 42.32C190.924 42.352 190.348 42.368 189.196 42.368H187.468V42.08L187.996 35.984C188.284 31.984 188.444 29.952 188.476 29.888ZM225.763 31.088V29.36H240.643H255.571V29.552C255.603 29.68 255.859 31.744 256.339 35.744C256.755 39.648 256.995 41.712 257.059 41.936V42.128H255.331H253.603L253.507 41.312C253.219 39.232 252.835 37.648 252.355 36.56C251.363 34.544 249.523 33.344 246.835 32.96C245.971 32.864 244.355 32.816 241.987 32.816H238.963V38.048V43.328H239.827C241.299 43.328 242.371 43.152 243.043 42.8C243.587 42.576 243.987 42.224 244.243 41.744C244.691 41.008 244.915 39.872 244.915 38.336V37.712H246.643H248.371V45.056V52.4H246.643H244.915V51.776C244.915 50.24 244.691 49.104 244.243 48.368C243.987 47.888 243.587 47.536 243.043 47.312C242.371 46.96 241.299 46.784 239.827 46.784H238.963V52.64V58.544H242.083C244.355 58.544 245.635 58.528 245.923 58.496C249.187 58.272 251.491 57.216 252.835 55.328C252.995 55.136 253.203 54.768 253.459 54.224C254.035 53.104 254.531 51.344 254.947 48.944C255.011 48.304 255.075 47.92 255.139 47.792V47.648H256.867H258.595V47.792C258.563 47.856 258.195 50.192 257.491 54.8C256.787 59.44 256.419 61.792 256.387 61.856V62H241.075H225.763V60.272V58.544H228.355H230.947V45.68V32.816H228.355H225.763V31.088ZM262.044 30.8V29.072H271.98C278.7 29.104 282.62 29.184 283.74 29.312C287.004 29.76 289.628 30.768 291.612 32.336C293.116 33.616 294.076 35.184 294.492 37.04C294.62 37.744 294.62 38.56 294.492 39.488C294.236 40.48 293.836 41.36 293.292 42.128C292.588 43.12 291.692 43.936 290.604 44.576C290.028 44.896 289.26 45.264 288.3 45.68L287.82 45.872L288.204 46.064C289.292 46.768 290.108 47.52 290.652 48.32C291.1 48.896 291.404 49.456 291.564 50C291.788 50.48 292.012 51.68 292.236 53.6C292.492 55.552 292.684 56.704 292.812 57.056C293.324 58.72 294.38 59.552 295.98 59.552C296.332 59.552 296.588 59.52 296.748 59.456C297.388 58.912 297.772 58.192 297.9 57.296C297.9 56.944 298.06 56.656 298.38 56.432C298.604 56.336 299.308 56.32 300.492 56.384C300.716 56.384 300.844 56.4 300.876 56.432C301.1 56.56 301.244 56.752 301.308 57.008C301.436 57.296 301.404 57.792 301.212 58.496C300.7 60.384 299.564 61.632 297.804 62.24C297.484 62.336 297.164 62.416 296.844 62.48C295.852 62.64 294.172 62.608 291.804 62.384C287.42 61.936 284.876 60.336 284.172 57.584C284.108 57.392 284.06 57.184 284.028 56.96C283.996 56.736 283.98 55.728 283.98 53.936C283.98 51.984 283.9 50.736 283.74 50.192C283.292 48.784 282.46 47.808 281.244 47.264C280.796 47.072 279.724 46.976 278.028 46.976H277.5H274.956V52.736V58.544H277.548H280.14V60.272V62H279.516C279.548 62 278.044 61.968 275.004 61.904C272.412 61.872 269.804 61.872 267.18 61.904C264.14 61.968 262.636 62 262.668 62H262.044V60.272V58.544H264.636H267.228V45.536V32.528H264.636H262.044V30.8ZM280.908 32.576C280.652 32.544 279.532 32.528 277.548 32.528H274.956V38.288V44.048H278.028C280.332 44.016 281.836 43.92 282.54 43.76C283.308 43.6 284.044 43.296 284.748 42.848C285.356 42.368 285.756 41.616 285.948 40.592C286.108 39.504 286.124 38.192 285.996 36.656C285.9 35.184 285.436 34.16 284.604 33.584C284.444 33.488 284.268 33.392 284.076 33.296C283.18 32.912 282.124 32.672 280.908 32.576Z" fill="#FF7C03"/>
</svg>
