<svg width="337" height="100" viewBox="0 0 337 100" fill="none" xmlns="http://www.w3.org/2000/svg">
<rect width="337" height="100" rx="40" fill="#578D5B"/>
<path d="M82.84 72L81.88 69.12L82.84 64.32V38.016H107.56L109.96 39.456L106.792 47.616L102.472 47.136H93.496V50.976H105.352V58.896H98.728L93.496 58.416V62.88H106.792L112.504 68.928L109.672 72H82.84ZM116.356 72V45.744L115.396 40.944L116.356 38.064H126.004L135.7 50.16L138.004 54.144H138.484V38.064H149.572V40.944L149.092 45.744V72H139.54L127.492 55.584H127.012V58.464L127.492 72H116.356ZM163.013 72V47.184L153.413 47.664V38.016H183.413V47.664L173.573 47.184V64.32L174.101 69.12L173.573 72H163.013ZM188.215 72L187.255 69.12L188.215 64.32V38.016H212.935L215.335 39.456L212.167 47.616L207.847 47.136H198.871V50.976H210.727V58.896H204.103L198.871 58.416V62.88H212.167L217.879 68.928L215.047 72H188.215ZM221.731 72V45.744L220.771 40.896L221.731 38.016H239.011C241.603 38.016 243.827 38.432 245.683 39.264C247.539 40.096 248.963 41.44 249.955 43.296C250.947 45.12 251.443 47.536 251.443 50.544C251.443 53.328 250.979 55.616 250.051 57.408C249.123 59.2 247.763 60.56 245.971 61.488L246.787 62.16L250.099 66.672L252.835 69.12V72H240.115L234.835 63.216H232.291V64.272L232.771 69.072L232.291 72H221.731ZM232.291 54.24H235.075C236.195 54.24 237.155 54.192 237.955 54.096C238.787 54 239.427 53.712 239.875 53.232C240.323 52.72 240.547 51.904 240.547 50.784C240.547 49.6 240.307 48.752 239.827 48.24C239.347 47.728 238.675 47.424 237.811 47.328C236.979 47.2 236.003 47.136 234.883 47.136H231.811L232.291 54.24Z" fill="white"/>
</svg>
