<svg width="20" height="20" viewBox="0 0 20 20" fill="none" xmlns="http://www.w3.org/2000/svg">
<path fill-rule="evenodd" clip-rule="evenodd" d="M0 10C-1.95685e-08 8.68678 0.258658 7.38642 0.761205 6.17317C1.26375 4.95991 2.00035 3.85752 2.92893 2.92893C3.85752 2.00035 4.95991 1.26375 6.17317 0.761205C7.38642 0.258658 8.68678 0 10 0C11.3132 0 12.6136 0.258658 13.8268 0.761205C15.0401 1.26375 16.1425 2.00035 17.0711 2.92893C17.9997 3.85752 18.7363 4.95991 19.2388 6.17317C19.7413 7.38642 20 8.68678 20 10C20 12.6522 18.9464 15.1957 17.0711 17.0711C15.1957 18.9464 12.6522 20 10 20C7.34784 20 4.8043 18.9464 2.92893 17.0711C1.05357 15.1957 3.95203e-08 12.6522 0 10V10ZM2.3 11.1111C2.56756 12.9625 3.4932 14.6554 4.90733 15.8799C6.32147 17.1043 8.12942 17.7783 10 17.7783C11.8706 17.7783 13.6785 17.1043 15.0927 15.8799C16.5068 14.6554 17.4324 12.9625 17.7 11.1111H13.1444C12.9149 11.7617 12.4892 12.3251 11.926 12.7236C11.3628 13.1221 10.6899 13.3361 10 13.3361C9.3101 13.3361 8.63718 13.1221 8.074 12.7236C7.51082 12.3251 7.08511 11.7617 6.85556 11.1111H2.3ZM17.7 8.88889C17.4341 7.03623 16.5092 5.34155 15.0949 4.1157C13.6805 2.88986 11.8716 2.21504 10 2.21504C8.12836 2.21504 6.31947 2.88986 4.90514 4.1157C3.49081 5.34155 2.56588 7.03623 2.3 8.88889H6.85556C7.08511 8.2383 7.51082 7.67493 8.074 7.27643C8.63718 6.87794 9.3101 6.66394 10 6.66394C10.6899 6.66394 11.3628 6.87794 11.926 7.27643C12.4892 7.67493 12.9149 8.2383 13.1444 8.88889H17.7ZM10 11.1111C10.2947 11.1111 10.5773 10.994 10.7857 10.7857C10.994 10.5773 11.1111 10.2947 11.1111 10C11.1111 9.70532 10.994 9.4227 10.7857 9.21433C10.5773 9.00595 10.2947 8.88889 10 8.88889C9.70532 8.88889 9.4227 9.00595 9.21433 9.21433C9.00595 9.4227 8.88889 9.70532 8.88889 10C8.88889 10.2947 9.00595 10.5773 9.21433 10.7857C9.4227 10.994 9.70532 11.1111 10 11.1111V11.1111Z" fill="black"/>
</svg>
