<svg width="760" height="280" viewBox="0 0 760 280" fill="none" xmlns="http://www.w3.org/2000/svg">
<rect width="760" height="280" fill="url(#paint0_linear_32_25)"/>
<circle cx="231" cy="45" r="20" fill="white"/>
<circle cx="215" cy="59" r="20" fill="white"/>
<circle cx="195" cy="51" r="20" fill="white"/>
<circle cx="205" cy="31" r="20" fill="white"/>
<circle cx="103" cy="39" r="20" fill="white"/>
<circle cx="87" cy="59" r="20" fill="white"/>
<circle cx="67" cy="45" r="20" fill="white"/>
<circle cx="83" cy="33" r="20" fill="white"/>
<circle cx="382" cy="35" r="20" fill="white"/>
<circle cx="366" cy="49" r="20" fill="white"/>
<circle cx="346" cy="41" r="20" fill="white"/>
<circle cx="362" cy="29" r="20" fill="white"/>
<circle cx="382" cy="35" r="20" fill="white"/>
<circle cx="366" cy="49" r="20" fill="white"/>
<circle cx="346" cy="41" r="20" fill="white"/>
<circle cx="362" cy="29" r="20" fill="white"/>
<circle cx="382" cy="35" r="20" fill="white"/>
<circle cx="366" cy="49" r="20" fill="white"/>
<circle cx="346" cy="41" r="20" fill="white"/>
<circle cx="362" cy="29" r="20" fill="white"/>
<circle cx="521" cy="35" r="20" fill="white"/>
<circle cx="505" cy="49" r="20" fill="white"/>
<circle cx="485" cy="41" r="20" fill="white"/>
<circle cx="501" cy="29" r="20" fill="white"/>
<circle cx="521" cy="35" r="20" fill="white"/>
<circle cx="505" cy="49" r="20" fill="white"/>
<circle cx="485" cy="41" r="20" fill="white"/>
<circle cx="501" cy="29" r="20" fill="white"/>
<circle cx="521" cy="35" r="20" fill="white"/>
<circle cx="505" cy="49" r="20" fill="white"/>
<circle cx="485" cy="41" r="20" fill="white"/>
<circle cx="501" cy="29" r="20" fill="white"/>
<circle cx="681" cy="35" r="20" fill="white"/>
<circle cx="665" cy="49" r="20" fill="white"/>
<circle cx="645" cy="41" r="20" fill="white"/>
<circle cx="661" cy="29" r="20" fill="white"/>
<circle cx="681" cy="35" r="20" fill="white"/>
<circle cx="665" cy="49" r="20" fill="white"/>
<circle cx="645" cy="41" r="20" fill="white"/>
<circle cx="661" cy="29" r="20" fill="white"/>
<circle cx="681" cy="35" r="20" fill="white"/>
<circle cx="665" cy="49" r="20" fill="white"/>
<circle cx="645" cy="41" r="20" fill="white"/>
<circle cx="661" cy="29" r="20" fill="white"/>
<circle cx="719" cy="36" r="20" fill="white"/>
<circle cx="703" cy="50" r="20" fill="white"/>
<circle cx="683" cy="42" r="20" fill="white"/>
<circle cx="699" cy="30" r="20" fill="white"/>
<circle cx="719" cy="36" r="20" fill="white"/>
<circle cx="703" cy="50" r="20" fill="white"/>
<circle cx="683" cy="42" r="20" fill="white"/>
<circle cx="699" cy="30" r="20" fill="white"/>
<circle cx="719" cy="36" r="20" fill="white"/>
<circle cx="703" cy="50" r="20" fill="white"/>
<circle cx="683" cy="42" r="20" fill="white"/>
<circle cx="699" cy="30" r="20" fill="white"/>
<circle cx="550" cy="36" r="20" fill="white"/>
<circle cx="534" cy="50" r="20" fill="white"/>
<circle cx="514" cy="42" r="20" fill="white"/>
<circle cx="530" cy="30" r="20" fill="white"/>
<circle cx="550" cy="36" r="20" fill="white"/>
<circle cx="534" cy="50" r="20" fill="white"/>
<circle cx="514" cy="42" r="20" fill="white"/>
<circle cx="530" cy="30" r="20" fill="white"/>
<circle cx="550" cy="36" r="20" fill="white"/>
<circle cx="534" cy="50" r="20" fill="white"/>
<circle cx="514" cy="42" r="20" fill="white"/>
<circle cx="530" cy="30" r="20" fill="white"/>
<circle cx="382" cy="35" r="20" fill="white"/>
<circle cx="366" cy="49" r="20" fill="white"/>
<circle cx="346" cy="41" r="20" fill="white"/>
<circle cx="362" cy="29" r="20" fill="white"/>
<circle cx="382" cy="35" r="20" fill="white"/>
<circle cx="366" cy="49" r="20" fill="white"/>
<circle cx="346" cy="41" r="20" fill="white"/>
<circle cx="362" cy="29" r="20" fill="white"/>
<circle cx="382" cy="35" r="20" fill="white"/>
<circle cx="366" cy="49" r="20" fill="white"/>
<circle cx="346" cy="41" r="20" fill="white"/>
<circle cx="362" cy="29" r="20" fill="white"/>
<circle cx="412" cy="36" r="20" fill="white"/>
<circle cx="396" cy="50" r="20" fill="white"/>
<circle cx="376" cy="42" r="20" fill="white"/>
<circle cx="392" cy="30" r="20" fill="white"/>
<circle cx="412" cy="36" r="20" fill="white"/>
<circle cx="396" cy="50" r="20" fill="white"/>
<circle cx="376" cy="42" r="20" fill="white"/>
<circle cx="392" cy="30" r="20" fill="white"/>
<circle cx="412" cy="36" r="20" fill="white"/>
<circle cx="396" cy="50" r="20" fill="white"/>
<circle cx="376" cy="42" r="20" fill="white"/>
<circle cx="392" cy="30" r="20" fill="white"/>
<circle cx="72" cy="40" r="20" fill="white"/>
<circle cx="56" cy="54" r="20" fill="white"/>
<circle cx="36" cy="46" r="20" fill="white"/>
<circle cx="52" cy="34" r="20" fill="white"/>
<ellipse cx="247.5" cy="42" rx="18.5" ry="20" fill="white"/>
<ellipse cx="232.5" cy="56" rx="18.5" ry="20" fill="white"/>
<ellipse cx="214.5" cy="48" rx="18.5" ry="20" fill="white"/>
<ellipse cx="229.5" cy="36" rx="18.5" ry="20" fill="white"/>
<path d="M118.581 85.8016C118.95 85.1923 119.379 84.637 119.836 84.0911C120.393 83.4266 120.913 82.657 121.64 82.1667C123.462 80.9375 126.017 81.7855 127.901 82.4595C129.819 83.1461 131.716 84.5204 133.037 86.0712C133.69 86.8377 134.293 87.67 134.794 88.5441C135.028 88.952 135.36 89.3215 135.566 89.734" stroke="black" stroke-width="3" stroke-linecap="round"/>
<path d="M136.319 90.236C136.342 89.0534 136.567 87.8165 136.867 86.6755C137.196 85.427 137.827 83.8425 138.801 82.9569C140.479 81.4318 143.115 80.9787 145.29 80.8234C147.044 80.6981 148.794 80.7027 150.552 80.6979C151.569 80.6951 152.783 80.8326 153.722 80.3632" stroke="black" stroke-width="3" stroke-linecap="round"/>
<path d="M285.636 66.4291C285.699 66.2726 285.805 66.1541 285.949 66.0648C286.359 65.8115 286.868 65.7673 287.337 65.7516C287.974 65.7302 288.67 65.7157 289.269 65.9693C289.467 66.0532 289.629 66.1809 289.791 66.3192" stroke="black" stroke-linecap="round"/>
<path d="M289.956 66.3113C289.999 66.1731 290.044 66.0412 290.14 65.9278C290.231 65.8195 290.353 65.7393 290.478 65.6752C290.683 65.5707 290.902 65.4926 291.116 65.4121C291.551 65.2488 291.989 65.1224 292.45 65.0583C292.592 65.0384 292.74 65.0155 292.885 65.0155" stroke="black" stroke-linecap="round"/>
<path d="M201.431 97.9694C202.353 95.0332 206.301 94.742 208.853 94.9133C210.51 95.0245 212.144 95.8172 213.385 96.9039C213.785 97.254 214.353 97.7226 214.529 98.2501" stroke="black" stroke-linecap="round"/>
<path d="M214.669 98.2033C214.853 97.6982 214.75 97.1097 214.773 96.5817C214.847 94.9111 215.259 93.3024 216.951 92.6056C218.033 92.1599 219.235 92.1005 220.389 92.0806C221.105 92.0683 221.833 92.0459 222.548 92.0962C223.242 92.145 223.966 92.2496 224.633 92.4497" stroke="black" stroke-linecap="round"/>
<path d="M414.381 79.4707C415.961 76.1775 418.06 73.362 421.593 72.055C426.325 70.3049 431.37 71.0507 435.469 73.8901C438.296 75.8476 440.823 78.1596 443.314 80.5161C444.249 81.4004 445.639 82.4085 446.059 83.6674" stroke="black" stroke-linecap="round"/>
<path d="M445.653 83.2612C445.653 77.5506 447.944 72.5368 453.535 70.3628C459.697 67.9664 466.019 69.4772 472.322 70.265" stroke="black" stroke-linecap="round"/>
<path d="M440.173 28.534C440.275 28.0121 440.452 27.5461 440.875 27.1877C441.822 26.384 443.21 26.4036 444.365 26.5694C446.177 26.8295 447.96 27.4564 449.644 28.1523C450.267 28.4093 450.967 28.6894 451.452 29.1742" stroke="black" stroke-linecap="round"/>
<path d="M451.55 29.1496C451.643 29.0731 451.687 29.0045 451.709 28.8842C451.759 28.6069 451.768 28.3255 451.824 28.0483C452.004 27.1516 452.303 26.0716 453.047 25.4721C453.562 25.0567 454.2 24.9264 454.846 24.8893C455.72 24.8391 456.558 24.9407 457.397 25.1848C458.133 25.3988 458.845 25.6792 459.578 25.899" stroke="black" stroke-linecap="round"/>
<path d="M17.52 93.04C23.5143 88.1609 30.199 86.64 38 86.64C40.4193 86.64 42.9228 89.7236 43.7956 91.76C44.0437 92.3388 47.3819 97.8755 48.0978 97.8755C48.916 97.8755 46.9911 95.5053 46.96 95.4577C46.115 94.1653 46.158 92.3171 46.3556 90.8355C46.9166 86.628 54.7239 83.44 58.48 83.44C60.2934 83.44 62.1067 83.44 63.92 83.44C65.4409 83.44 67.014 84.72 68.72 84.72" stroke="black" stroke-linecap="round"/>
<path d="M578.645 16.8211C579 14.5621 580.761 12.8735 582.759 11.8747C585.523 10.4927 588.847 10.686 591.759 11.4472C593.811 11.9834 595.037 12.7856 596.16 14.5948C596.35 14.9001 597.339 17.2615 597.355 16.0692C597.377 14.3168 597.519 12.7601 598.025 11.0638C598.773 8.5608 601.174 6.4454 603.421 5.29183C606.576 3.67276 610.028 2.90376 613.513 2.3874C614.675 2.2153 615.82 2.09253 616.993 2.09253" stroke="black" stroke-linecap="round"/>
<path d="M294.224 32.2913C295.147 32.2913 296.123 32.5352 296.997 32.8139C298.018 33.1396 299.058 33.4269 299.967 34.0214C300.33 34.2592 300.653 34.5362 300.966 34.8364C301.269 35.1269 301.636 35.4469 301.849 35.8156C301.924 35.9461 301.975 36.1193 302.007 36.2662C302.037 36.4011 302.043 35.9899 302.089 35.8597C302.28 35.3268 302.527 34.8572 302.894 34.4199C303.358 33.8669 303.854 33.2802 304.392 32.7959C305.215 32.0551 306.334 31.6144 307.38 31.3101C307.922 31.1521 308.456 31.0226 309.012 30.9216C309.224 30.8829 309.49 30.8921 309.687 30.8135" stroke="black" stroke-linecap="round"/>
<path d="M135.987 22.9588C136.066 22.5783 136.354 22.3777 136.706 22.2425C137.007 22.1266 137.308 22.0064 137.632 21.9747C138.147 21.9243 138.68 21.9495 139.189 22.036C140.038 22.1801 140.903 22.4245 141.652 22.8619C141.97 23.048 142.21 23.2936 142.481 23.5369C142.516 23.5689 142.687 23.7676 142.734 23.7676C142.761 23.7676 142.873 23.0201 142.882 22.9317C142.926 22.5134 143.051 22.0389 143.268 21.6771C143.631 21.0717 144.138 20.7552 144.77 20.4666C145.232 20.2558 145.766 20.1352 146.263 20.0366C146.601 19.9694 146.95 19.9059 147.291 19.8571" stroke="black" stroke-linecap="round"/>
<path d="M726.64 9.83996C728.31 9.51409 732.949 8.23996 734.64 9.55552C735.106 9.91778 738.718 13.4043 738.765 13.2889C739.469 11.527 738.72 9.19996 741.36 9.19996C743.28 9.19996 745.2 9.19996 747.12 9.19996" stroke="black" stroke-linecap="round"/>
<path d="M588 57.056C588.052 56.2557 588.916 54.88 589.856 54.88C590.33 54.88 590.952 55.0675 591.3 55.392C591.495 55.5743 591.806 55.7867 592.036 55.936C592.134 56.0002 592.641 56.2267 592.668 56.3236C592.742 56.5827 592.736 56.0171 592.736 55.9609C592.736 55.5392 592.632 54.9566 592.779 54.5564C592.892 54.2466 593.188 54.0438 593.412 53.8204C593.649 53.5825 593.894 53.3069 594.108 53.0453C594.358 52.7405 594.858 52.2984 595.282 52.256C595.603 52.2239 595.859 52.064 596.192 52.064C596.441 52.064 596.675 52 596.924 52C597.363 52 597.801 52 598.24 52" stroke="black" stroke-linecap="round"/>
<path d="M544.112 9.77598C544.915 8.9139 545.507 8.31369 546.701 8.30398C547.106 8.30068 547.54 8.26429 547.941 8.33598C548.241 8.38948 548.339 8.52103 548.571 8.68798C548.88 8.91098 549.136 9.04885 549.396 9.33154C549.614 9.57008 549.952 9.96361 550.256 10.0818C550.37 10.1261 551.122 8.91627 551.188 8.82309C551.637 8.18981 552.537 8.03794 553.236 7.85954C554.629 7.50381 556.06 7.59998 557.488 7.59998" stroke="black" stroke-linecap="round"/>
<path d="M309.488 70.512C309.835 69.2387 311.066 69.424 312.148 69.424C312.612 69.424 313.077 69.5868 313.506 69.7582C313.688 69.8309 313.773 70.0263 313.968 70.096C314.262 70.2011 314.413 70.5663 314.722 70.6898C314.826 70.7315 314.883 70.9511 314.932 71.056C315.096 71.4115 314.924 70.8407 314.928 70.768C314.945 70.4647 315.447 70.0991 315.66 69.9218C315.913 69.7122 316.193 69.5475 316.46 69.36C316.763 69.1484 316.917 69.0863 317.268 68.976C317.595 68.8729 317.911 68.656 318.26 68.656C318.796 68.656 319.333 68.656 319.87 68.656C320.121 68.656 320.686 68.6519 320.816 68.912" stroke="black" stroke-linecap="round"/>
<path d="M618.672 59.2479C618.504 58.8958 618.325 58.5447 618.352 58.1457C618.374 57.8203 618.873 57.6237 619.124 57.4879C619.536 57.2647 620.174 57.1331 620.599 57.4062C621.285 57.8467 621.965 58.3008 622.398 59.0062C622.593 59.3236 623.077 60.319 622.981 59.9591C622.85 59.4616 622.483 59.0534 622.384 58.5439C622.271 57.9603 622.04 57.4462 621.968 56.8551C621.892 56.2297 622.133 55.6263 622.768 55.3795C623.168 55.224 623.556 55.0851 623.984 55.0239C624.341 54.973 624.724 54.7679 625.072 54.7679" stroke="black" stroke-linecap="round"/>
<path d="M151.92 82.16C148.855 81.5619 146.055 81.52 142.96 81.52" stroke="black" stroke-linecap="round"/>
<defs>
<linearGradient id="paint0_linear_32_25" x1="380" y1="0" x2="380" y2="280" gradientUnits="userSpaceOnUse">
<stop stop-color="white"/>
<stop offset="1" stop-color="#10EDFB"/>
</linearGradient>
</defs>
</svg>
