<svg width="80" height="80" viewBox="0 0 80 80" fill="none" xmlns="http://www.w3.org/2000/svg">
<ellipse cx="40" cy="40.0118" rx="40" ry="39.0588" fill="#AFACAC"/>
<ellipse cx="40" cy="40.0118" rx="40" ry="39.0588" fill="#AFACAC"/>
<path d="M52.3281 63.187C49.2936 65.0129 45.6934 65.9258 41.5273 65.9258C35.8955 65.9258 31.3438 64.0999 27.8721 60.4482C24.4261 56.7708 22.7031 52.0133 22.7031 46.1758C22.7031 39.6696 24.5675 34.4492 28.2964 30.5146C32.0252 26.5544 37.0013 24.5742 43.2246 24.5742C46.6963 24.5742 49.7565 25.2171 52.4053 26.5029V32.9834C49.4736 30.9261 46.3363 29.8975 42.9932 29.8975C38.9557 29.8975 35.6383 31.3504 33.041 34.2563C30.4694 37.1366 29.1836 40.9297 29.1836 45.6357C29.1836 50.2646 30.3923 53.9163 32.8096 56.5908C35.2526 59.2653 38.5186 60.6025 42.6074 60.6025C46.0534 60.6025 49.2936 59.4582 52.3281 57.1694V63.187Z" fill="black"/>
</svg>
