<svg width="80" height="80" viewBox="0 0 80 80" fill="none" xmlns="http://www.w3.org/2000/svg">
<circle cx="40" cy="40" r="40" fill="#AFACAC"/>
<path d="M38.25 45.75L43.4167 40.25L38.25 45.75ZM43.4167 40.25L48.5833 34.75L43.4167 40.25ZM43.4167 40.25L38.25 34.75L43.4167 40.25ZM43.4167 40.25L48.5833 45.75L43.4167 40.25ZM15 40.25L31.5695 57.8885C32.5382 58.92 33.8522 59.4997 35.2223 59.5H56.3333C57.7036 59.5 59.0178 58.9205 59.9867 57.8891C60.9557 56.8576 61.5 55.4587 61.5 54V26.5C61.5 25.0413 60.9557 23.6424 59.9867 22.6109C59.0178 21.5795 57.7036 21 56.3333 21H35.2223C33.8522 21.0003 32.5382 21.58 31.5695 22.6115L15 40.25Z" stroke="black" stroke-width="5" stroke-linecap="round" stroke-linejoin="round"/>
</svg>
