<svg width="80" height="80" viewBox="0 0 80 80" fill="none" xmlns="http://www.w3.org/2000/svg">
<rect width="80" height="80" rx="40" fill="#FADF38"/>
<path d="M39.9375 57.4773C37.392 57.4773 35.1307 57.017 33.1534 56.0966C31.1761 55.1761 29.6136 53.9091 28.4659 52.2955C27.3295 50.6818 26.7386 48.8295 26.6932 46.7386H34.875C34.9432 48.0227 35.4659 49.0568 36.4432 49.8409C37.4205 50.6136 38.5852 51 39.9375 51C40.9943 51 41.9318 50.767 42.75 50.3011C43.5682 49.8352 44.2102 49.1818 44.6761 48.3409C45.142 47.4886 45.3693 46.5114 45.358 45.4091C45.3693 44.2841 45.1364 43.3011 44.6591 42.4602C44.1932 41.6193 43.5455 40.9659 42.7159 40.5C41.8977 40.0227 40.9545 39.7841 39.8864 39.7841C38.875 39.7727 37.9148 39.9943 37.0057 40.4489C36.108 40.9034 35.4261 41.5227 34.9602 42.3068L27.5114 40.9091L29.0284 22.0909H51.4261V28.892H35.9659L35.1648 37.125H35.3693C35.9489 36.1591 36.8807 35.3636 38.1648 34.7386C39.4602 34.1023 40.9318 33.7841 42.5795 33.7841C44.6705 33.7841 46.5341 34.2727 48.1705 35.25C49.8182 36.2159 51.1136 37.5568 52.0568 39.2727C53.0114 40.9886 53.4886 42.9545 53.4886 45.1705C53.4886 47.5682 52.9205 49.6932 51.7841 51.5455C50.6591 53.3977 49.0795 54.8523 47.0455 55.9091C45.0227 56.9545 42.6534 57.4773 39.9375 57.4773Z" fill="black"/>
</svg>
