<svg width="80" height="80" viewBox="0 0 80 80" fill="none" xmlns="http://www.w3.org/2000/svg">
<rect width="80" height="80" rx="40" fill="#FADF38"/>
<path d="M26.5739 56V49.9318L39.3068 38.7841C40.2614 37.9205 41.0739 37.1307 41.7443 36.4148C42.4148 35.6875 42.9261 34.9602 43.2784 34.233C43.6307 33.4943 43.8068 32.6932 43.8068 31.8295C43.8068 30.8636 43.5966 30.0398 43.1761 29.358C42.7557 28.6648 42.1761 28.1307 41.4375 27.7557C40.6989 27.3807 39.8523 27.1932 38.8977 27.1932C37.9318 27.1932 37.0852 27.392 36.358 27.7898C35.6307 28.1761 35.0625 28.7386 34.6534 29.4773C34.2557 30.2159 34.0568 31.1136 34.0568 32.1705H26.0625C26.0625 29.7955 26.5966 27.7443 27.6648 26.017C28.733 24.2898 30.233 22.9602 32.1648 22.0284C34.108 21.0852 36.3636 20.6136 38.9318 20.6136C41.5795 20.6136 43.8807 21.0568 45.8352 21.9432C47.7898 22.8295 49.3011 24.0682 50.3693 25.6591C51.4489 27.2386 51.9886 29.0739 51.9886 31.1648C51.9886 32.4943 51.7216 33.8125 51.1875 35.1193C50.6534 36.4261 49.6932 37.8693 48.3068 39.4489C46.9318 41.0284 44.9773 42.9205 42.4432 45.125L38.267 48.9773V49.1989H52.4148V56H26.5739Z" fill="black"/>
</svg>
