<svg width="80" height="80" viewBox="0 0 80 80" fill="none" xmlns="http://www.w3.org/2000/svg">
<rect width="80" height="80" rx="40" fill="#FADF38"/>
<path d="M40.2102 56.4773C37.4943 56.4773 35.0682 56.0455 32.9318 55.1818C30.8068 54.3068 29.1364 53.125 27.9205 51.6364C26.7159 50.1364 26.1136 48.4432 26.1136 46.5568C26.1136 45.1136 26.4602 43.7898 27.1534 42.5852C27.8466 41.3807 28.7841 40.3807 29.9659 39.5852C31.1591 38.7784 32.4886 38.2614 33.9545 38.0341V37.7614C32.0341 37.4091 30.4602 36.517 29.233 35.0852C28.017 33.6534 27.4091 31.9773 27.4091 30.0568C27.4091 28.2386 27.9602 26.6193 29.0625 25.1989C30.1761 23.7784 31.6932 22.6591 33.6136 21.8409C35.5455 21.0227 37.7443 20.6136 40.2102 20.6136C42.6761 20.6136 44.8693 21.0227 46.7898 21.8409C48.7216 22.6591 50.2386 23.7784 51.3409 25.1989C52.4545 26.6193 53.0114 28.2386 53.0114 30.0568C53.0114 31.9886 52.392 33.6705 51.1534 35.1023C49.9261 36.5227 48.3636 37.4091 46.4659 37.7614V38.0341C47.9205 38.2614 49.2386 38.7784 50.4205 39.5852C51.6136 40.3807 52.5568 41.3807 53.25 42.5852C53.9545 43.7898 54.3068 45.1136 54.3068 46.5568C54.3068 48.4432 53.6989 50.1364 52.483 51.6364C51.267 53.125 49.5966 54.3068 47.4716 55.1818C45.358 56.0455 42.9375 56.4773 40.2102 56.4773ZM40.2102 50.4943C41.2443 50.4943 42.1534 50.3011 42.9375 49.9148C43.7216 49.517 44.3352 48.9659 44.7784 48.2614C45.233 47.5568 45.4602 46.7614 45.4602 45.875C45.4602 44.9659 45.233 44.1591 44.7784 43.4545C44.3239 42.75 43.6989 42.1989 42.9034 41.8011C42.1193 41.392 41.2216 41.1875 40.2102 41.1875C39.2102 41.1875 38.3125 41.392 37.517 41.8011C36.7216 42.1989 36.0966 42.75 35.642 43.4545C35.1875 44.1591 34.9602 44.9659 34.9602 45.875C34.9602 46.7614 35.1818 47.5568 35.625 48.2614C36.0795 48.9545 36.6989 49.5 37.483 49.8977C38.2784 50.2955 39.1875 50.4943 40.2102 50.4943ZM40.2102 35.2386C41.0966 35.2386 41.8807 35.0568 42.5625 34.6932C43.2557 34.3295 43.7955 33.8239 44.1818 33.1761C44.5795 32.5284 44.7784 31.7955 44.7784 30.9773C44.7784 30.1591 44.5795 29.4375 44.1818 28.8125C43.7955 28.1875 43.2614 27.6989 42.5795 27.3466C41.8977 26.983 41.108 26.8011 40.2102 26.8011C39.3239 26.8011 38.5341 26.983 37.8409 27.3466C37.1477 27.6989 36.608 28.1875 36.2216 28.8125C35.8352 29.4375 35.642 30.1591 35.642 30.9773C35.642 31.7955 35.8352 32.5284 36.2216 33.1761C36.6193 33.8125 37.1648 34.3182 37.858 34.6932C38.5511 35.0568 39.3352 35.2386 40.2102 35.2386Z" fill="black"/>
</svg>
