<svg width="80" height="80" viewBox="0 0 80 80" fill="none" xmlns="http://www.w3.org/2000/svg">
<rect width="80" height="80" rx="40" fill="#FADF38"/>
<path d="M39.7159 21.6136C41.625 21.6136 43.4489 21.9261 45.1875 22.5511C46.9261 23.1648 48.4773 24.1477 49.8409 25.5C51.2045 26.8409 52.2784 28.608 53.0625 30.8011C53.8466 32.9943 54.2386 35.6705 54.2386 38.8295C54.25 41.7386 53.9091 44.3466 53.2159 46.6534C52.5227 48.9489 51.5284 50.9034 50.233 52.517C48.9489 54.1307 47.4034 55.3636 45.5966 56.2159C43.7898 57.0568 41.7727 57.4773 39.5455 57.4773C37.0909 57.4773 34.9261 57.0057 33.0511 56.0625C31.1875 55.108 29.6932 53.8239 28.5682 52.2102C27.4545 50.5966 26.7898 48.7898 26.5739 46.7898H34.875C35.1364 47.9489 35.6875 48.8239 36.5284 49.4148C37.3693 49.9943 38.375 50.2841 39.5455 50.2841C41.6818 50.2841 43.2784 49.358 44.3352 47.5057C45.392 45.6534 45.9205 43.1364 45.9205 39.9545H45.7159C45.2273 41 44.5341 41.8977 43.6364 42.6477C42.75 43.3977 41.7216 43.9716 40.5511 44.3693C39.3807 44.767 38.1477 44.9659 36.8523 44.9659C34.7614 44.9659 32.9148 44.4886 31.3125 43.5341C29.7216 42.5795 28.4716 41.267 27.5625 39.5966C26.6648 37.9261 26.2102 36.017 26.1989 33.8693C26.1875 31.4602 26.75 29.3352 27.8864 27.4943C29.0227 25.642 30.608 24.1989 32.642 23.1648C34.6761 22.1193 37.0341 21.6023 39.7159 21.6136ZM39.767 28.0909C38.7216 28.0909 37.7898 28.3352 36.9716 28.8239C36.1648 29.3125 35.5284 29.9716 35.0625 30.8011C34.5966 31.6307 34.3693 32.5625 34.3807 33.5966C34.392 34.6307 34.625 35.5625 35.0795 36.392C35.5455 37.2216 36.1761 37.8807 36.9716 38.3693C37.7784 38.858 38.6989 39.1023 39.733 39.1023C40.5057 39.1023 41.2216 38.9602 41.8807 38.6761C42.5398 38.392 43.1136 38 43.6023 37.5C44.0909 36.9886 44.4716 36.3977 44.7443 35.7273C45.0284 35.0568 45.1648 34.3409 45.1534 33.5795C45.142 32.5682 44.9034 31.6477 44.4375 30.8182C43.9716 29.9886 43.3295 29.3295 42.5114 28.8409C41.7045 28.3409 40.7898 28.0909 39.767 28.0909Z" fill="black"/>
</svg>
