<svg width="80" height="80" viewBox="0 0 80 80" fill="none" xmlns="http://www.w3.org/2000/svg">
<path d="M39 39L42 43.5" stroke="black"/>
<rect x="2" y="2" width="76" height="76" rx="38" fill="black" stroke="#FADF38" stroke-width="4"/>
<path d="M31.7813 39.6404C31.7813 44.0587 35.3631 47.6404 39.7813 47.6404C44.1996 47.6404 47.7813 44.0587 47.7813 39.6404C47.7813 35.2221 44.1996 31.6404 39.7813 31.6404C35.3631 31.6404 31.7813 35.2221 31.7813 39.6404ZM42.1833 38.1665L40.9823 39.0653L42.1833 38.1665ZM40.7653 39.8246L40.8135 38.3254L40.7653 39.8246ZM42.0675 37.798L42.0322 36.2984L42.0675 37.798ZM42.6463 39.0877L41.1476 39.0253L42.6463 39.0877ZM39.9694 36.9792L38.659 36.2494L39.9694 36.9792ZM43.6736 35.8123L42.3907 36.5896L43.6736 35.8123ZM42.0096 39.4459L41.391 38.0794L41.391 38.0794L42.0096 39.4459ZM42.4871 36.6209L43.1468 35.2738L42.4871 36.6209ZM41.4887 39.8963L41.8589 41.3499L41.4887 39.8963ZM39.2894 36.6312L40.7064 37.1232L39.2894 36.6312ZM39.8913 36.329C40.0975 37.1314 40.9151 37.6146 41.7174 37.4084C42.5198 37.2022 43.003 36.3846 42.7968 35.5822L39.8913 36.329ZM41.2444 39.3095C41.2118 39.1654 41.1752 39.0256 41.1466 38.9161C41.1156 38.7972 41.0936 38.712 41.0764 38.6349C41.0594 38.5587 41.0544 38.521 41.0531 38.5079C41.0518 38.4937 41.058 38.538 41.0446 38.6183C41.0299 38.706 40.9914 38.838 40.898 38.9762C40.8025 39.1174 40.6869 39.2099 40.5924 39.263C40.5067 39.3111 40.4567 39.317 40.481 39.3124C40.5047 39.3078 40.5743 39.298 40.7074 39.298V36.298C40.2057 36.298 39.6306 36.3623 39.1227 36.6477C38.5147 36.9893 38.1826 37.5432 38.0856 38.1238C38.0062 38.5988 38.0932 39.0404 38.1481 39.2868C38.1791 39.426 38.2153 39.5644 38.2437 39.6733C38.2745 39.7914 38.2984 39.8833 38.3183 39.9713L41.2444 39.3095ZM40.7074 39.298C40.7992 39.298 40.8873 39.2968 40.9613 39.2957C41.039 39.2947 41.1004 39.2939 41.1576 39.294C41.2764 39.2943 41.3236 39.2991 41.3384 39.3013C41.3467 39.3026 41.2875 39.295 41.2015 39.2494C41.1062 39.1989 41.0305 39.1296 40.9823 39.0653L43.3842 37.2677C42.9217 36.6497 42.3068 36.4133 41.7852 36.3348C41.3889 36.2751 40.8861 36.298 40.7074 36.298V39.298ZM40.9823 39.0653C41.0503 39.156 41.0869 39.2178 41.1043 39.2517C41.1225 39.2872 41.1105 39.274 41.0988 39.2179C41.0864 39.1585 41.0725 39.04 41.1057 38.8867C41.1406 38.7257 41.2162 38.5794 41.3149 38.4644C41.492 38.2583 41.6483 38.2561 41.5156 38.2864C41.4047 38.3116 41.1829 38.3373 40.8135 38.3254L40.7171 41.3238C41.2281 41.3403 41.7297 41.3145 42.1824 41.2113C42.6132 41.1131 43.173 40.9054 43.5905 40.4194C44.0684 39.8631 44.1568 39.1867 44.0357 38.6057C43.9276 38.0872 43.6577 37.6332 43.3842 37.2677L40.9823 39.0653ZM40.8135 38.3254C40.6033 38.3186 40.4496 38.2988 40.3435 38.2758C40.2348 38.2522 40.2091 38.2323 40.2311 38.2452C40.261 38.2628 40.3447 38.3222 40.4153 38.4428C40.4875 38.566 40.5 38.6746 40.5 38.7192H37.5C37.5 39.6471 37.9687 40.3946 38.7091 40.8305C39.3347 41.1988 40.0757 41.3032 40.7171 41.3238L40.8135 38.3254ZM40.5 38.7192C40.5 39.2495 40.13 39.4934 40.1039 39.5086C40.0947 39.514 40.1891 39.4659 40.4559 39.4171C40.9676 39.3234 41.6078 39.3093 42.1029 39.2976L42.0322 36.2984C41.5994 36.3086 40.7058 36.3215 39.9157 36.4662C39.5316 36.5365 39.0331 36.6605 38.5938 36.9164C38.1375 37.1822 37.5 37.7553 37.5 38.7192H40.5ZM42.1029 39.2976C42.1387 39.2967 41.8823 39.3132 41.5988 39.0808C41.2956 38.8322 41.2327 38.5244 41.2213 38.4303C41.2128 38.3604 41.224 38.346 41.2064 38.4832C41.2028 38.5115 41.1987 38.5409 41.1936 38.5776C41.1889 38.6119 41.183 38.6545 41.1775 38.6973C41.1668 38.7796 41.1529 38.8976 41.1476 39.0253L44.145 39.15C44.1448 39.1539 44.1455 39.1382 44.1528 39.0812C44.1563 39.0543 44.1602 39.0259 44.1654 38.9883C44.1702 38.9532 44.1762 38.91 44.182 38.8653C44.2018 38.711 44.2399 38.401 44.1993 38.0678C44.1558 37.7105 44.002 37.1717 43.5007 36.7607C43.019 36.3659 42.4572 36.2884 42.0322 36.2984L42.1029 39.2976ZM41.1476 39.0253C41.1548 38.8529 41.2102 38.657 41.331 38.4789C41.4447 38.3113 41.5751 38.2196 41.6513 38.1765C41.771 38.1087 41.8111 38.1288 41.6488 38.1454C41.5145 38.1592 41.3384 38.1618 41.1145 38.157C40.9428 38.1533 40.6283 38.1404 40.4325 38.1404V41.1404C40.5993 41.1404 41.4036 41.1863 41.9546 41.1298C42.2507 41.0995 42.7055 41.027 43.1291 40.7872C43.6338 40.5015 44.1116 39.9537 44.145 39.15L41.1476 39.0253ZM40.4325 38.1404C40.6109 38.1404 40.818 38.1978 40.9983 38.3291C41.1609 38.4476 41.2327 38.5755 41.2553 38.6219C41.2774 38.6676 41.273 38.6765 41.2636 38.6257C41.255 38.5791 41.247 38.5077 41.2445 38.4117C41.2394 38.2161 41.259 37.9931 41.2911 37.8029C41.3068 37.7097 41.3228 37.6408 41.3338 37.6009C41.3393 37.581 41.341 37.5775 41.3375 37.5871C41.3363 37.5905 41.319 37.6389 41.2799 37.709L38.659 36.2494C38.4696 36.5894 38.3788 37.0313 38.3328 37.3041C38.2748 37.6481 38.2345 38.067 38.2455 38.4897C38.2557 38.8809 38.3122 39.4293 38.5568 39.9329C38.8382 40.512 39.45 41.1404 40.4325 41.1404V38.1404ZM41.2799 37.709C41.2231 37.811 41.1874 37.8307 41.2547 37.7643C41.3055 37.7143 41.3879 37.6421 41.5012 37.5566C41.7301 37.384 42.0206 37.2055 42.3067 37.0754C42.615 36.9353 42.8022 36.9041 42.857 36.9036C42.8718 36.9034 42.8019 36.9073 42.6918 36.8562C42.5654 36.7976 42.4569 36.6988 42.3907 36.5896L44.9565 35.0351C44.4198 34.1491 43.5286 33.8965 42.8264 33.9037C42.1751 33.9104 41.5483 34.1247 41.0651 34.3444C40.5598 34.5742 40.0814 34.8699 39.6946 35.1616C39.3668 35.4089 38.9121 35.7948 38.659 36.2494L41.2799 37.709ZM42.3907 36.5896C42.5317 36.8223 42.5268 37.0029 42.4303 37.2043C42.3099 37.4557 41.9956 37.8057 41.391 38.0794L42.6283 40.8124C43.7113 40.3221 44.6406 39.5347 45.136 38.5001C45.6555 37.4155 45.6388 36.1612 44.9565 35.0351L42.3907 36.5896ZM41.391 38.0794C41.127 38.1989 40.9567 38.2531 40.8614 38.2734C40.7535 38.2964 40.8438 38.2544 41.0286 38.3142C41.1316 38.3475 41.2446 38.4069 41.3474 38.4981C41.4486 38.588 41.5098 38.6821 41.5435 38.751C41.6008 38.8681 41.5707 38.893 41.5707 38.709H38.5707C38.5707 39.1244 38.6253 39.6127 38.8488 40.0696C39.0994 40.5816 39.5304 40.9826 40.1051 41.1685C40.6168 41.3341 41.1129 41.2872 41.487 41.2075C41.8735 41.1251 42.2611 40.9786 42.6283 40.8124L41.391 38.0794ZM41.5707 38.709C41.5707 38.7651 41.5645 38.7676 41.5773 38.7049C41.588 38.6524 41.6074 38.5784 41.6373 38.4917C41.6999 38.3101 41.786 38.139 41.8748 38.0188C41.9686 37.8918 41.9996 37.9079 41.9293 37.9331C41.8875 37.9481 41.8405 37.9542 41.8014 37.9512C41.7653 37.9485 41.7717 37.9408 41.8274 37.9681L43.1468 35.2738C42.4173 34.9165 41.6418 34.8489 40.9156 35.1096C40.2396 35.3523 39.7683 35.8212 39.4616 36.2365C39.1499 36.6586 38.9372 37.1194 38.8013 37.5134C38.6739 37.8827 38.5707 38.3188 38.5707 38.709H41.5707ZM41.8274 37.9681C41.807 37.9581 41.7581 37.9274 41.71 37.8663C41.663 37.8068 41.6415 37.7495 41.6333 37.7153C41.6209 37.6638 41.6461 37.7125 41.5896 37.8685C41.5368 38.0144 41.441 38.1698 41.3244 38.2904C41.2686 38.3481 41.2176 38.3878 41.1775 38.4129C41.1375 38.4379 41.1169 38.4431 41.1186 38.4427L41.8589 41.3499C43.1475 41.0217 44.0441 39.9019 44.4106 38.8894C44.6049 38.3523 44.7123 37.6878 44.55 37.0134C44.3749 36.286 43.9035 35.6444 43.1468 35.2738L41.8274 37.9681ZM41.1186 38.4427C40.6865 38.5527 40.5926 38.4651 40.6538 38.4963C40.7231 38.5316 40.7039 38.5704 40.6596 38.4463C40.6102 38.3075 40.5767 38.0807 40.5901 37.7938C40.6033 37.511 40.6576 37.2638 40.7064 37.1232L37.8724 36.1392C37.5973 36.9313 37.4162 38.282 37.8338 39.4536C38.059 40.0853 38.4996 40.7657 39.292 41.1694C40.0762 41.5689 40.9686 41.5766 41.8589 41.3499L41.1186 38.4427ZM40.7064 37.1232C40.7833 36.9016 40.8868 36.6902 40.9909 36.5299C41.1114 36.3442 41.1614 36.3357 41.0845 36.3824C41.0342 36.4131 40.8916 36.4883 40.6724 36.4988C40.4281 36.5105 40.1961 36.436 40.0211 36.3132C39.9431 36.2585 39.8912 36.2046 39.8606 36.1678C39.8304 36.1315 39.8177 36.1081 39.8176 36.1079C39.8174 36.1075 39.8261 36.1236 39.8403 36.1618C39.8544 36.1997 39.8721 36.2544 39.8913 36.329L42.7968 35.5822C42.6522 35.0194 42.3765 34.3009 41.7439 33.8572C40.9283 33.2851 40.058 33.4952 39.5247 33.8198C39.051 34.1082 38.706 34.5399 38.4746 34.8965C38.2266 35.2784 38.0209 35.7113 37.8724 36.1392L40.7064 37.1232Z" fill="#FADF38"/>
</svg>
