<svg width="80" height="80" viewBox="0 0 80 80" fill="none" xmlns="http://www.w3.org/2000/svg">
<rect width="80" height="80" rx="40" fill="#FADF38"/>
<path d="M40.0114 57.8523C36.9659 57.8523 34.3409 57.1307 32.1364 55.6875C29.9318 54.233 28.233 52.1477 27.0398 49.4318C25.8466 46.7045 25.2557 43.4261 25.267 39.5966C25.2784 35.767 25.875 32.517 27.0568 29.8466C28.25 27.1648 29.9432 25.125 32.1364 23.7273C34.3409 22.3182 36.9659 21.6136 40.0114 21.6136C43.0568 21.6136 45.6818 22.3182 47.8864 23.7273C50.1023 25.125 51.8068 27.1648 53 29.8466C54.1932 32.5284 54.7841 35.7784 54.7727 39.5966C54.7727 43.4375 54.1761 46.7216 52.983 49.4489C51.7898 52.1761 50.0909 54.2614 47.8864 55.7045C45.6932 57.1364 43.0682 57.8523 40.0114 57.8523ZM40.0114 50.9489C41.8295 50.9489 43.3011 50.0227 44.4261 48.1705C45.5511 46.3068 46.108 43.4489 46.0966 39.5966C46.0966 37.0739 45.8409 34.9943 45.3295 33.358C44.8182 31.7102 44.108 30.483 43.1989 29.6761C42.2898 28.8693 41.2273 28.4659 40.0114 28.4659C38.2045 28.4659 36.7443 29.3807 35.6307 31.2102C34.517 33.0284 33.9545 35.8239 33.9432 39.5966C33.9318 42.1534 34.1761 44.2727 34.6761 45.9545C35.1875 47.6364 35.9034 48.892 36.8239 49.7216C37.7443 50.5398 38.8068 50.9489 40.0114 50.9489Z" fill="black"/>
</svg>
