<svg width="80" height="80" viewBox="0 0 80 80" fill="none" xmlns="http://www.w3.org/2000/svg">
<rect x="2" y="2" width="76" height="76" rx="38" fill="black" stroke="#FADF38" stroke-width="4"/>
<path d="M37.5 42.9286L41.8333 38.5M41.8333 38.5L46.1667 34.0714M41.8333 38.5L37.5 34.0714M41.8333 38.5L46.1667 42.9286M18 38.5L31.897 52.7024C32.7095 53.533 33.8115 53.9997 34.9607 54H52.6667C53.8159 54 54.9181 53.5334 55.7308 52.7029C56.5435 51.8724 57 50.746 57 49.5714V27.4286C57 26.254 56.5435 25.1276 55.7308 24.2971C54.9181 23.4666 53.8159 23 52.6667 23H34.9607C33.8115 23.0003 32.7095 23.467 31.897 24.2976L18 38.5Z" stroke="#FADF38" stroke-width="4" stroke-linecap="round" stroke-linejoin="round"/>
</svg>
