<svg width="80" height="80" viewBox="0 0 80 80" fill="none" xmlns="http://www.w3.org/2000/svg">
<rect width="80" height="80" rx="40" fill="#FADF38"/>
<path d="M38.8523 56.4773C36.1932 56.4773 33.8352 56.0227 31.7784 55.1136C29.733 54.1932 28.1193 52.9261 26.9375 51.3125C25.7557 49.6989 25.1534 47.8409 25.1307 45.7386H33.6193C33.6534 46.5 33.8977 47.1761 34.3523 47.767C34.8068 48.3466 35.4261 48.8011 36.2102 49.1307C36.9943 49.4602 37.8864 49.625 38.8864 49.625C39.8864 49.625 40.767 49.4489 41.5284 49.0966C42.3011 48.733 42.9034 48.2386 43.3352 47.6136C43.767 46.9773 43.9773 46.25 43.9659 45.4318C43.9773 44.6136 43.7443 43.8864 43.267 43.25C42.7898 42.6136 42.1136 42.1193 41.2386 41.767C40.375 41.4148 39.3523 41.2386 38.1705 41.2386H34.7784V35.2386H38.1705C39.2045 35.2386 40.1136 35.0682 40.8977 34.7273C41.6932 34.3864 42.3125 33.9091 42.7557 33.2955C43.1989 32.6705 43.4148 31.9545 43.4034 31.1477C43.4148 30.3636 43.2273 29.6761 42.8409 29.0852C42.4659 28.483 41.9375 28.017 41.2557 27.6875C40.5852 27.358 39.8068 27.1932 38.9205 27.1932C37.9886 27.1932 37.142 27.358 36.3807 27.6875C35.6307 28.017 35.0341 28.483 34.5909 29.0852C34.1477 29.6875 33.9148 30.3864 33.892 31.1818H25.8295C25.8523 29.1023 26.4318 27.2727 27.5682 25.6932C28.7045 24.1023 30.25 22.858 32.2045 21.9602C34.1705 21.0625 36.4091 20.6136 38.9205 20.6136C41.4205 20.6136 43.6193 21.0511 45.517 21.9261C47.4148 22.8011 48.892 23.9943 49.9489 25.5057C51.0057 27.0057 51.5341 28.7045 51.5341 30.6023C51.5455 32.5682 50.9034 34.1875 49.608 35.4602C48.3239 36.733 46.6705 37.517 44.6477 37.8125V38.0852C47.3523 38.4034 49.392 39.2784 50.767 40.7102C52.1534 42.142 52.8409 43.9318 52.8295 46.0795C52.8295 48.1023 52.233 49.8977 51.0398 51.4659C49.858 53.0227 48.2102 54.25 46.0966 55.1477C43.9943 56.0341 41.5795 56.4773 38.8523 56.4773Z" fill="black"/>
</svg>
