<svg width="80" height="80" viewBox="0 0 80 80" fill="none" xmlns="http://www.w3.org/2000/svg">
<rect x="2" y="2" width="76" height="76" rx="38" fill="black" stroke="#FADF38" stroke-width="4"/>
<path d="M43.125 50.4545V48.6136C43.125 47.1818 43.4318 45.858 44.0455 44.642C44.6705 43.4261 45.5739 42.4489 46.7557 41.7102C47.9375 40.9716 49.3807 40.6023 51.0852 40.6023C52.8239 40.6023 54.2841 40.9716 55.4659 41.7102C56.6591 42.4375 57.5568 43.4091 58.1591 44.625C58.7727 45.8295 59.0795 47.1591 59.0795 48.6136V50.4545C59.0795 51.8864 58.7727 53.2102 58.1591 54.4261C57.5455 55.642 56.642 56.6193 55.4489 57.358C54.2557 58.0966 52.8011 58.4659 51.0852 58.4659C49.358 58.4659 47.9034 58.0966 46.7216 57.358C45.5398 56.6193 44.642 55.642 44.0284 54.4261C43.4261 53.2102 43.125 51.8864 43.125 50.4545ZM48.5625 48.6136V50.4545C48.5625 51.1818 48.7386 51.8807 49.0909 52.5511C49.4545 53.2216 50.1193 53.5568 51.0852 53.5568C52.0739 53.5568 52.7386 53.233 53.0795 52.5852C53.4205 51.9261 53.5909 51.2159 53.5909 50.4545V48.6136C53.5909 47.8523 53.4261 47.1364 53.0966 46.4659C52.7784 45.7841 52.108 45.4432 51.0852 45.4432C50.1307 45.4432 49.4716 45.7841 49.108 46.4659C48.7443 47.1364 48.5625 47.8523 48.5625 48.6136ZM25.0227 30.4773V28.6364C25.0227 27.1818 25.3352 25.8523 25.9602 24.6477C26.5966 23.4318 27.5057 22.4602 28.6875 21.733C29.8693 20.9943 31.3011 20.625 32.983 20.625C34.7216 20.625 36.1818 20.9943 37.3636 21.733C38.5568 22.4602 39.4602 23.4318 40.0739 24.6477C40.6875 25.8523 40.9943 27.1818 40.9943 28.6364V30.4773C40.9943 31.9318 40.6818 33.2614 40.0568 34.4659C39.4432 35.6705 38.5398 36.6307 37.3466 37.3466C36.1534 38.0625 34.6989 38.4205 32.983 38.4205C31.267 38.4205 29.8125 38.0568 28.6193 37.3295C27.4375 36.6023 26.5398 35.6364 25.9261 34.4318C25.3239 33.2273 25.0227 31.9091 25.0227 30.4773ZM30.5114 28.6364V30.4773C30.5114 31.2386 30.6875 31.9489 31.0398 32.608C31.4034 33.2557 32.0511 33.5795 32.983 33.5795C33.983 33.5795 34.6477 33.2557 34.9773 32.608C35.3182 31.9489 35.4886 31.2386 35.4886 30.4773V28.6364C35.4886 27.875 35.3295 27.1591 35.0114 26.4886C34.6932 25.8068 34.017 25.4659 32.983 25.4659C32.0284 25.4659 31.375 25.8125 31.0227 26.5057C30.6818 27.1989 30.5114 27.9091 30.5114 28.6364ZM27.5966 57L51.5966 22.0909H56.25L32.25 57H27.5966Z" fill="#FADF38"/>
</svg>
