<svg width="80" height="80" viewBox="0 0 80 80" fill="none" xmlns="http://www.w3.org/2000/svg">
<rect x="2" y="2" width="76" height="76" rx="38" fill="black" stroke="#FADF38" stroke-width="4"/>
<path d="M54.3295 34.7386H45.8068C45.6932 33.8636 45.4602 33.0739 45.108 32.3693C44.7557 31.6648 44.2898 31.0625 43.7102 30.5625C43.1307 30.0625 42.4432 29.6818 41.6477 29.4205C40.8636 29.1477 39.9943 29.0114 39.0398 29.0114C37.3466 29.0114 35.8864 29.4261 34.6591 30.2557C33.4432 31.0852 32.5057 32.2841 31.8466 33.8523C31.1989 35.4205 30.875 37.3182 30.875 39.5455C30.875 41.8636 31.2045 43.8068 31.8636 45.375C32.5341 46.9318 33.4716 48.108 34.6761 48.9034C35.892 49.6875 37.3295 50.0795 38.9886 50.0795C39.9205 50.0795 40.767 49.9602 41.5284 49.7216C42.3011 49.483 42.9773 49.1364 43.5568 48.6818C44.1477 48.2159 44.6307 47.6534 45.0057 46.9943C45.392 46.3239 45.6591 45.5682 45.8068 44.7273L54.3295 44.7784C54.1818 46.3239 53.733 47.8466 52.983 49.3466C52.2443 50.8466 51.2273 52.2159 49.9318 53.4545C48.6364 54.6818 47.0568 55.6591 45.1932 56.3864C43.3409 57.1136 41.2159 57.4773 38.8182 57.4773C35.6591 57.4773 32.8295 56.7841 30.3295 55.3977C27.8409 54 25.875 51.9659 24.4318 49.2955C22.9886 46.625 22.267 43.375 22.267 39.5455C22.267 35.7045 23 32.4489 24.4659 29.7784C25.9318 27.108 27.9148 25.0795 30.4148 23.6932C32.9148 22.3068 35.7159 21.6136 38.8182 21.6136C40.9318 21.6136 42.8864 21.9091 44.6818 22.5C46.4773 23.0795 48.0568 23.9318 49.4205 25.0568C50.7841 26.1705 51.892 27.5398 52.7443 29.1648C53.5966 30.7898 54.125 32.6477 54.3295 34.7386Z" fill="#FADF38"/>
</svg>
