<svg width="80" height="80" viewBox="0 0 80 80" fill="none" xmlns="http://www.w3.org/2000/svg">
<rect width="80" height="80" rx="40" fill="#FADF38"/>
<path d="M40.5682 56.4773C38.6591 56.4773 36.8295 56.1705 35.0795 55.5568C33.3295 54.9318 31.7727 53.9432 30.4091 52.5909C29.0455 51.2273 27.9716 49.4432 27.1875 47.2386C26.4034 45.0227 26.017 42.3239 26.0284 39.142C26.0398 36.267 26.392 33.6875 27.0852 31.4034C27.7784 29.108 28.767 27.1591 30.0511 25.5568C31.3466 23.9545 32.892 22.733 34.6875 21.892C36.4943 21.0398 38.5114 20.6136 40.7386 20.6136C43.1818 20.6136 45.3352 21.0909 47.1989 22.0455C49.0739 22.9886 50.5739 24.2614 51.6989 25.8636C52.8239 27.4545 53.4886 29.2273 53.6932 31.1818H45.392C45.142 30.0795 44.5909 29.2443 43.7386 28.6761C42.8977 28.0966 41.8977 27.8068 40.7386 27.8068C38.6023 27.8068 37.0057 28.733 35.9489 30.5852C34.9034 32.4375 34.3693 34.9148 34.3466 38.017H34.5682C35.0455 36.9716 35.733 36.0739 36.6307 35.3239C37.5284 34.5739 38.5568 34 39.7159 33.6023C40.8864 33.1932 42.125 32.9886 43.4318 32.9886C45.5227 32.9886 47.3693 33.4716 48.9716 34.4375C50.5739 35.4034 51.8295 36.7273 52.7386 38.4091C53.6477 40.0795 54.0966 41.9943 54.0852 44.1534C54.0966 46.5852 53.5284 48.733 52.3807 50.5966C51.233 52.4489 49.642 53.892 47.608 54.9261C45.5852 55.9602 43.2386 56.4773 40.5682 56.4773ZM40.517 50C41.5511 50 42.4773 49.7557 43.2955 49.267C44.1136 48.7784 44.7557 48.1136 45.2216 47.2727C45.6875 46.4318 45.9148 45.483 45.9034 44.4261C45.9148 43.358 45.6875 42.4091 45.2216 41.5795C44.767 40.75 44.1307 40.0909 43.3125 39.6023C42.5057 39.1136 41.5795 38.8693 40.5341 38.8693C39.7727 38.8693 39.0625 39.0114 38.4034 39.2955C37.7443 39.5795 37.1705 39.9773 36.6818 40.4886C36.2045 40.9886 35.8295 41.5795 35.5568 42.2614C35.2841 42.9318 35.142 43.6591 35.1307 44.4432C35.142 45.4773 35.3807 46.4148 35.8466 47.2557C36.3125 48.0966 36.9489 48.767 37.7557 49.267C38.5625 49.7557 39.483 50 40.517 50Z" fill="black"/>
</svg>
