<svg width="80" height="80" viewBox="0 0 80 80" fill="none" xmlns="http://www.w3.org/2000/svg">
<circle cx="40" cy="40" r="40" fill="#FF9900"/>
<path fill-rule="evenodd" clip-rule="evenodd" d="M22 31C22 30.2044 22.3161 29.4413 22.8787 28.8787C23.4413 28.3161 24.2044 28 25 28H61C61.7956 28 62.5587 28.3161 63.1213 28.8787C63.6839 29.4413 64 30.2044 64 31C64 31.7956 63.6839 32.5587 63.1213 33.1213C62.5587 33.6839 61.7956 34 61 34H25C24.2044 34 23.4413 33.6839 22.8787 33.1213C22.3161 32.5587 22 31.7956 22 31ZM22 49C22 48.2044 22.3161 47.4413 22.8787 46.8787C23.4413 46.3161 24.2044 46 25 46H61C61.7956 46 62.5587 46.3161 63.1213 46.8787C63.6839 47.4413 64 48.2044 64 49C64 49.7956 63.6839 50.5587 63.1213 51.1213C62.5587 51.6839 61.7956 52 61 52H25C24.2044 52 23.4413 51.6839 22.8787 51.1213C22.3161 50.5587 22 49.7956 22 49Z" fill="white"/>
</svg>
