<svg width="80" height="80" viewBox="0 0 80 80" fill="none" xmlns="http://www.w3.org/2000/svg">
<circle cx="40" cy="40" r="40" fill="#5E5656"/>
<path d="M39.7529 68.9258C34.2754 68.9258 29.9937 66.5728 26.9077 61.8667C23.8475 57.1606 22.3174 50.3587 22.3174 41.4609C22.3174 31.6888 23.9118 24.2954 27.1006 19.2808C30.3151 14.2661 34.944 11.7588 40.9873 11.7588C52.5596 11.7588 58.3457 21.2095 58.3457 40.1108C58.3457 49.4715 56.7127 56.6206 53.4468 61.5581C50.1808 66.4699 45.6162 68.9258 39.7529 68.9258ZM40.6401 17.1206C32.7453 17.1206 28.7979 25.1312 28.7979 41.1523C28.7979 56.1191 32.6681 63.6025 40.4087 63.6025C48.0464 63.6025 51.8652 55.9906 51.8652 40.7666C51.8652 25.0026 48.1235 17.1206 40.6401 17.1206Z" fill="white"/>
</svg>
