<svg width="80" height="75" viewBox="0 0 80 75" fill="none" xmlns="http://www.w3.org/2000/svg">
<ellipse cx="40" cy="37.2093" rx="40" ry="37.2093" fill="#5E5656"/>
<path d="M44.9277 64H38.6016V16.2065C38.113 16.6951 37.3929 17.2609 36.4414 17.9038C35.5156 18.521 34.4613 19.1382 33.2783 19.7554C32.1211 20.3726 30.8867 20.9512 29.5752 21.4912C28.2894 22.0312 27.0293 22.4556 25.7949 22.7642V16.3608C27.1836 15.9751 28.6494 15.4608 30.1924 14.8179C31.7611 14.1493 33.2912 13.4163 34.7827 12.6191C36.3 11.7962 37.7272 10.9476 39.0645 10.0732C40.4017 9.17318 41.5589 8.29883 42.5361 7.4502H44.9277V64Z" fill="white"/>
</svg>
