<svg width="80" height="75" viewBox="0 0 80 75" fill="none" xmlns="http://www.w3.org/2000/svg">
<ellipse cx="40" cy="37.2093" rx="40" ry="37.2093" fill="#5E5656"/>
<path d="M48.7793 23.1885C48.7793 21.4912 48.5093 20.0125 47.9692 18.7524C47.4549 17.4924 46.7349 16.4508 45.8091 15.6279C44.909 14.7793 43.8418 14.1493 42.6074 13.7378C41.373 13.3263 40.0358 13.1206 38.5957 13.1206C37.3613 13.1206 36.1527 13.2878 34.9697 13.6221C33.7868 13.9564 32.6296 14.4193 31.498 15.0107C30.3923 15.6022 29.3122 16.3094 28.2578 17.1323C27.2292 17.9552 26.2648 18.8682 25.3647 19.8711V13.082C27.1392 11.359 29.1193 10.0475 31.3052 9.14746C33.5168 8.22168 36.2041 7.75879 39.3672 7.75879C41.6302 7.75879 43.7261 8.0931 45.6548 8.76172C47.5835 9.40462 49.255 10.3561 50.6694 11.6162C52.0838 12.8763 53.1896 14.4321 53.9868 16.2837C54.8097 18.1353 55.2212 20.2568 55.2212 22.6484C55.2212 24.8343 54.964 26.8145 54.4497 28.5889C53.9611 30.3633 53.2025 32.0348 52.1738 33.6035C51.1709 35.1722 49.8979 36.6766 48.355 38.1167C46.812 39.5568 44.999 41.0226 42.916 42.5142C40.3187 44.3657 38.1714 45.9473 36.4741 47.2588C34.8026 48.5703 33.4653 49.8047 32.4624 50.9619C31.4852 52.0934 30.7909 53.2378 30.3794 54.395C29.9937 55.5265 29.8008 56.8381 29.8008 58.3296H57.3428V64H23.2046V61.2612C23.2046 58.8953 23.4618 56.8123 23.9761 55.0122C24.4904 53.2121 25.339 51.502 26.522 49.8818C27.7049 48.2617 29.2479 46.6416 31.1509 45.0215C33.0796 43.4014 35.4326 41.5755 38.21 39.5439C40.2158 38.1038 41.8874 36.728 43.2246 35.4165C44.5876 34.105 45.6805 32.7935 46.5034 31.4819C47.3263 30.1704 47.9049 28.846 48.2393 27.5088C48.5993 26.1458 48.7793 24.7057 48.7793 23.1885Z" fill="white"/>
</svg>
