<svg width="80" height="80" viewBox="0 0 80 80" fill="none" xmlns="http://www.w3.org/2000/svg">
<circle cx="40" cy="40" r="40" fill="#5E5656"/>
<path d="M21.0532 61.9556V55.1279C24.8335 58.111 29.1024 59.6025 33.8599 59.6025C37.7173 59.6025 40.7904 58.6382 43.0791 56.7095C45.3936 54.7808 46.5508 52.1834 46.5508 48.9175C46.5508 41.6912 41.4204 38.0781 31.1597 38.0781H26.5693V32.7163H30.9282C40.0575 32.7163 44.6221 29.3218 44.6221 22.5327C44.6221 16.258 41.1375 13.1206 34.1685 13.1206C30.2853 13.1206 26.6208 14.445 23.1748 17.0938V10.9219C26.7236 8.81315 30.9154 7.75879 35.75 7.75879C40.4046 7.75879 44.1206 8.99316 46.8979 11.4619C49.701 13.9307 51.1025 17.0938 51.1025 20.9512C51.1025 28.2288 47.3994 32.9092 39.9932 34.9922V35.1465C43.9792 35.5322 47.1423 36.9338 49.4824 39.3511C51.8483 41.7427 53.0312 44.7386 53.0312 48.3389C53.0312 53.3021 51.244 57.3138 47.6694 60.374C44.1206 63.4085 39.4274 64.9258 33.5898 64.9258C28.3438 64.9258 24.1649 63.9357 21.0532 61.9556Z" fill="white"/>
</svg>
