<svg width="80" height="76" viewBox="0 0 80 76" fill="none" xmlns="http://www.w3.org/2000/svg">
<ellipse cx="40" cy="37.6471" rx="40" ry="37.6471" fill="#5E5656"/>
<path d="M49.7881 7.68457V44.2144H56.8857V50.0005H49.7881V63H43.5391V50.0005H17.54V44.5229C19.9574 41.797 22.4004 38.8911 24.8691 35.8052C27.3379 32.6935 29.6909 29.5433 31.9282 26.3545C34.1912 23.1657 36.2743 19.9897 38.1772 16.8267C40.106 13.6379 41.7261 10.5905 43.0376 7.68457H49.7881ZM24.6763 44.2144H43.5391V17.1353C41.6104 20.5041 39.7845 23.5129 38.0615 26.1616C36.3385 28.8104 34.6927 31.2148 33.124 33.375C31.5811 35.5352 30.1024 37.4896 28.688 39.2383C27.2736 40.987 25.9364 42.6457 24.6763 44.2144Z" fill="white"/>
</svg>
