<svg width="80" height="76" viewBox="0 0 80 76" fill="none" xmlns="http://www.w3.org/2000/svg">
<ellipse cx="40" cy="37.6471" rx="40" ry="37.6471" fill="#5E5656"/>
<path d="M25.3262 66.6499V59.938C29.1064 62.381 32.951 63.6025 36.8599 63.6025C40.7687 63.6025 43.9189 62.4967 46.3105 60.2852C48.7021 58.0736 49.8979 55.1419 49.8979 51.4902C49.8979 47.8643 48.6764 45.0355 46.2334 43.0039C43.7904 40.9723 40.293 39.9565 35.7412 39.9565C34.1982 39.9565 31.3052 40.1108 27.062 40.4194V12.6846H53.8325V18.3936H33.041V34.5947C34.7383 34.4919 36.307 34.4404 37.7471 34.4404C43.6618 34.4404 48.2393 35.932 51.4795 38.915C54.7197 41.8724 56.3398 45.9355 56.3398 51.1045C56.3398 56.4535 54.5911 60.7609 51.0938 64.0269C47.6221 67.2928 42.8517 68.9258 36.7827 68.9258C31.6652 68.9258 27.8464 68.1672 25.3262 66.6499Z" fill="white"/>
</svg>
