<svg width="80" height="76" viewBox="0 0 80 76" fill="none" xmlns="http://www.w3.org/2000/svg">
<ellipse cx="40" cy="37.6471" rx="40" ry="37.6471" fill="#5E5656"/>
<path d="M55.0283 8.34033V14.3193C52.1738 12.8535 49.165 12.1206 46.002 12.1206C41.0902 12.1206 37.1556 14.3065 34.1982 18.6782C31.2666 23.05 29.8008 28.9004 29.8008 36.2295H29.9551C32.5267 31.0091 36.7441 28.3989 42.6074 28.3989C47.4421 28.3989 51.2866 29.9548 54.1411 33.0664C56.9956 36.1523 58.4229 40.2926 58.4229 45.4873C58.4229 50.9134 56.7899 55.3494 53.5239 58.7954C50.258 62.2157 46.1048 63.9258 41.0645 63.9258C35.5098 63.9258 31.1509 61.7142 27.9878 57.291C24.8247 52.8678 23.2432 46.6574 23.2432 38.6597C23.2432 28.9647 25.3133 21.2241 29.4536 15.438C33.5939 9.65186 39.0586 6.75879 45.8477 6.75879C49.7051 6.75879 52.7653 7.28597 55.0283 8.34033ZM41.2188 33.7607C37.9528 33.7607 35.304 34.8665 33.2725 37.0781C31.2409 39.2897 30.2251 41.8999 30.2251 44.9087C30.2251 48.689 31.228 51.9163 33.2339 54.5908C35.2655 57.2653 37.9528 58.6025 41.2959 58.6025C44.4847 58.6025 47.0563 57.4453 49.0107 55.1309C50.9652 52.7907 51.9424 49.8333 51.9424 46.2588C51.9424 42.3499 51.0037 39.2897 49.1265 37.0781C47.2492 34.8665 44.6133 33.7607 41.2188 33.7607Z" fill="white"/>
</svg>
