<svg width="80" height="80" viewBox="0 0 80 80" fill="none" xmlns="http://www.w3.org/2000/svg">
<circle cx="40" cy="40" r="40" fill="#5E5656"/>
<path d="M31.8154 39.9922V39.8379C25.1807 36.752 21.8633 32.2773 21.8633 26.4141C21.8633 22.4281 23.3805 19.1621 26.415 16.6162C29.4495 14.0446 33.3584 12.7588 38.1416 12.7588C42.4619 12.7588 46.0107 13.9546 48.7881 16.3462C51.5654 18.7378 52.9541 21.8109 52.9541 25.5654C52.9541 31.6859 49.5339 36.4434 42.6934 39.8379V39.9922C50.7682 42.8724 54.8057 47.8613 54.8057 54.959C54.8057 59.5365 53.1598 63.1753 49.8682 65.8755C46.5765 68.5757 41.999 69.9258 36.1357 69.9258C31.404 69.9258 27.508 68.5885 24.4478 65.9141C21.3875 63.2396 19.8574 59.7679 19.8574 55.499C19.8574 48.4014 23.8434 43.2324 31.8154 39.9922ZM46.4736 26.3369C46.4736 23.791 45.6764 21.7852 44.082 20.3193C42.4876 18.8535 40.3146 18.1206 37.563 18.1206C34.9914 18.1206 32.8055 18.8921 31.0054 20.4351C29.231 21.9523 28.3438 23.8939 28.3438 26.2598C28.3438 31.0687 31.3397 34.6947 37.3315 37.1377C43.4263 34.6175 46.4736 31.0173 46.4736 26.3369ZM36.9072 43.001C29.861 45.804 26.3379 49.8672 26.3379 55.1904C26.3379 57.9421 27.3537 60.2051 29.3853 61.9795C31.4425 63.7282 34.1427 64.6025 37.4858 64.6025C40.6746 64.6025 43.272 63.741 45.2778 62.0181C47.3094 60.2694 48.3252 58.0706 48.3252 55.4219C48.3252 49.8672 44.5192 45.7269 36.9072 43.001Z" fill="white"/>
</svg>
