<svg width="80" height="80" viewBox="0 0 80 80" fill="none" xmlns="http://www.w3.org/2000/svg">
<circle cx="40" cy="40" r="40" fill="#5E5656"/>
<path d="M22.6348 68.0742V61.9795C25.7207 63.7282 28.9867 64.6025 32.4326 64.6025C37.4473 64.6025 41.3433 62.5838 44.1206 58.5464C46.9237 54.509 48.3252 48.7743 48.3252 41.3423C48.2738 41.368 48.2223 41.368 48.1709 41.3423C45.805 46.0998 41.6904 48.4785 35.8271 48.4785C31.0954 48.4785 27.2122 46.8713 24.1777 43.6567C21.1432 40.4422 19.626 36.3019 19.626 31.2358C19.626 25.8354 21.2847 21.4123 24.6021 17.9663C27.9451 14.4946 32.214 12.7588 37.4087 12.7588C42.8605 12.7588 47.1037 14.9189 50.1382 19.2393C53.1984 23.5339 54.7285 29.7957 54.7285 38.0249C54.7285 48.2342 52.7484 56.1034 48.7881 61.6323C44.8278 67.1613 39.3245 69.9258 32.2783 69.9258C28.5752 69.9258 25.3607 69.3086 22.6348 68.0742ZM36.8301 18.1206C33.7699 18.1206 31.2111 19.2778 29.1538 21.5923C27.1222 23.881 26.1064 26.7998 26.1064 30.3486C26.1064 34.2318 27.1094 37.292 29.1152 39.5293C31.1211 41.7409 33.8341 42.8467 37.2544 42.8467C40.2375 42.8467 42.7576 41.8309 44.8149 39.7993C46.8979 37.7677 47.9395 35.2861 47.9395 32.3545C47.9395 28.1628 46.9108 24.7425 44.8535 22.0938C42.7962 19.445 40.1217 18.1206 36.8301 18.1206Z" fill="white"/>
</svg>
