<svg width="80" height="80" viewBox="0 0 80 80" fill="none" xmlns="http://www.w3.org/2000/svg">
<circle cx="40" cy="40" r="40" fill="#FF9900"/>
<path d="M23.584 42.4194C19.778 42.4194 16.7435 41.1722 14.4805 38.6777C12.2174 36.1576 11.0859 32.8016 11.0859 28.6099C11.0859 24.0324 12.2817 20.4321 14.6733 17.8091C17.0649 15.1603 20.2923 13.8359 24.3555 13.8359C28.29 13.8359 31.3374 15.0575 33.4976 17.5005C35.6834 19.9435 36.7764 23.3766 36.7764 27.7998C36.7764 32.223 35.5549 35.7718 33.1118 38.4463C30.6945 41.0951 27.5186 42.4194 23.584 42.4194ZM24.124 18.0791C21.681 18.0791 19.7523 18.992 18.3379 20.8179C16.9235 22.618 16.2163 25.0996 16.2163 28.2627C16.2163 31.3743 16.9106 33.8045 18.2993 35.5532C19.688 37.2762 21.5781 38.1377 23.9697 38.1377C26.387 38.1377 28.2772 37.2376 29.6401 35.4375C31.0031 33.6374 31.6846 31.1429 31.6846 27.9541C31.6846 24.8424 31.0031 22.4251 29.6401 20.7021C28.3029 18.9535 26.4642 18.0791 24.124 18.0791ZM60.6152 14.6846L25.127 70.3857H19.6108L55.0605 14.6846H60.6152ZM56.5264 70.8486C52.7204 70.8486 49.6859 69.5885 47.4229 67.0684C45.1598 64.5482 44.0283 61.2051 44.0283 57.0391C44.0283 52.4616 45.237 48.8485 47.6543 46.1997C50.0716 43.5252 53.2861 42.188 57.2979 42.188C61.2067 42.188 64.2541 43.4224 66.4399 45.8911C68.6258 48.3599 69.7188 51.8187 69.7188 56.2676C69.7188 60.665 68.4972 64.201 66.0542 66.8755C63.6369 69.5243 60.4609 70.8486 56.5264 70.8486ZM57.0664 46.5469C54.5977 46.5469 52.6561 47.4469 51.2417 49.2471C49.853 51.0472 49.1587 53.5417 49.1587 56.7305C49.1587 59.7907 49.853 62.1951 51.2417 63.9438C52.6304 65.6668 54.5205 66.5283 56.9121 66.5283C59.3294 66.5283 61.2196 65.6283 62.5825 63.8281C63.9455 62.0023 64.627 59.5078 64.627 56.3447C64.627 53.2074 63.9455 50.79 62.5825 49.0928C61.2453 47.3955 59.4066 46.5469 57.0664 46.5469Z" fill="#FDFDFD"/>
</svg>
