<svg width="305" height="53" viewBox="0 0 305 53" fill="none" xmlns="http://www.w3.org/2000/svg">
<g filter="url(#filter0_d_10_96)">
<rect x="4.5" y="0.5" width="296" height="44" rx="19.5" stroke="black" shape-rendering="crispEdges"/>
</g>
<path d="M24 19.5C25.1935 19.5 26.3381 19.0259 27.182 18.182C28.0259 17.3381 28.5 16.1935 28.5 15C28.5 13.8065 28.0259 12.6619 27.182 11.818C26.3381 10.9741 25.1935 10.5 24 10.5C22.8065 10.5 21.6619 10.9741 20.818 11.818C19.9741 12.6619 19.5 13.8065 19.5 15C19.5 16.1935 19.9741 17.3381 20.818 18.182C21.6619 19.0259 22.8065 19.5 24 19.5V19.5ZM24 22.5C26.3869 22.5 28.6761 23.4482 30.364 25.136C32.0518 26.8239 33 29.1131 33 31.5H15C15 29.1131 15.9482 26.8239 17.636 25.136C19.3239 23.4482 21.6131 22.5 24 22.5V22.5ZM36 16.5C36 16.1022 35.842 15.7206 35.5607 15.4393C35.2794 15.158 34.8978 15 34.5 15C34.1022 15 33.7206 15.158 33.4393 15.4393C33.158 15.7206 33 16.1022 33 16.5V18H31.5C31.1022 18 30.7206 18.158 30.4393 18.4393C30.158 18.7206 30 19.1022 30 19.5C30 19.8978 30.158 20.2794 30.4393 20.5607C30.7206 20.842 31.1022 21 31.5 21H33V22.5C33 22.8978 33.158 23.2794 33.4393 23.5607C33.7206 23.842 34.1022 24 34.5 24C34.8978 24 35.2794 23.842 35.5607 23.5607C35.842 23.2794 36 22.8978 36 22.5V21H37.5C37.8978 21 38.2794 20.842 38.5607 20.5607C38.842 20.2794 39 19.8978 39 19.5C39 19.1022 38.842 18.7206 38.5607 18.4393C38.2794 18.158 37.8978 18 37.5 18H36V16.5Z" fill="black"/>
<defs>
<filter id="filter0_d_10_96" x="0" y="0" width="305" height="53" filterUnits="userSpaceOnUse" color-interpolation-filters="sRGB">
<feFlood flood-opacity="0" result="BackgroundImageFix"/>
<feColorMatrix in="SourceAlpha" type="matrix" values="0 0 0 0 0 0 0 0 0 0 0 0 0 0 0 0 0 0 127 0" result="hardAlpha"/>
<feOffset dy="4"/>
<feGaussianBlur stdDeviation="2"/>
<feComposite in2="hardAlpha" operator="out"/>
<feColorMatrix type="matrix" values="0 0 0 0 0 0 0 0 0 0 0 0 0 0 0 0 0 0 0.25 0"/>
<feBlend mode="normal" in2="BackgroundImageFix" result="effect1_dropShadow_10_96"/>
<feBlend mode="normal" in="SourceGraphic" in2="effect1_dropShadow_10_96" result="shape"/>
</filter>
</defs>
</svg>
