<svg width="180" height="68" viewBox="0 0 180 68" fill="none" xmlns="http://www.w3.org/2000/svg">
<rect x="0.5" y="0.5" width="179" height="59" rx="29.5" stroke="black"/>
<path fill-rule="evenodd" clip-rule="evenodd" d="M28 46C32.2435 46 36.3131 44.3143 39.3137 41.3137C42.3143 38.3131 44 34.2435 44 30C44 25.7565 42.3143 21.6869 39.3137 18.6863C36.3131 15.6857 32.2435 14 28 14C23.7565 14 19.6869 15.6857 16.6863 18.6863C13.6857 21.6869 12 25.7565 12 30C12 34.2435 13.6857 38.3131 16.6863 41.3137C19.6869 44.3143 23.7565 46 28 46ZM29.414 25.414C29.7783 25.0368 29.9799 24.5316 29.9753 24.0072C29.9708 23.4828 29.7605 22.9812 29.3896 22.6104C29.0188 22.2395 28.5172 22.0292 27.9928 22.0247C27.4684 22.0201 26.9632 22.2217 26.586 22.586L20.586 28.586C20.2111 28.9611 20.0004 29.4697 20.0004 30C20.0004 30.5303 20.2111 31.0389 20.586 31.414L26.586 37.414C26.9632 37.7783 27.4684 37.9799 27.9928 37.9753C28.5172 37.9708 29.0188 37.7605 29.3896 37.3896C29.7605 37.0188 29.9708 36.5172 29.9753 35.9928C29.9799 35.4684 29.7783 34.9632 29.414 34.586L26.828 32H34C34.5304 32 35.0391 31.7893 35.4142 31.4142C35.7893 31.0391 36 30.5304 36 30C36 29.4696 35.7893 28.9609 35.4142 28.5858C35.0391 28.2107 34.5304 28 34 28H26.828L29.414 25.414Z" fill="black"/>
<path d="M56.9668 30.9922C56.9668 27.4414 57.0195 24.7168 57.125 22.8184H57.1074L54.418 22.4492C54.2656 22.0156 54.1484 21.541 54.0664 21.0254C53.9844 20.498 53.9434 19.9883 53.9434 19.4961C53.9434 19.1211 53.9727 18.7109 54.0312 18.2656C55.4609 17.7852 57.3301 17.416 59.6387 17.1582C61.9473 16.8887 64.1504 16.7539 66.248 16.7539C68.041 16.7539 69.582 16.8945 70.8711 17.1758C72.1602 17.4453 73.2383 18.0664 74.1055 19.0391C74.9844 20 75.4238 21.4355 75.4238 23.3457C75.4238 24.0957 75.2188 24.9453 74.8086 25.8945C74.3984 26.832 73.8594 27.7168 73.1914 28.5488C72.5352 29.3691 71.8496 30.002 71.1348 30.4473C72.0254 30.5996 72.8516 30.9102 73.6133 31.3789C74.3867 31.8359 75.0137 32.4629 75.4941 33.2598C75.9746 34.0449 76.2148 34.9766 76.2148 36.0547C76.2148 37.4961 75.9395 38.7383 75.3887 39.7812C74.8379 40.8242 74.0527 41.6855 73.0332 42.3652C71.041 43.6895 68.2285 44.3516 64.5957 44.3516C63.166 44.3516 61.8945 44.3223 60.7812 44.2637C59.6797 44.2168 58.6602 44.123 57.7227 43.9824C57.2188 41.2637 56.9668 36.9336 56.9668 30.9922ZM66.9688 29.8848C67.2734 29.0293 67.5312 27.9453 67.7422 26.6328C67.9648 25.3086 68.0996 24.2305 68.1465 23.3984C68.0879 23.293 67.7891 23.2051 67.25 23.1348C66.7109 23.0527 66.0137 23.0117 65.1582 23.0117C64.8887 23.0117 64.4375 23.0293 63.8047 23.0645C63.7109 25.7012 63.5703 28.0684 63.3828 30.166L65.1582 30.0254L66.9688 29.8848ZM66.0898 39.7461C67.0742 39.7461 67.7773 39.7051 68.1992 39.623C68.4922 39.4473 68.75 39.1309 68.9727 38.6738C69.207 38.2168 69.3828 37.7188 69.5 37.1797C69.6172 36.6289 69.6758 36.1367 69.6758 35.7031C69.4648 35.0938 68.416 34.7891 66.5293 34.7891C65.7324 34.7891 64.8184 34.8418 63.7871 34.9473C63.5059 34.9824 63.2949 35 63.1543 35L63.1016 37.5664C63.0898 37.8242 63.0781 38.123 63.0664 38.4629C63.0547 38.8027 63.0488 39.1836 63.0488 39.6055C63.8223 39.6992 64.666 39.7461 65.5801 39.7461H66.0898ZM84.0371 32.416C84.7285 32.416 85.4902 32.4863 86.3223 32.627C87.166 32.7676 87.9395 32.9375 88.6426 33.1367V32.5918C88.6426 32.2285 88.6309 31.8242 88.6074 31.3789C88.5957 30.9336 88.5723 30.6406 88.5371 30.5C88.4316 30.3008 88.127 30.0957 87.623 29.8848C87.1309 29.6738 86.3223 29.5684 85.1973 29.5684C84.5059 29.5684 83.791 29.6562 83.0527 29.832C82.3262 29.9961 81.5176 30.2188 80.627 30.5C80.1465 29.7031 79.7598 28.9473 79.4668 28.2324C79.1855 27.5059 79.0449 26.7793 79.0449 26.0527C79.0449 25.8301 79.0625 25.6074 79.0977 25.3848C80.9961 23.9082 83.4512 23.1699 86.4629 23.1699C88.127 23.1699 89.6035 23.3574 90.8926 23.7324C92.1816 24.1074 93.2422 24.834 94.0742 25.9121C94.9062 26.9902 95.3223 28.5195 95.3223 30.5C95.3223 32.4336 95.0938 34.3086 94.6367 36.125C94.1914 37.9297 93.9629 38.8496 93.9512 38.8848L96.5 37.7949C96.8398 38.1582 97.1387 38.6035 97.3965 39.1309C97.666 39.6465 97.8359 40.2441 97.9062 40.9238C97.7422 41.2754 97.3848 41.7266 96.834 42.2773C96.2832 42.8164 95.6094 43.2969 94.8125 43.7188C94.0156 44.1406 93.1836 44.3516 92.3164 44.3516C91.3438 44.3516 90.6055 44.0645 90.1016 43.4902C89.6094 42.916 89.3633 42.1719 89.3633 41.2578C89.3633 40.7422 89.4395 40.2207 89.5918 39.6934L89.0645 39.5352C88.7363 41.3867 88.0391 42.6523 86.9727 43.332C85.9062 44.0117 84.7285 44.3516 83.4395 44.3516C82.5957 44.3516 81.7812 44.1172 80.9961 43.6484C80.2109 43.168 79.5723 42.4766 79.0801 41.5742C78.5879 40.6602 78.3418 39.5938 78.3418 38.375C78.3418 36.4297 78.8281 34.9531 79.8008 33.9453C80.7734 32.9258 82.1855 32.416 84.0371 32.416ZM86.041 39.1133C86.334 39.0547 86.6797 38.8906 87.0781 38.6211C87.4883 38.3516 87.8516 38.0293 88.168 37.6543C88.4844 37.2793 88.6719 36.9219 88.7305 36.582L88.625 36.1602C88.0039 36.0781 87.3418 36.0371 86.6387 36.0371C86.041 36.0371 85.6309 36.084 85.4082 36.1777C85.0332 36.5996 84.8457 37.0684 84.8457 37.584C84.8457 37.959 84.9395 38.2988 85.127 38.6035C85.3262 38.9082 85.6309 39.0781 86.041 39.1133ZM98.6621 33.7871C98.6621 31.7598 99.002 29.9492 99.6816 28.3555C100.361 26.7617 101.41 25.502 102.828 24.5762C104.258 23.6387 106.039 23.1699 108.172 23.1699C108.898 23.1699 109.73 23.2168 110.668 23.3105C111.617 23.3926 112.525 23.5215 113.393 23.6973L113.744 23.9434C114.271 24.3066 114.658 24.5996 114.904 24.8223C115.162 25.0332 115.432 25.332 115.713 25.7188C115.713 26.3516 115.625 27.2246 115.449 28.3379C115.285 29.4395 115.074 30.4648 114.816 31.4141C114.559 32.3633 114.312 32.9727 114.078 33.2422C113.691 33.4414 113.064 33.541 112.197 33.541C111.775 33.541 111.377 33.5117 111.002 33.4531C110.639 33.3828 110.363 33.2949 110.176 33.1895L109.807 29.9375C109.631 29.7383 109.227 29.5801 108.594 29.4629C107.973 29.334 107.398 29.2695 106.871 29.2695C106.707 29.2695 106.555 29.2812 106.414 29.3047C106.145 29.8555 105.939 30.5586 105.799 31.4141C105.658 32.2695 105.588 33.1426 105.588 34.0332C105.588 35.3223 105.799 36.418 106.221 37.3203C106.643 38.2109 107.504 38.6562 108.805 38.6562C109.449 38.6562 110.082 38.5508 110.703 38.3398C111.336 38.1289 112.133 37.8066 113.094 37.373C113.492 37.1855 113.791 37.0508 113.99 36.9688C114.459 37.4375 114.828 37.9297 115.098 38.4453C115.367 38.9609 115.543 39.623 115.625 40.4316C114.875 41.3105 113.82 42.1836 112.461 43.0508C111.113 43.918 109.537 44.3516 107.732 44.3516C105.811 44.3516 104.164 43.8887 102.793 42.9629C101.434 42.0254 100.402 40.7598 99.6992 39.166C99.0078 37.5605 98.6621 35.7676 98.6621 33.7871ZM118.842 32.6445C118.842 27.1602 118.947 23.3984 119.158 21.3594L117.172 21.0078C116.891 19.9297 116.75 18.7695 116.75 17.5273C116.926 17.3047 117.254 17.0293 117.734 16.7012C118.215 16.373 118.771 16.0859 119.404 15.8398C120.049 15.5938 120.688 15.4707 121.32 15.4707C122.891 15.4707 124.109 15.8105 124.977 16.4902C125.855 17.1699 126.295 18.3301 126.295 19.9707C126.295 20.791 126.236 22.0508 126.119 23.75C126.002 25.4375 125.785 27.4883 125.469 29.9023C125.152 32.3164 124.73 34.8359 124.203 37.4609L124.502 37.6367C125.428 36.3594 126.318 34.9531 127.174 33.418C128.029 31.8711 128.709 30.4355 129.213 29.1113L127.701 28.7422C127.561 27.9453 127.49 27.002 127.49 25.9121V25.2793C127.936 24.7168 128.545 24.2246 129.318 23.8027C130.104 23.3809 131.076 23.1699 132.236 23.1699C133.068 23.1699 133.789 23.3281 134.398 23.6445C135.008 23.9492 135.477 24.377 135.805 24.9277C136.133 25.4785 136.297 26.1113 136.297 26.8262C136.297 27.3652 136.215 27.875 136.051 28.3555C135.887 28.8242 135.641 29.3223 135.312 29.8496C134.469 31.1855 132.998 33.084 130.9 35.5449C131.604 36.5293 132.289 37.3848 132.957 38.1113C133.215 37.9824 133.455 37.8125 133.678 37.6016C133.912 37.3906 134.211 37.0859 134.574 36.6875L134.961 36.2832L137.123 37.918C137.041 40.0039 136.59 41.5977 135.77 42.6992C134.961 43.7891 133.889 44.334 132.553 44.334C131.088 44.334 129.986 43.8887 129.248 42.998C128.51 42.1074 127.971 40.8477 127.631 39.2188C126.342 40.6133 125.205 41.7852 124.221 42.7344C123.248 43.6719 122.609 44.2109 122.305 44.3516C121.66 44.3516 121.045 44.2754 120.459 44.123C119.873 43.9707 119.439 43.7305 119.158 43.4023C119.029 41.7383 118.941 40.0918 118.895 38.4629C118.859 36.8223 118.842 34.8828 118.842 32.6445Z" fill="black"/>
</svg>
