<svg width="297" height="45" viewBox="0 0 297 45" fill="none" xmlns="http://www.w3.org/2000/svg">
<rect x="0.5" y="0.5" width="296" height="44" rx="19.5" stroke="black"/>
<path d="M15 16.75V11.75V16.75ZM25 16.75V11.75V16.75ZM13.75 21.75H26.25H13.75ZM11.25 34.25H28.75C29.413 34.25 30.0489 33.9866 30.5178 33.5178C30.9866 33.0489 31.25 32.413 31.25 31.75V16.75C31.25 16.087 30.9866 15.4511 30.5178 14.9822C30.0489 14.5134 29.413 14.25 28.75 14.25H11.25C10.587 14.25 9.95107 14.5134 9.48223 14.9822C9.01339 15.4511 8.75 16.087 8.75 16.75V31.75C8.75 32.413 9.01339 33.0489 9.48223 33.5178C9.95107 33.9866 10.587 34.25 11.25 34.25Z" stroke="black" stroke-width="2" stroke-linecap="round" stroke-linejoin="round"/>
</svg>
