<svg width="420" height="625" viewBox="0 0 420 625" fill="none" xmlns="http://www.w3.org/2000/svg">
<rect x="1.5" y="1.5" width="417" height="622" rx="18.5" fill="#FFDD00"/>
<path d="M87.4091 408V396.364H94.3864V397.614H88.8182V401.545H93.8636V402.795H88.8182V408H87.4091ZM101.571 404.432V399.273H102.912V408H101.571V406.523H101.48C101.276 406.966 100.957 407.343 100.526 407.653C100.094 407.96 99.5483 408.114 98.8892 408.114C98.3438 408.114 97.8589 407.994 97.4347 407.756C97.0104 407.513 96.6771 407.15 96.4347 406.665C96.1922 406.176 96.071 405.561 96.071 404.818V399.273H97.4119V404.727C97.4119 405.364 97.59 405.871 97.946 406.25C98.3059 406.629 98.7642 406.818 99.321 406.818C99.6544 406.818 99.9934 406.733 100.338 406.562C100.687 406.392 100.978 406.131 101.213 405.778C101.452 405.426 101.571 404.977 101.571 404.432ZM106.709 396.364V408H105.368V396.364H106.709ZM110.506 396.364V408H109.165V396.364H110.506ZM114.303 402.75V408H112.962V399.273H114.257V400.636H114.371C114.575 400.193 114.886 399.837 115.303 399.568C115.719 399.295 116.257 399.159 116.916 399.159C117.507 399.159 118.024 399.28 118.467 399.523C118.911 399.761 119.255 400.125 119.501 400.614C119.748 401.098 119.871 401.712 119.871 402.455V408H118.53V402.545C118.53 401.86 118.352 401.326 117.996 400.943C117.64 400.557 117.151 400.364 116.53 400.364C116.102 400.364 115.719 400.456 115.382 400.642C115.049 400.828 114.786 401.098 114.592 401.455C114.399 401.811 114.303 402.242 114.303 402.75ZM124.889 408.205C124.336 408.205 123.834 408.1 123.384 407.892C122.933 407.68 122.575 407.375 122.31 406.977C122.045 406.576 121.912 406.091 121.912 405.523C121.912 405.023 122.01 404.617 122.207 404.307C122.404 403.992 122.668 403.746 122.997 403.568C123.327 403.39 123.69 403.258 124.088 403.17C124.49 403.08 124.893 403.008 125.298 402.955C125.829 402.886 126.259 402.835 126.588 402.801C126.921 402.763 127.164 402.701 127.315 402.614C127.471 402.527 127.548 402.375 127.548 402.159V402.114C127.548 401.553 127.395 401.117 127.088 400.807C126.785 400.496 126.325 400.341 125.707 400.341C125.067 400.341 124.565 400.481 124.202 400.761C123.838 401.042 123.582 401.341 123.435 401.659L122.162 401.205C122.389 400.674 122.692 400.261 123.071 399.966C123.454 399.667 123.87 399.458 124.321 399.341C124.776 399.22 125.223 399.159 125.662 399.159C125.942 399.159 126.264 399.193 126.628 399.261C126.995 399.326 127.349 399.46 127.69 399.665C128.035 399.869 128.321 400.178 128.548 400.591C128.776 401.004 128.889 401.557 128.889 402.25V408H127.548V406.818H127.48C127.389 407.008 127.238 407.21 127.026 407.426C126.813 407.642 126.531 407.826 126.179 407.977C125.827 408.129 125.397 408.205 124.889 408.205ZM125.094 407C125.624 407 126.071 406.896 126.435 406.688C126.802 406.479 127.079 406.21 127.264 405.881C127.454 405.551 127.548 405.205 127.548 404.841V403.614C127.491 403.682 127.366 403.744 127.173 403.801C126.984 403.854 126.764 403.902 126.514 403.943C126.268 403.981 126.027 404.015 125.793 404.045C125.562 404.072 125.374 404.095 125.23 404.114C124.882 404.159 124.556 404.233 124.253 404.335C123.954 404.434 123.711 404.583 123.526 404.784C123.344 404.981 123.253 405.25 123.253 405.591C123.253 406.057 123.425 406.409 123.77 406.648C124.118 406.883 124.56 407 125.094 407ZM131.337 408V399.273H132.632V400.636H132.746C132.928 400.17 133.221 399.809 133.626 399.551C134.032 399.29 134.518 399.159 135.087 399.159C135.662 399.159 136.142 399.29 136.524 399.551C136.911 399.809 137.212 400.17 137.428 400.636H137.518C137.742 400.186 138.077 399.828 138.524 399.562C138.971 399.294 139.507 399.159 140.132 399.159C140.912 399.159 141.551 399.403 142.047 399.892C142.543 400.377 142.791 401.133 142.791 402.159V408H141.45V402.159C141.45 401.515 141.274 401.055 140.922 400.778C140.57 400.502 140.155 400.364 139.678 400.364C139.064 400.364 138.589 400.549 138.251 400.92C137.914 401.288 137.746 401.754 137.746 402.318V408H136.382V402.023C136.382 401.527 136.221 401.127 135.899 400.824C135.577 400.517 135.162 400.364 134.655 400.364C134.306 400.364 133.981 400.456 133.678 400.642C133.378 400.828 133.136 401.085 132.95 401.415C132.768 401.741 132.678 402.117 132.678 402.545V408H131.337ZM148.902 408.182C148.061 408.182 147.336 407.996 146.726 407.625C146.12 407.25 145.652 406.727 145.322 406.057C144.997 405.383 144.834 404.598 144.834 403.705C144.834 402.811 144.997 402.023 145.322 401.341C145.652 400.655 146.11 400.121 146.697 399.739C147.288 399.352 147.978 399.159 148.766 399.159C149.22 399.159 149.669 399.235 150.112 399.386C150.555 399.538 150.959 399.784 151.322 400.125C151.686 400.462 151.976 400.909 152.192 401.466C152.408 402.023 152.516 402.708 152.516 403.523V404.091H145.788V402.932H151.152C151.152 402.439 151.054 402 150.857 401.614C150.663 401.227 150.387 400.922 150.027 400.699C149.671 400.475 149.25 400.364 148.766 400.364C148.232 400.364 147.769 400.496 147.379 400.761C146.993 401.023 146.696 401.364 146.487 401.784C146.279 402.205 146.175 402.655 146.175 403.136V403.909C146.175 404.568 146.288 405.127 146.516 405.585C146.747 406.04 147.067 406.386 147.476 406.625C147.885 406.86 148.36 406.977 148.902 406.977C149.254 406.977 149.572 406.928 149.857 406.83C150.144 406.727 150.393 406.576 150.601 406.375C150.809 406.17 150.97 405.917 151.084 405.614L152.379 405.977C152.243 406.417 152.014 406.803 151.692 407.136C151.37 407.466 150.972 407.723 150.499 407.909C150.025 408.091 149.493 408.182 148.902 408.182ZM155.533 408.091C155.252 408.091 155.012 407.991 154.811 407.79C154.61 407.589 154.51 407.348 154.51 407.068C154.51 406.788 154.61 406.547 154.811 406.347C155.012 406.146 155.252 406.045 155.533 406.045C155.813 406.045 156.054 406.146 156.254 406.347C156.455 406.547 156.555 406.788 156.555 407.068C156.555 407.254 156.508 407.424 156.413 407.58C156.322 407.735 156.199 407.86 156.044 407.955C155.893 408.045 155.722 408.091 155.533 408.091ZM155.533 401.614C155.252 401.614 155.012 401.513 154.811 401.312C154.61 401.112 154.51 400.871 154.51 400.591C154.51 400.311 154.61 400.07 154.811 399.869C155.012 399.669 155.252 399.568 155.533 399.568C155.813 399.568 156.054 399.669 156.254 399.869C156.455 400.07 156.555 400.311 156.555 400.591C156.555 400.777 156.508 400.947 156.413 401.102C156.322 401.258 156.199 401.383 156.044 401.477C155.893 401.568 155.722 401.614 155.533 401.614Z" fill="black"/>
<path d="M282.045 348C281.858 347.426 281.611 346.912 281.304 346.457C281.003 345.997 280.642 345.605 280.222 345.281C279.807 344.957 279.335 344.71 278.807 344.54C278.278 344.369 277.699 344.284 277.068 344.284C276.034 344.284 275.094 344.551 274.247 345.085C273.401 345.619 272.727 346.406 272.227 347.446C271.727 348.486 271.477 349.761 271.477 351.273C271.477 352.784 271.73 354.06 272.236 355.099C272.741 356.139 273.426 356.926 274.29 357.46C275.153 357.994 276.125 358.261 277.205 358.261C278.205 358.261 279.085 358.048 279.847 357.622C280.614 357.19 281.21 356.582 281.636 355.798C282.068 355.009 282.284 354.08 282.284 353.011L282.932 353.148H277.682V351.273H284.33V353.148C284.33 354.585 284.023 355.835 283.409 356.898C282.801 357.96 281.96 358.784 280.886 359.369C279.818 359.949 278.591 360.239 277.205 360.239C275.659 360.239 274.301 359.875 273.131 359.148C271.966 358.42 271.057 357.386 270.403 356.045C269.756 354.705 269.432 353.114 269.432 351.273C269.432 349.892 269.616 348.651 269.986 347.548C270.361 346.44 270.889 345.497 271.571 344.719C272.253 343.94 273.06 343.344 273.991 342.929C274.923 342.514 275.949 342.307 277.068 342.307C277.989 342.307 278.847 342.446 279.642 342.724C280.443 342.997 281.156 343.386 281.781 343.892C282.412 344.392 282.938 344.991 283.358 345.69C283.778 346.384 284.068 347.153 284.227 348H282.045ZM290.063 342.545V360H287.95V342.545H290.063ZM294.301 360V342.545H300.199C301.563 342.545 302.682 342.778 303.557 343.244C304.432 343.705 305.08 344.338 305.5 345.145C305.92 345.952 306.131 346.869 306.131 347.898C306.131 348.926 305.92 349.838 305.5 350.634C305.08 351.429 304.435 352.054 303.565 352.509C302.696 352.957 301.585 353.182 300.233 353.182H295.46V351.273H300.165C301.097 351.273 301.847 351.136 302.415 350.864C302.989 350.591 303.403 350.205 303.659 349.705C303.92 349.199 304.051 348.597 304.051 347.898C304.051 347.199 303.92 346.588 303.659 346.065C303.398 345.543 302.98 345.139 302.406 344.855C301.832 344.565 301.074 344.42 300.131 344.42H296.415V360H294.301ZM302.517 352.159L306.812 360H304.358L300.131 352.159H302.517ZM309.653 360V342.545H311.766V358.125H319.88V360H309.653Z" fill="#FF11D9"/>
<path d="M87.4091 473V461.364H91.4773C92.2879 461.364 92.9564 461.504 93.483 461.784C94.0095 462.061 94.4015 462.434 94.6591 462.903C94.9167 463.369 95.0455 463.886 95.0455 464.455C95.0455 464.955 94.9564 465.367 94.7784 465.693C94.6042 466.019 94.3731 466.277 94.0852 466.466C93.8011 466.655 93.4924 466.795 93.1591 466.886V467C93.5152 467.023 93.8731 467.148 94.233 467.375C94.5928 467.602 94.8939 467.928 95.1364 468.352C95.3788 468.777 95.5 469.295 95.5 469.909C95.5 470.492 95.3674 471.017 95.1023 471.483C94.8371 471.949 94.4186 472.318 93.8466 472.591C93.2746 472.864 92.5303 473 91.6136 473H87.4091ZM88.8182 471.75H91.6136C92.5341 471.75 93.1875 471.572 93.5739 471.216C93.964 470.856 94.1591 470.42 94.1591 469.909C94.1591 469.515 94.0587 469.152 93.858 468.818C93.6572 468.481 93.3712 468.212 93 468.011C92.6288 467.807 92.1894 467.705 91.6818 467.705H88.8182V471.75ZM88.8182 466.477H91.4318C91.8561 466.477 92.2386 466.394 92.5795 466.227C92.9242 466.061 93.197 465.826 93.3977 465.523C93.6023 465.22 93.7045 464.864 93.7045 464.455C93.7045 463.943 93.5265 463.509 93.1705 463.153C92.8144 462.794 92.25 462.614 91.4773 462.614H88.8182V466.477ZM97.6335 473V464.273H98.9744V473H97.6335ZM98.3153 462.818C98.054 462.818 97.8286 462.729 97.6392 462.551C97.4536 462.373 97.3608 462.159 97.3608 461.909C97.3608 461.659 97.4536 461.445 97.6392 461.267C97.8286 461.089 98.054 461 98.3153 461C98.5767 461 98.8002 461.089 98.9858 461.267C99.1752 461.445 99.2699 461.659 99.2699 461.909C99.2699 462.159 99.1752 462.373 98.9858 462.551C98.8002 462.729 98.5767 462.818 98.3153 462.818ZM101.43 473V464.273H102.726V465.591H102.817C102.976 465.159 103.264 464.809 103.68 464.54C104.097 464.271 104.567 464.136 105.089 464.136C105.188 464.136 105.311 464.138 105.459 464.142C105.607 464.146 105.718 464.152 105.794 464.159V465.523C105.749 465.511 105.644 465.494 105.482 465.472C105.322 465.445 105.154 465.432 104.976 465.432C104.552 465.432 104.173 465.521 103.839 465.699C103.51 465.873 103.249 466.116 103.055 466.426C102.866 466.733 102.771 467.083 102.771 467.477V473H101.43ZM111.726 464.273V465.409H107.203V464.273H111.726ZM108.521 462.182H109.862V470.5C109.862 470.879 109.917 471.163 110.027 471.352C110.141 471.538 110.285 471.663 110.459 471.727C110.637 471.788 110.824 471.818 111.021 471.818C111.169 471.818 111.29 471.811 111.385 471.795C111.48 471.777 111.555 471.761 111.612 471.75L111.885 472.955C111.794 472.989 111.667 473.023 111.504 473.057C111.341 473.095 111.135 473.114 110.885 473.114C110.506 473.114 110.135 473.032 109.771 472.869C109.411 472.706 109.112 472.458 108.874 472.125C108.639 471.792 108.521 471.371 108.521 470.864V462.182ZM115.271 467.75V473H113.93V461.364H115.271V465.636H115.385C115.589 465.186 115.896 464.828 116.305 464.562C116.718 464.294 117.268 464.159 117.953 464.159C118.548 464.159 119.069 464.278 119.516 464.517C119.963 464.752 120.309 465.114 120.555 465.602C120.805 466.087 120.93 466.705 120.93 467.455V473H119.589V467.545C119.589 466.852 119.41 466.316 119.05 465.938C118.694 465.555 118.199 465.364 117.567 465.364C117.127 465.364 116.733 465.456 116.385 465.642C116.04 465.828 115.768 466.098 115.567 466.455C115.37 466.811 115.271 467.242 115.271 467.75ZM126.679 473.182C125.952 473.182 125.31 472.998 124.753 472.631C124.196 472.259 123.76 471.737 123.446 471.062C123.132 470.384 122.974 469.583 122.974 468.659C122.974 467.742 123.132 466.947 123.446 466.273C123.76 465.598 124.198 465.078 124.759 464.71C125.319 464.343 125.967 464.159 126.702 464.159C127.27 464.159 127.719 464.254 128.048 464.443C128.382 464.629 128.635 464.841 128.81 465.08C128.988 465.314 129.126 465.508 129.224 465.659H129.338V461.364H130.679V473H129.384V471.659H129.224C129.126 471.818 128.986 472.019 128.804 472.261C128.622 472.5 128.363 472.714 128.026 472.903C127.688 473.089 127.24 473.182 126.679 473.182ZM126.861 471.977C127.399 471.977 127.853 471.837 128.224 471.557C128.596 471.273 128.878 470.881 129.071 470.381C129.264 469.877 129.361 469.295 129.361 468.636C129.361 467.985 129.266 467.415 129.077 466.926C128.887 466.434 128.607 466.051 128.236 465.778C127.865 465.502 127.406 465.364 126.861 465.364C126.293 465.364 125.819 465.509 125.44 465.801C125.065 466.089 124.783 466.481 124.594 466.977C124.408 467.47 124.315 468.023 124.315 468.636C124.315 469.258 124.41 469.822 124.599 470.33C124.793 470.833 125.077 471.235 125.452 471.534C125.83 471.83 126.3 471.977 126.861 471.977ZM135.889 473.205C135.336 473.205 134.834 473.1 134.384 472.892C133.933 472.68 133.575 472.375 133.31 471.977C133.045 471.576 132.912 471.091 132.912 470.523C132.912 470.023 133.01 469.617 133.207 469.307C133.404 468.992 133.668 468.746 133.997 468.568C134.327 468.39 134.69 468.258 135.088 468.17C135.49 468.08 135.893 468.008 136.298 467.955C136.829 467.886 137.259 467.835 137.588 467.801C137.921 467.763 138.164 467.701 138.315 467.614C138.471 467.527 138.548 467.375 138.548 467.159V467.114C138.548 466.553 138.395 466.117 138.088 465.807C137.785 465.496 137.325 465.341 136.707 465.341C136.067 465.341 135.565 465.481 135.202 465.761C134.838 466.042 134.582 466.341 134.435 466.659L133.162 466.205C133.389 465.674 133.692 465.261 134.071 464.966C134.454 464.667 134.87 464.458 135.321 464.341C135.776 464.22 136.223 464.159 136.662 464.159C136.942 464.159 137.264 464.193 137.628 464.261C137.995 464.326 138.349 464.46 138.69 464.665C139.035 464.869 139.321 465.178 139.548 465.591C139.776 466.004 139.889 466.557 139.889 467.25V473H138.548V471.818H138.48C138.389 472.008 138.238 472.21 138.026 472.426C137.813 472.642 137.531 472.826 137.179 472.977C136.827 473.129 136.397 473.205 135.889 473.205ZM136.094 472C136.624 472 137.071 471.896 137.435 471.688C137.802 471.479 138.079 471.21 138.264 470.881C138.454 470.551 138.548 470.205 138.548 469.841V468.614C138.491 468.682 138.366 468.744 138.173 468.801C137.984 468.854 137.764 468.902 137.514 468.943C137.268 468.981 137.027 469.015 136.793 469.045C136.562 469.072 136.374 469.095 136.23 469.114C135.882 469.159 135.556 469.233 135.253 469.335C134.954 469.434 134.711 469.583 134.526 469.784C134.344 469.981 134.253 470.25 134.253 470.591C134.253 471.057 134.425 471.409 134.77 471.648C135.118 471.883 135.56 472 136.094 472ZM146.132 464.273V465.409H141.609V464.273H146.132ZM142.928 462.182H144.268V470.5C144.268 470.879 144.323 471.163 144.433 471.352C144.547 471.538 144.691 471.663 144.865 471.727C145.043 471.788 145.231 471.818 145.428 471.818C145.575 471.818 145.696 471.811 145.791 471.795C145.886 471.777 145.962 471.761 146.018 471.75L146.291 472.955C146.2 472.989 146.073 473.023 145.911 473.057C145.748 473.095 145.541 473.114 145.291 473.114C144.912 473.114 144.541 473.032 144.178 472.869C143.818 472.706 143.518 472.458 143.28 472.125C143.045 471.792 142.928 471.371 142.928 470.864V462.182ZM151.714 473.182C150.874 473.182 150.148 472.996 149.538 472.625C148.932 472.25 148.464 471.727 148.135 471.057C147.809 470.383 147.646 469.598 147.646 468.705C147.646 467.811 147.809 467.023 148.135 466.341C148.464 465.655 148.923 465.121 149.51 464.739C150.101 464.352 150.79 464.159 151.578 464.159C152.033 464.159 152.482 464.235 152.925 464.386C153.368 464.538 153.771 464.784 154.135 465.125C154.499 465.462 154.788 465.909 155.004 466.466C155.22 467.023 155.328 467.708 155.328 468.523V469.091H148.601V467.932H153.964C153.964 467.439 153.866 467 153.669 466.614C153.476 466.227 153.199 465.922 152.839 465.699C152.483 465.475 152.063 465.364 151.578 465.364C151.044 465.364 150.582 465.496 150.192 465.761C149.805 466.023 149.508 466.364 149.3 466.784C149.091 467.205 148.987 467.655 148.987 468.136V468.909C148.987 469.568 149.101 470.127 149.328 470.585C149.559 471.04 149.879 471.386 150.288 471.625C150.697 471.86 151.173 471.977 151.714 471.977C152.067 471.977 152.385 471.928 152.669 471.83C152.957 471.727 153.205 471.576 153.413 471.375C153.622 471.17 153.783 470.917 153.896 470.614L155.192 470.977C155.055 471.417 154.826 471.803 154.504 472.136C154.182 472.466 153.785 472.723 153.311 472.909C152.838 473.091 152.305 473.182 151.714 473.182ZM158.345 473.091C158.065 473.091 157.824 472.991 157.624 472.79C157.423 472.589 157.322 472.348 157.322 472.068C157.322 471.788 157.423 471.547 157.624 471.347C157.824 471.146 158.065 471.045 158.345 471.045C158.625 471.045 158.866 471.146 159.067 471.347C159.268 471.547 159.368 471.788 159.368 472.068C159.368 472.254 159.321 472.424 159.226 472.58C159.135 472.735 159.012 472.86 158.857 472.955C158.705 473.045 158.535 473.091 158.345 473.091ZM158.345 466.614C158.065 466.614 157.824 466.513 157.624 466.312C157.423 466.112 157.322 465.871 157.322 465.591C157.322 465.311 157.423 465.07 157.624 464.869C157.824 464.669 158.065 464.568 158.345 464.568C158.625 464.568 158.866 464.669 159.067 464.869C159.268 465.07 159.368 465.311 159.368 465.591C159.368 465.777 159.321 465.947 159.226 466.102C159.135 466.258 159.012 466.383 158.857 466.477C158.705 466.568 158.535 466.614 158.345 466.614Z" fill="black"/>
<path d="M117.484 41.2812C116.734 38.1875 116.073 35.599 115.5 33.5156C114.927 31.4219 114.469 30.1198 114.125 29.6094L112.562 29.5C112.26 28.7083 112.047 27.7344 111.922 26.5781C112.099 26.0052 112.432 25.5104 112.922 25.0938C113.411 24.6667 113.984 24.3438 114.641 24.125C115.297 23.9062 115.958 23.7969 116.625 23.7969C118.146 23.7969 119.281 24.4948 120.031 25.8906C120.375 26.526 120.667 27.2917 120.906 28.1875C121.146 29.0729 121.37 30.125 121.578 31.3438C121.922 33.3958 122.161 35.2396 122.297 36.875C122.432 38.5 122.542 40.2292 122.625 42.0625L122.688 43.4688H122.922C123.182 42.8958 123.469 41.6615 123.781 39.7656C124.094 37.8698 124.365 35.8646 124.594 33.75C124.823 31.625 124.948 30.0469 124.969 29.0156L123 28.7188C122.854 28.1667 122.76 27.6719 122.719 27.2344C122.677 26.7969 122.656 26.2656 122.656 25.6406C122.875 25.3698 123.24 25.0885 123.75 24.7969C124.26 24.5052 124.854 24.2604 125.531 24.0625C126.208 23.8646 126.88 23.7656 127.547 23.7656C128.443 23.7656 129.25 23.9167 129.969 24.2188C130.698 24.5104 131.276 24.9479 131.703 25.5312C132.141 26.1146 132.365 26.8281 132.375 27.6719V30.0781C132.844 31.901 133.25 34.0417 133.594 36.5C133.948 38.9479 134.208 41.2656 134.375 43.4531H134.547C134.797 42.8698 135.078 41.6302 135.391 39.7344C135.714 37.8281 135.995 35.8229 136.234 33.7188C136.474 31.6042 136.599 30.0365 136.609 29.0156L134.766 28.7188C134.62 28.1667 134.526 27.6719 134.484 27.2344C134.443 26.7969 134.422 26.2656 134.422 25.6406C134.63 25.3698 134.995 25.0885 135.516 24.7969C136.036 24.5052 136.635 24.2604 137.312 24.0625C138 23.8646 138.677 23.7656 139.344 23.7656C140.708 23.7656 141.729 24.1198 142.406 24.8281C143.083 25.5365 143.422 26.6146 143.422 28.0625C143.422 29.4375 143.193 31.2083 142.734 33.375C142.276 35.5417 141.703 37.5781 141.016 39.4844C140.422 41.151 139.839 42.5938 139.266 43.8125C138.693 45.0208 137.984 46.2083 137.141 47.375C136.797 47.7292 136.344 47.974 135.781 48.1094C135.229 48.2448 134.656 48.3125 134.062 48.3125C132.01 48.3125 130.495 47.9167 129.516 47.125L129.938 43.9219L128.922 38.6562C128.682 37.2708 128.526 36.1667 128.453 35.3438L128.25 35.3281L128.203 37.3125C127.859 39.3542 127.438 41.25 126.938 43C126.448 44.7396 125.885 46.1979 125.25 47.375C124.948 47.7188 124.531 47.9583 124 48.0938C123.469 48.2396 122.927 48.3125 122.375 48.3125C120.24 48.3125 118.734 47.9219 117.859 47.1406L118.203 44.2031L117.484 41.2812ZM144.797 38.9219C144.797 37.1198 145.099 35.5104 145.703 34.0938C146.307 32.6771 147.24 31.5573 148.5 30.7344C149.771 29.901 151.354 29.4844 153.25 29.4844C154.24 29.4844 155.229 29.6042 156.219 29.8438C157.208 30.0729 158.047 30.4583 158.734 31C159.37 31.5104 159.828 32.1875 160.109 33.0312C160.401 33.8646 160.547 34.7917 160.547 35.8125C160.547 36.4896 160.49 37.1823 160.375 37.8906C160.25 38.099 160.005 38.375 159.641 38.7188C159.276 39.0521 158.849 39.3802 158.359 39.7031C157.87 40.026 157.396 40.276 156.938 40.4531C156.5 40.4844 156.047 40.5 155.578 40.5C154.755 40.5 153.922 40.4635 153.078 40.3906C152.234 40.3177 151.495 40.2344 150.859 40.1406C150.943 41.026 151.214 41.7969 151.672 42.4531C152.13 43.1094 152.859 43.4375 153.859 43.4375C153.953 43.4375 154.104 43.4271 154.312 43.4062C154.948 43.3438 155.688 43.1771 156.531 42.9062C157.385 42.625 158.234 42.3021 159.078 41.9375C159.474 42.3333 159.766 42.7292 159.953 43.125C160.141 43.5208 160.271 44.0885 160.344 44.8281C160.021 45.2031 159.495 45.6615 158.766 46.2031C158.047 46.7448 157.167 47.2344 156.125 47.6719C155.083 48.099 153.995 48.3125 152.859 48.3125C151.151 48.3125 149.688 47.901 148.469 47.0781C147.26 46.2448 146.344 45.1198 145.719 43.7031C145.104 42.276 144.797 40.6823 144.797 38.9219ZM154.859 35.3281C154.714 35.1719 154.469 35.0521 154.125 34.9688C153.781 34.875 153.422 34.8281 153.047 34.8281C152.745 34.8281 152.438 34.8542 152.125 34.9062C151.823 34.9583 151.641 35.0156 151.578 35.0781C151.224 35.776 151 36.5677 150.906 37.4531L155.078 37.0469L154.859 35.3281ZM162.203 27.5625C162.047 26.9271 161.943 26.401 161.891 25.9844C161.839 25.5573 161.818 25.0677 161.828 24.5156C162.047 24.2344 162.385 23.9531 162.844 23.6719C163.312 23.3802 163.854 23.1354 164.469 22.9375C165.094 22.7396 165.74 22.6406 166.406 22.6406C167.708 22.6406 168.708 22.9688 169.406 23.625C170.104 24.2812 170.453 25.25 170.453 26.5312C170.453 27.4479 170.375 28.9219 170.219 30.9531C170.062 32.9844 169.839 35.1458 169.547 37.4375C169.255 39.7188 168.922 41.7135 168.547 43.4219L168.578 43.4531L170.891 42.4844C171.703 43.1823 172.177 44.1094 172.312 45.2656C172.312 45.3385 172.078 45.6406 171.609 46.1719C171.141 46.6927 170.521 47.1823 169.75 47.6406C168.99 48.0885 168.115 48.3125 167.125 48.3125C166.094 48.3125 165.255 48.026 164.609 47.4531C163.974 46.8802 163.672 45.901 163.703 44.5156L163.734 41.7031C163.745 39.0365 163.771 36.6354 163.812 34.5C163.865 32.3646 163.969 30.1615 164.125 27.8906L162.203 27.5625ZM173.484 38.9219C173.484 37.1198 173.786 35.5104 174.391 34.0938C174.995 32.6771 175.927 31.5573 177.188 30.7344C178.458 29.901 180.042 29.4844 181.938 29.4844C182.583 29.4844 183.323 29.526 184.156 29.6094C185 29.6823 185.807 29.7969 186.578 29.9531L186.891 30.1719C187.359 30.4948 187.703 30.7552 187.922 30.9531C188.151 31.1406 188.391 31.4062 188.641 31.75C188.641 32.3125 188.562 33.0885 188.406 34.0781C188.26 35.0573 188.073 35.9688 187.844 36.8125C187.615 37.6562 187.396 38.1979 187.188 38.4375C186.844 38.6146 186.286 38.7031 185.516 38.7031C185.141 38.7031 184.786 38.6771 184.453 38.625C184.13 38.5625 183.885 38.4844 183.719 38.3906L183.391 35.5C183.234 35.3229 182.875 35.1823 182.312 35.0781C181.76 34.9635 181.25 34.9062 180.781 34.9062C180.635 34.9062 180.5 34.9167 180.375 34.9375C180.135 35.4271 179.953 36.0521 179.828 36.8125C179.703 37.5729 179.641 38.349 179.641 39.1406C179.641 40.2865 179.828 41.2604 180.203 42.0625C180.578 42.8542 181.344 43.25 182.5 43.25C183.073 43.25 183.635 43.1562 184.188 42.9688C184.75 42.7812 185.458 42.4948 186.312 42.1094C186.667 41.9427 186.932 41.8229 187.109 41.75C187.526 42.1667 187.854 42.6042 188.094 43.0625C188.333 43.5208 188.49 44.1094 188.562 44.8281C187.896 45.6094 186.958 46.3854 185.75 47.1562C184.552 47.9271 183.151 48.3125 181.547 48.3125C179.839 48.3125 178.375 47.901 177.156 47.0781C175.948 46.2448 175.031 45.1198 174.406 43.7031C173.792 42.276 173.484 40.6823 173.484 38.9219ZM190.516 38.7656C190.516 36.8802 190.818 35.2448 191.422 33.8594C192.026 32.474 192.953 31.401 194.203 30.6406C195.453 29.8698 197.021 29.4844 198.906 29.4844C200.99 29.4844 202.625 29.875 203.812 30.6562C205 31.4271 205.828 32.5 206.297 33.875C206.776 35.25 207.016 36.9323 207.016 38.9219C207.016 40.724 206.698 42.3333 206.062 43.75C205.438 45.1562 204.49 46.2708 203.219 47.0938C201.958 47.9062 200.411 48.3125 198.578 48.3125C195.745 48.3125 193.693 47.4427 192.422 45.7031C191.151 43.9531 190.516 41.6406 190.516 38.7656ZM199.219 43.7344C199.75 43.7344 200.073 43.6927 200.188 43.6094C200.427 43.1927 200.609 42.6042 200.734 41.8438C200.859 41.0833 200.922 40.2604 200.922 39.375C200.922 38.5625 200.87 37.8021 200.766 37.0938C200.661 36.375 200.516 35.8125 200.328 35.4062C200.214 35.2708 199.984 35.1719 199.641 35.1094C199.297 35.0365 198.922 35 198.516 35C197.984 35 197.62 35.0573 197.422 35.1719C196.901 36.0677 196.641 37.3125 196.641 38.9062C196.641 39.6562 196.698 40.4219 196.812 41.2031C196.927 41.9844 197.073 42.6927 197.25 43.3281C197.375 43.4635 197.63 43.5677 198.016 43.6406C198.401 43.7031 198.802 43.7344 199.219 43.7344ZM210.594 42.5625C210.594 40.8646 210.615 39.5833 210.656 38.7188C210.698 37.8438 210.807 36.5625 210.984 34.875L209.188 34.6406C208.969 33.9635 208.823 33.3594 208.75 32.8281C208.688 32.2969 208.656 31.6094 208.656 30.7656C208.823 30.6198 209.099 30.4479 209.484 30.25C209.88 30.0417 210.344 29.8646 210.875 29.7188C211.417 29.5625 211.964 29.4844 212.516 29.4844C213.776 29.4844 214.667 29.7552 215.188 30.2969C215.719 30.8385 215.984 31.651 215.984 32.7344C215.984 33.3385 215.896 34.1562 215.719 35.1875C215.427 36.8438 215.281 37.7135 215.281 37.7969C215.281 37.849 215.318 37.901 215.391 37.9531C215.464 37.9948 215.542 38.0156 215.625 38.0156C215.719 38.0156 215.781 37.9792 215.812 37.9062C215.802 37.9479 215.922 37.4219 216.172 36.3281C216.474 34.8906 216.781 33.7188 217.094 32.8125C217.417 31.9062 217.927 31.1302 218.625 30.4844C219.323 29.8385 220.271 29.5156 221.469 29.5156C222.948 29.5156 224.016 29.9427 224.672 30.7969C225.328 31.6406 225.656 32.7656 225.656 34.1719C225.656 35.2865 225.469 36.526 225.094 37.8906C225.094 37.9427 225.13 37.9948 225.203 38.0469C225.276 38.0885 225.354 38.1094 225.438 38.1094C225.531 38.1094 225.594 38.0729 225.625 38L225.844 37.125C226.219 35.5833 226.589 34.3021 226.953 33.2812C227.328 32.2604 227.885 31.3802 228.625 30.6406C229.375 29.8906 230.349 29.5156 231.547 29.5156C233.12 29.5156 234.25 30.0208 234.938 31.0312C235.635 32.0417 235.984 33.3125 235.984 34.8438C235.984 35.9271 235.88 37.0156 235.672 38.1094C235.474 39.2031 235.26 40.1198 235.031 40.8594C234.812 41.599 234.542 42.4531 234.219 43.4219L234.25 43.4531L236.562 42.4844C237.375 43.1823 237.849 44.1094 237.984 45.2656C237.984 45.3385 237.75 45.6406 237.281 46.1719C236.812 46.6927 236.193 47.1823 235.422 47.6406C234.661 48.0885 233.786 48.3125 232.797 48.3125C231.807 48.3125 231 48.0469 230.375 47.5156C229.75 46.9844 229.438 46.0781 229.438 44.7969C229.438 43.3698 229.464 41.9062 229.516 40.4062C229.578 38.8958 229.667 37.5417 229.781 36.3438C229.604 36.1979 229.359 36.1198 229.047 36.1094C228.734 36.4115 228.344 37.0729 227.875 38.0938C227.406 39.1042 226.974 40.1875 226.578 41.3438C226.182 42.4896 225.932 43.3854 225.828 44.0312C225.974 45.0521 226.198 46.0625 226.5 47.0625C226.312 47.4167 225.927 47.7135 225.344 47.9531C224.76 48.1927 224.042 48.3125 223.188 48.3125C222.417 48.3125 221.812 48.25 221.375 48.125C220.938 48 220.635 47.8698 220.469 47.7344C220.312 47.599 220.234 47.5104 220.234 47.4688C220.224 47.375 220.198 47.1302 220.156 46.7344C220.115 46.3281 220.073 45.7656 220.031 45.0469C219.99 44.3177 219.969 43.4896 219.969 42.5625C219.969 41.6771 220.036 40.5677 220.172 39.2344C220.182 39.0677 220.214 38.6719 220.266 38.0469C220.318 37.4219 220.344 36.8542 220.344 36.3438C220.167 36.1979 219.922 36.1198 219.609 36.1094C219.432 36.2448 218.938 37.1094 218.125 38.7031C217.312 40.2969 216.771 41.4219 216.5 42.0781C216.479 42.224 216.469 42.3646 216.469 42.5C216.469 43.0208 216.547 43.724 216.703 44.6094C216.859 45.4844 217.052 46.3021 217.281 47.0625C217.094 47.4167 216.708 47.7135 216.125 47.9531C215.542 48.1927 214.823 48.3125 213.969 48.3125C213.198 48.3125 212.578 48.25 212.109 48.125C211.651 48 211.328 47.8698 211.141 47.7344C210.953 47.5885 210.859 47.5 210.859 47.4688C210.849 47.375 210.823 47.1302 210.781 46.7344C210.74 46.3281 210.698 45.7656 210.656 45.0469C210.615 44.3177 210.594 43.4896 210.594 42.5625ZM238.984 38.9219C238.984 37.1198 239.286 35.5104 239.891 34.0938C240.495 32.6771 241.427 31.5573 242.688 30.7344C243.958 29.901 245.542 29.4844 247.438 29.4844C248.427 29.4844 249.417 29.6042 250.406 29.8438C251.396 30.0729 252.234 30.4583 252.922 31C253.557 31.5104 254.016 32.1875 254.297 33.0312C254.589 33.8646 254.734 34.7917 254.734 35.8125C254.734 36.4896 254.677 37.1823 254.562 37.8906C254.438 38.099 254.193 38.375 253.828 38.7188C253.464 39.0521 253.036 39.3802 252.547 39.7031C252.057 40.026 251.583 40.276 251.125 40.4531C250.688 40.4844 250.234 40.5 249.766 40.5C248.943 40.5 248.109 40.4635 247.266 40.3906C246.422 40.3177 245.682 40.2344 245.047 40.1406C245.13 41.026 245.401 41.7969 245.859 42.4531C246.318 43.1094 247.047 43.4375 248.047 43.4375C248.141 43.4375 248.292 43.4271 248.5 43.4062C249.135 43.3438 249.875 43.1771 250.719 42.9062C251.573 42.625 252.422 42.3021 253.266 41.9375C253.661 42.3333 253.953 42.7292 254.141 43.125C254.328 43.5208 254.458 44.0885 254.531 44.8281C254.208 45.2031 253.682 45.6615 252.953 46.2031C252.234 46.7448 251.354 47.2344 250.312 47.6719C249.271 48.099 248.182 48.3125 247.047 48.3125C245.339 48.3125 243.875 47.901 242.656 47.0781C241.448 46.2448 240.531 45.1198 239.906 43.7031C239.292 42.276 238.984 40.6823 238.984 38.9219ZM249.047 35.3281C248.901 35.1719 248.656 35.0521 248.312 34.9688C247.969 34.875 247.609 34.8281 247.234 34.8281C246.932 34.8281 246.625 34.8542 246.312 34.9062C246.01 34.9583 245.828 35.0156 245.766 35.0781C245.411 35.776 245.188 36.5677 245.094 37.4531L249.266 37.0469L249.047 35.3281ZM265.141 39.375C265.141 37.6771 265.167 36.1302 265.219 34.7344L263.516 34.4375C263.38 33.9167 263.286 33.4583 263.234 33.0625C263.182 32.6667 263.156 32.2448 263.156 31.7969L263.188 31.4844C263.219 31.3385 263.234 31.2188 263.234 31.125L265.5 30.625C265.552 29.9792 265.672 29.25 265.859 28.4375C266.047 27.625 266.245 27.026 266.453 26.6406C266.786 26.3906 267.188 26.2031 267.656 26.0781C268.125 25.9531 268.63 25.8906 269.172 25.8906C269.63 25.8906 270.073 25.9375 270.5 26.0312C270.938 26.1146 271.318 26.2292 271.641 26.375C271.672 26.7292 271.688 27.1354 271.688 27.5938C271.688 28.3438 271.651 29.1927 271.578 30.1406L274.328 29.6406C274.714 30.3073 274.906 31.0312 274.906 31.8125C274.906 32.3542 274.839 32.8438 274.703 33.2812C274.578 33.7188 274.401 34.2135 274.172 34.7656C273.484 34.8802 272.542 34.9531 271.344 34.9844C271.198 36.6823 270.875 39.1771 270.375 42.4688L270.297 43L270.328 43.0312L274 41.8906C274.76 42.526 275.224 43.5052 275.391 44.8281C275.391 44.901 275.052 45.2448 274.375 45.8594C273.708 46.4635 272.87 47.026 271.859 47.5469C270.849 48.0573 269.75 48.3125 268.562 48.3125C266.49 48.3125 265.385 47.0469 265.25 44.5156C265.177 43.2344 265.141 41.5208 265.141 39.375ZM276.453 38.7656C276.453 36.8802 276.755 35.2448 277.359 33.8594C277.964 32.474 278.891 31.401 280.141 30.6406C281.391 29.8698 282.958 29.4844 284.844 29.4844C286.927 29.4844 288.562 29.875 289.75 30.6562C290.938 31.4271 291.766 32.5 292.234 33.875C292.714 35.25 292.953 36.9323 292.953 38.9219C292.953 40.724 292.635 42.3333 292 43.75C291.375 45.1562 290.427 46.2708 289.156 47.0938C287.896 47.9062 286.349 48.3125 284.516 48.3125C281.682 48.3125 279.63 47.4427 278.359 45.7031C277.089 43.9531 276.453 41.6406 276.453 38.7656ZM285.156 43.7344C285.688 43.7344 286.01 43.6927 286.125 43.6094C286.365 43.1927 286.547 42.6042 286.672 41.8438C286.797 41.0833 286.859 40.2604 286.859 39.375C286.859 38.5625 286.807 37.8021 286.703 37.0938C286.599 36.375 286.453 35.8125 286.266 35.4062C286.151 35.2708 285.922 35.1719 285.578 35.1094C285.234 35.0365 284.859 35 284.453 35C283.922 35 283.557 35.0573 283.359 35.1719C282.839 36.0677 282.578 37.3125 282.578 38.9062C282.578 39.6562 282.635 40.4219 282.75 41.2031C282.865 41.9844 283.01 42.6927 283.188 43.3281C283.312 43.4635 283.568 43.5677 283.953 43.6406C284.339 43.7031 284.74 43.7344 285.156 43.7344ZM44.8281 78.9219C44.8281 77.1198 45.1302 75.5104 45.7344 74.0938C46.3385 72.6771 47.2708 71.5573 48.5312 70.7344C49.8021 69.901 51.3854 69.4844 53.2812 69.4844C53.9271 69.4844 54.6667 69.526 55.5 69.6094C56.3438 69.6823 57.151 69.7969 57.9219 69.9531L58.2344 70.1719C58.7031 70.4948 59.0469 70.7552 59.2656 70.9531C59.4948 71.1406 59.7344 71.4062 59.9844 71.75C59.9844 72.3125 59.9062 73.0885 59.75 74.0781C59.6042 75.0573 59.4167 75.9688 59.1875 76.8125C58.9583 77.6562 58.7396 78.1979 58.5312 78.4375C58.1875 78.6146 57.6302 78.7031 56.8594 78.7031C56.4844 78.7031 56.1302 78.6771 55.7969 78.625C55.474 78.5625 55.2292 78.4844 55.0625 78.3906L54.7344 75.5C54.5781 75.3229 54.2188 75.1823 53.6562 75.0781C53.1042 74.9635 52.5938 74.9062 52.125 74.9062C51.9792 74.9062 51.8438 74.9167 51.7188 74.9375C51.4792 75.4271 51.2969 76.0521 51.1719 76.8125C51.0469 77.5729 50.9844 78.349 50.9844 79.1406C50.9844 80.2865 51.1719 81.2604 51.5469 82.0625C51.9219 82.8542 52.6875 83.25 53.8438 83.25C54.4167 83.25 54.9792 83.1562 55.5312 82.9688C56.0938 82.7812 56.8021 82.4948 57.6562 82.1094C58.0104 81.9427 58.276 81.8229 58.4531 81.75C58.8698 82.1667 59.1979 82.6042 59.4375 83.0625C59.6771 83.5208 59.8333 84.1094 59.9062 84.8281C59.2396 85.6094 58.3021 86.3854 57.0938 87.1562C55.8958 87.9271 54.4948 88.3125 52.8906 88.3125C51.1823 88.3125 49.7188 87.901 48.5 87.0781C47.2917 86.2448 46.375 85.1198 45.75 83.7031C45.1354 82.276 44.8281 80.6823 44.8281 78.9219ZM61.8594 78.7656C61.8594 76.8802 62.1615 75.2448 62.7656 73.8594C63.3698 72.474 64.2969 71.401 65.5469 70.6406C66.7969 69.8698 68.3646 69.4844 70.25 69.4844C72.3333 69.4844 73.9688 69.875 75.1562 70.6562C76.3438 71.4271 77.1719 72.5 77.6406 73.875C78.1198 75.25 78.3594 76.9323 78.3594 78.9219C78.3594 80.724 78.0417 82.3333 77.4062 83.75C76.7812 85.1562 75.8333 86.2708 74.5625 87.0938C73.3021 87.9062 71.7552 88.3125 69.9219 88.3125C67.0885 88.3125 65.0365 87.4427 63.7656 85.7031C62.4948 83.9531 61.8594 81.6406 61.8594 78.7656ZM70.5625 83.7344C71.0938 83.7344 71.4167 83.6927 71.5312 83.6094C71.7708 83.1927 71.9531 82.6042 72.0781 81.8438C72.2031 81.0833 72.2656 80.2604 72.2656 79.375C72.2656 78.5625 72.2135 77.8021 72.1094 77.0938C72.0052 76.375 71.8594 75.8125 71.6719 75.4062C71.5573 75.2708 71.3281 75.1719 70.9844 75.1094C70.6406 75.0365 70.2656 75 69.8594 75C69.3281 75 68.9635 75.0573 68.7656 75.1719C68.2448 76.0677 67.9844 77.3125 67.9844 78.9062C67.9844 79.6562 68.0417 80.4219 68.1562 81.2031C68.2708 81.9844 68.4167 82.6927 68.5938 83.3281C68.7188 83.4635 68.974 83.5677 69.3594 83.6406C69.7448 83.7031 70.1458 83.7344 70.5625 83.7344ZM81.9531 82.5625C81.9531 80.8646 81.974 79.5833 82.0156 78.7188C82.0573 77.8438 82.1667 76.5625 82.3438 74.875L80.5312 74.6406C80.3125 73.9635 80.1667 73.3594 80.0938 72.8281C80.0312 72.2969 80 71.6094 80 70.7656C80.1667 70.6198 80.4427 70.4479 80.8281 70.25C81.224 70.0417 81.6927 69.8646 82.2344 69.7188C82.776 69.5625 83.3229 69.4844 83.875 69.4844C85.1354 69.4844 86.026 69.7552 86.5469 70.2969C87.0781 70.8385 87.3438 71.651 87.3438 72.7344C87.3438 73.3385 87.2552 74.1562 87.0781 75.1875C86.7865 76.8438 86.6406 77.7135 86.6406 77.7969C86.6406 77.849 86.6771 77.901 86.75 77.9531C86.8229 77.9948 86.901 78.0156 86.9844 78.0156C87.0781 78.0156 87.1406 77.9792 87.1719 77.9062C87.5885 76.25 88.0052 74.8646 88.4219 73.75C88.8385 72.6354 89.4688 71.6458 90.3125 70.7812C91.1562 69.9167 92.25 69.4844 93.5938 69.4844C95.2604 69.4844 96.4583 69.9948 97.1875 71.0156C97.9167 72.026 98.2812 73.3021 98.2812 74.8438C98.2812 76.2188 98.1198 77.5469 97.7969 78.8281C97.474 80.099 97.0729 81.4271 96.5938 82.8125C96.6146 82.7604 96.5417 82.9635 96.375 83.4219L96.4062 83.4531L98.6875 82.5156C99.5 83.2135 99.974 84.1406 100.109 85.2969C100.109 85.3698 99.875 85.6667 99.4062 86.1875C98.9479 86.7083 98.3385 87.1927 97.5781 87.6406C96.8177 88.0885 95.9427 88.3125 94.9531 88.3125C93.9635 88.3125 93.1562 88.0469 92.5312 87.5156C91.9062 86.9844 91.5938 86.0781 91.5938 84.7969C91.5938 83.776 91.6354 82.4115 91.7188 80.7031C91.8021 78.9948 91.8854 77.6198 91.9688 76.5781C91.6979 76.2865 91.3646 76.1302 90.9688 76.1094C90.6042 76.5781 90.0677 77.5156 89.3594 78.9219C88.651 80.3281 88.151 81.3802 87.8594 82.0781C87.8385 82.224 87.8281 82.3646 87.8281 82.5C87.8281 83.0208 87.9062 83.724 88.0625 84.6094C88.2188 85.4844 88.4115 86.3021 88.6406 87.0625C88.4531 87.4167 88.0677 87.7135 87.4844 87.9531C86.901 88.1927 86.1823 88.3125 85.3281 88.3125C84.5573 88.3125 83.9375 88.25 83.4688 88.125C83.0104 88 82.6875 87.8698 82.5 87.7344C82.3125 87.5885 82.2188 87.5 82.2188 87.4688C82.2083 87.375 82.1823 87.1302 82.1406 86.7344C82.099 86.3281 82.0573 85.7656 82.0156 85.0469C81.974 84.3177 81.9531 83.4896 81.9531 82.5625ZM102.797 82.4844C103.714 82.849 104.448 83.1302 105 83.3281C105.552 83.526 106.156 83.6979 106.812 83.8438C107.479 83.9896 108.141 84.0625 108.797 84.0625C109.089 84.0625 109.297 84.0365 109.422 83.9844C109.453 83.9427 109.479 83.8802 109.5 83.7969C109.531 83.7031 109.547 83.6094 109.547 83.5156C109.547 83.3073 109.427 83.1354 109.188 83C108.812 82.7917 108.146 82.4635 107.188 82.0156C105.875 81.3906 104.833 80.8333 104.062 80.3438C103.302 79.8542 102.656 79.2031 102.125 78.3906C101.604 77.5781 101.344 76.5573 101.344 75.3281C101.344 73.5677 101.87 72.1562 102.922 71.0938C103.974 70.0208 105.641 69.4844 107.922 69.4844C110.641 69.4844 112.755 69.8385 114.266 70.5469C114.339 70.849 114.375 71.2292 114.375 71.6875C114.375 72.5625 114.24 73.4583 113.969 74.375C113.698 75.2812 113.344 75.9531 112.906 76.3906C112.312 76.1927 111.474 75.875 110.391 75.4375C109.599 75.125 108.969 74.8854 108.5 74.7188C108.042 74.5417 107.62 74.4167 107.234 74.3438C107.026 74.3958 106.859 74.5208 106.734 74.7188C106.609 74.9062 106.547 75.1302 106.547 75.3906C106.547 75.6198 106.615 75.8125 106.75 75.9688C106.885 76.125 107.036 76.25 107.203 76.3438C107.38 76.4271 107.63 76.5417 107.953 76.6875C108.12 76.7604 108.276 76.8281 108.422 76.8906C108.568 76.9427 108.703 76.9948 108.828 77.0469C109.641 77.3906 110.281 77.6719 110.75 77.8906C111.219 78.1094 111.672 78.3698 112.109 78.6719C112.911 79.224 113.542 79.8542 114 80.5625C114.458 81.2708 114.688 82.0469 114.688 82.8906C114.688 84.0573 114.354 85.0677 113.688 85.9219C113.031 86.7656 112.188 87.3802 111.156 87.7656C110.615 87.9635 110.021 88.1042 109.375 88.1875C108.74 88.2812 107.995 88.3281 107.141 88.3281C106.13 88.3281 105.089 88.1354 104.016 87.75C102.953 87.3542 102.141 86.6979 101.578 85.7812C101.589 85.1458 101.672 84.5938 101.828 84.125C101.995 83.6458 102.318 83.099 102.797 82.4844ZM116.281 74.5312C116.104 73.7708 115.99 73.2135 115.938 72.8594C115.885 72.5052 115.859 71.9688 115.859 71.25C116.474 70.6667 117.135 70.2292 117.844 69.9375C118.552 69.6354 119.349 69.4844 120.234 69.4844C122.922 69.4844 124.266 70.8333 124.266 73.5312C124.266 74.25 124.198 75.0833 124.062 76.0312C123.938 76.9792 123.755 78.1719 123.516 79.6094C123.484 79.7969 123.401 80.3021 123.266 81.125C123.13 81.9479 123.036 82.6354 122.984 83.1875C123.161 83.375 123.38 83.5052 123.641 83.5781C123.766 83.5781 124.052 83.3229 124.5 82.8125C124.958 82.2917 125.448 81.6615 125.969 80.9219C126.49 80.1823 126.917 79.5 127.25 78.875C127.333 77.3854 127.448 76.0156 127.594 74.7656L125.953 74.4375C125.818 73.9167 125.724 73.4583 125.672 73.0625C125.62 72.6667 125.594 72.2448 125.594 71.7969L125.609 71.3594C125.984 70.8802 126.547 70.4479 127.297 70.0625C128.047 69.6771 128.906 69.4844 129.875 69.4844C132.562 69.4844 133.906 70.8333 133.906 73.5312C133.906 74.625 133.724 76.0677 133.359 77.8594C132.995 79.6406 132.568 81.4427 132.078 83.2656L133.875 82.4844C134.177 82.8073 134.443 83.2031 134.672 83.6719C134.911 84.1302 135.062 84.6615 135.125 85.2656C134.979 85.5781 134.661 85.9792 134.172 86.4688C133.682 86.9479 133.083 87.375 132.375 87.75C131.667 88.125 130.927 88.3125 130.156 88.3125C129.292 88.3125 128.625 88.0573 128.156 87.5469C127.698 87.026 127.469 86.3646 127.469 85.5625C127.469 85.3542 127.521 84.9271 127.625 84.2812C127.74 83.6354 127.833 83.1875 127.906 82.9375L127.469 82.7969C126.948 84.6198 126.229 85.9948 125.312 86.9219C124.406 87.849 123.37 88.3125 122.203 88.3125C120.526 88.3125 119.344 87.7604 118.656 86.6562C117.969 85.5417 117.625 84.1615 117.625 82.5156C117.625 79.4219 117.729 76.8385 117.938 74.7656L116.281 74.5312ZM136.016 67.5625C135.859 66.9271 135.755 66.401 135.703 65.9844C135.651 65.5573 135.63 65.0677 135.641 64.5156C135.859 64.2344 136.198 63.9531 136.656 63.6719C137.125 63.3802 137.667 63.1354 138.281 62.9375C138.906 62.7396 139.552 62.6406 140.219 62.6406C141.521 62.6406 142.521 62.9688 143.219 63.625C143.917 64.2812 144.266 65.25 144.266 66.5312C144.266 67.4479 144.188 68.9219 144.031 70.9531C143.875 72.9844 143.651 75.1458 143.359 77.4375C143.068 79.7188 142.734 81.7135 142.359 83.4219L142.391 83.4531L144.703 82.4844C145.516 83.1823 145.99 84.1094 146.125 85.2656C146.125 85.3385 145.891 85.6406 145.422 86.1719C144.953 86.6927 144.333 87.1823 143.562 87.6406C142.802 88.0885 141.927 88.3125 140.938 88.3125C139.906 88.3125 139.068 88.026 138.422 87.4531C137.786 86.8802 137.484 85.901 137.516 84.5156L137.547 81.7031C137.557 79.0365 137.583 76.6354 137.625 74.5C137.677 72.3646 137.781 70.1615 137.938 67.8906L136.016 67.5625ZM148.672 79.375C148.672 77.6771 148.698 76.1302 148.75 74.7344L147.047 74.4375C146.911 73.9167 146.818 73.4583 146.766 73.0625C146.714 72.6667 146.688 72.2448 146.688 71.7969L146.719 71.4844C146.75 71.3385 146.766 71.2188 146.766 71.125L149.031 70.625C149.083 69.9792 149.203 69.25 149.391 68.4375C149.578 67.625 149.776 67.026 149.984 66.6406C150.318 66.3906 150.719 66.2031 151.188 66.0781C151.656 65.9531 152.161 65.8906 152.703 65.8906C153.161 65.8906 153.604 65.9375 154.031 66.0312C154.469 66.1146 154.849 66.2292 155.172 66.375C155.203 66.7292 155.219 67.1354 155.219 67.5938C155.219 68.3438 155.182 69.1927 155.109 70.1406L157.859 69.6406C158.245 70.3073 158.438 71.0312 158.438 71.8125C158.438 72.3542 158.37 72.8438 158.234 73.2812C158.109 73.7188 157.932 74.2135 157.703 74.7656C157.016 74.8802 156.073 74.9531 154.875 74.9844C154.729 76.6823 154.406 79.1771 153.906 82.4688L153.828 83L153.859 83.0312L157.531 81.8906C158.292 82.526 158.755 83.5052 158.922 84.8281C158.922 84.901 158.583 85.2448 157.906 85.8594C157.24 86.4635 156.401 87.026 155.391 87.5469C154.38 88.0573 153.281 88.3125 152.094 88.3125C150.021 88.3125 148.917 87.0469 148.781 84.5156C148.708 83.2344 148.672 81.5208 148.672 79.375ZM165.016 77.7031C165.63 77.7031 166.307 77.7656 167.047 77.8906C167.797 78.0156 168.484 78.1667 169.109 78.3438V77.8594C169.109 77.5365 169.099 77.1771 169.078 76.7812C169.068 76.3854 169.047 76.125 169.016 76C168.922 75.8229 168.651 75.6406 168.203 75.4531C167.766 75.2656 167.047 75.1719 166.047 75.1719C165.432 75.1719 164.797 75.25 164.141 75.4062C163.495 75.5521 162.776 75.75 161.984 76C161.557 75.2917 161.214 74.6198 160.953 73.9844C160.703 73.3385 160.578 72.6927 160.578 72.0469C160.578 71.849 160.594 71.651 160.625 71.4531C162.312 70.1406 164.495 69.4844 167.172 69.4844C168.651 69.4844 169.964 69.651 171.109 69.9844C172.255 70.3177 173.198 70.9635 173.938 71.9219C174.677 72.8802 175.047 74.2396 175.047 76C175.047 77.7188 174.844 79.3854 174.438 81C174.042 82.6042 173.839 83.4219 173.828 83.4531L176.094 82.4844C176.396 82.8073 176.661 83.2031 176.891 83.6719C177.13 84.1302 177.281 84.6615 177.344 85.2656C177.198 85.5781 176.88 85.9792 176.391 86.4688C175.901 86.9479 175.302 87.375 174.594 87.75C173.885 88.125 173.146 88.3125 172.375 88.3125C171.51 88.3125 170.854 88.0573 170.406 87.5469C169.969 87.0365 169.75 86.375 169.75 85.5625C169.75 85.1042 169.818 84.6406 169.953 84.1719L169.484 84.0312C169.193 85.6771 168.573 86.8021 167.625 87.4062C166.677 88.0104 165.63 88.3125 164.484 88.3125C163.734 88.3125 163.01 88.1042 162.312 87.6875C161.615 87.2604 161.047 86.6458 160.609 85.8438C160.172 85.0312 159.953 84.0833 159.953 83C159.953 81.2708 160.385 79.9583 161.25 79.0625C162.115 78.1562 163.37 77.7031 165.016 77.7031ZM166.797 83.6562C167.057 83.6042 167.365 83.4583 167.719 83.2188C168.083 82.9792 168.406 82.6927 168.688 82.3594C168.969 82.026 169.135 81.7083 169.188 81.4062L169.094 81.0312C168.542 80.9583 167.953 80.9219 167.328 80.9219C166.797 80.9219 166.432 80.9635 166.234 81.0469C165.901 81.4219 165.734 81.8385 165.734 82.2969C165.734 82.6302 165.818 82.9323 165.984 83.2031C166.161 83.474 166.432 83.625 166.797 83.6562ZM179.391 79.375C179.391 77.6771 179.417 76.1302 179.469 74.7344L177.766 74.4375C177.63 73.9167 177.536 73.4583 177.484 73.0625C177.432 72.6667 177.406 72.2448 177.406 71.7969L177.438 71.4844C177.469 71.3385 177.484 71.2188 177.484 71.125L179.75 70.625C179.802 69.9792 179.922 69.25 180.109 68.4375C180.297 67.625 180.495 67.026 180.703 66.6406C181.036 66.3906 181.438 66.2031 181.906 66.0781C182.375 65.9531 182.88 65.8906 183.422 65.8906C183.88 65.8906 184.323 65.9375 184.75 66.0312C185.188 66.1146 185.568 66.2292 185.891 66.375C185.922 66.7292 185.938 67.1354 185.938 67.5938C185.938 68.3438 185.901 69.1927 185.828 70.1406L188.578 69.6406C188.964 70.3073 189.156 71.0312 189.156 71.8125C189.156 72.3542 189.089 72.8438 188.953 73.2812C188.828 73.7188 188.651 74.2135 188.422 74.7656C187.734 74.8802 186.792 74.9531 185.594 74.9844C185.448 76.6823 185.125 79.1771 184.625 82.4688L184.547 83L184.578 83.0312L188.25 81.8906C189.01 82.526 189.474 83.5052 189.641 84.8281C189.641 84.901 189.302 85.2448 188.625 85.8594C187.958 86.4635 187.12 87.026 186.109 87.5469C185.099 88.0573 184 88.3125 182.812 88.3125C180.74 88.3125 179.635 87.0469 179.5 84.5156C179.427 83.2344 179.391 81.5208 179.391 79.375ZM191.422 65.5781C191.422 64.6615 191.719 63.9167 192.312 63.3438C192.917 62.7708 193.875 62.4844 195.188 62.4844C196.5 62.4844 197.453 62.7708 198.047 63.3438C198.651 63.9167 198.953 64.6615 198.953 65.5781C198.953 66.099 198.771 66.5781 198.406 67.0156C198.052 67.4531 197.583 67.8021 197 68.0625C196.417 68.3125 195.812 68.4375 195.188 68.4375C194.51 68.4375 193.88 68.2917 193.297 68C192.724 67.6979 192.266 67.3229 191.922 66.875C191.589 66.4271 191.422 65.9948 191.422 65.5781ZM190.656 74.5156C190.521 74.0052 190.427 73.5417 190.375 73.125C190.323 72.6979 190.297 72.2552 190.297 71.7969L190.312 71.3594C190.531 71.0781 190.87 70.7969 191.328 70.5156C191.797 70.224 192.339 69.9792 192.953 69.7812C193.578 69.5833 194.224 69.4844 194.891 69.4844C196.349 69.4844 197.385 69.8125 198 70.4688C198.615 71.125 198.922 72.1458 198.922 73.5312C198.922 74.3646 198.802 75.4531 198.562 76.7969C198.333 78.1406 198.052 79.4479 197.719 80.7188C197.396 81.9792 197.115 82.8802 196.875 83.4219L196.906 83.4531L199.219 82.6094C199.635 82.9635 199.948 83.3542 200.156 83.7812C200.375 84.2083 200.516 84.7031 200.578 85.2656C200.578 85.3385 200.349 85.6406 199.891 86.1719C199.432 86.6927 198.823 87.1823 198.062 87.6406C197.312 88.0885 196.443 88.3125 195.453 88.3125C194.453 88.3125 193.641 88.0417 193.016 87.5C192.401 86.9583 192.094 86.0312 192.094 84.7188C192.094 83.1875 192.135 81.5625 192.219 79.8438C192.302 78.125 192.432 76.4583 192.609 74.8438L190.656 74.5156ZM201.891 78.7656C201.891 76.8802 202.193 75.2448 202.797 73.8594C203.401 72.474 204.328 71.401 205.578 70.6406C206.828 69.8698 208.396 69.4844 210.281 69.4844C212.365 69.4844 214 69.875 215.188 70.6562C216.375 71.4271 217.203 72.5 217.672 73.875C218.151 75.25 218.391 76.9323 218.391 78.9219C218.391 80.724 218.073 82.3333 217.438 83.75C216.812 85.1562 215.865 86.2708 214.594 87.0938C213.333 87.9062 211.786 88.3125 209.953 88.3125C207.12 88.3125 205.068 87.4427 203.797 85.7031C202.526 83.9531 201.891 81.6406 201.891 78.7656ZM210.594 83.7344C211.125 83.7344 211.448 83.6927 211.562 83.6094C211.802 83.1927 211.984 82.6042 212.109 81.8438C212.234 81.0833 212.297 80.2604 212.297 79.375C212.297 78.5625 212.245 77.8021 212.141 77.0938C212.036 76.375 211.891 75.8125 211.703 75.4062C211.589 75.2708 211.359 75.1719 211.016 75.1094C210.672 75.0365 210.297 75 209.891 75C209.359 75 208.995 75.0573 208.797 75.1719C208.276 76.0677 208.016 77.3125 208.016 78.9062C208.016 79.6562 208.073 80.4219 208.188 81.2031C208.302 81.9844 208.448 82.6927 208.625 83.3281C208.75 83.4635 209.005 83.5677 209.391 83.6406C209.776 83.7031 210.177 83.7344 210.594 83.7344ZM221.984 82.5625C221.984 80.8646 222.005 79.5833 222.047 78.7188C222.089 77.8438 222.198 76.5625 222.375 74.875L220.562 74.6406C220.344 73.9635 220.198 73.3594 220.125 72.8281C220.062 72.2969 220.031 71.6094 220.031 70.7656C220.198 70.6198 220.474 70.4479 220.859 70.25C221.255 70.0417 221.724 69.8646 222.266 69.7188C222.807 69.5625 223.354 69.4844 223.906 69.4844C225.167 69.4844 226.057 69.7552 226.578 70.2969C227.109 70.8385 227.375 71.651 227.375 72.7344C227.375 73.3385 227.286 74.1562 227.109 75.1875C226.818 76.8438 226.672 77.7135 226.672 77.7969C226.672 77.849 226.708 77.901 226.781 77.9531C226.854 77.9948 226.932 78.0156 227.016 78.0156C227.109 78.0156 227.172 77.9792 227.203 77.9062C227.62 76.25 228.036 74.8646 228.453 73.75C228.87 72.6354 229.5 71.6458 230.344 70.7812C231.188 69.9167 232.281 69.4844 233.625 69.4844C235.292 69.4844 236.49 69.9948 237.219 71.0156C237.948 72.026 238.312 73.3021 238.312 74.8438C238.312 76.2188 238.151 77.5469 237.828 78.8281C237.505 80.099 237.104 81.4271 236.625 82.8125C236.646 82.7604 236.573 82.9635 236.406 83.4219L236.438 83.4531L238.719 82.5156C239.531 83.2135 240.005 84.1406 240.141 85.2969C240.141 85.3698 239.906 85.6667 239.438 86.1875C238.979 86.7083 238.37 87.1927 237.609 87.6406C236.849 88.0885 235.974 88.3125 234.984 88.3125C233.995 88.3125 233.188 88.0469 232.562 87.5156C231.938 86.9844 231.625 86.0781 231.625 84.7969C231.625 83.776 231.667 82.4115 231.75 80.7031C231.833 78.9948 231.917 77.6198 232 76.5781C231.729 76.2865 231.396 76.1302 231 76.1094C230.635 76.5781 230.099 77.5156 229.391 78.9219C228.682 80.3281 228.182 81.3802 227.891 82.0781C227.87 82.224 227.859 82.3646 227.859 82.5C227.859 83.0208 227.938 83.724 228.094 84.6094C228.25 85.4844 228.443 86.3021 228.672 87.0625C228.484 87.4167 228.099 87.7135 227.516 87.9531C226.932 88.1927 226.214 88.3125 225.359 88.3125C224.589 88.3125 223.969 88.25 223.5 88.125C223.042 88 222.719 87.8698 222.531 87.7344C222.344 87.5885 222.25 87.5 222.25 87.4688C222.24 87.375 222.214 87.1302 222.172 86.7344C222.13 86.3281 222.089 85.7656 222.047 85.0469C222.005 84.3177 221.984 83.4896 221.984 82.5625ZM250.922 90.2656C250.995 90.0469 251.047 89.7656 251.078 89.4219C251.12 89.0885 251.13 88.7604 251.109 88.4375C251.078 87.6979 251.021 86.6823 250.938 85.3906C250.833 83.6406 250.755 82.1927 250.703 81.0469C250.651 79.901 250.625 78.8125 250.625 77.7812C250.625 77.4271 250.635 76.9479 250.656 76.3438L250.672 75.9688L248.594 75.6875C248.448 75.2083 248.349 74.7396 248.297 74.2812C248.255 73.8229 248.24 73.2656 248.25 72.6094C248.917 72.2552 249.833 71.9375 251 71.6562L251.062 71.4062C250.365 70.7812 249.812 70.099 249.406 69.3594C249 68.6198 248.797 67.8438 248.797 67.0312C248.797 66.0938 249.057 65.2969 249.578 64.6406C250.099 63.974 250.828 63.474 251.766 63.1406C252.714 62.8073 253.823 62.6406 255.094 62.6406C255.844 62.6406 256.594 62.6823 257.344 62.7656C258.104 62.8385 259.021 63.026 260.094 63.3281C260.24 63.7656 260.312 64.276 260.312 64.8594C260.312 65.5156 260.229 66.1979 260.062 66.9062C259.906 67.6042 259.688 68.2083 259.406 68.7188C258.396 68.3958 257.583 68.151 256.969 67.9844C256.365 67.8177 255.698 67.6823 254.969 67.5781C254.812 67.6094 254.667 67.6927 254.531 67.8281C254.406 67.9531 254.333 68.0729 254.312 68.1875C254.406 68.6667 254.604 69.224 254.906 69.8594C255.219 70.4948 255.568 71.0729 255.953 71.5938L260.297 70.7969C260.661 71.3385 260.844 72.1146 260.844 73.125C260.844 73.7396 260.776 74.3281 260.641 74.8906C260.516 75.4531 260.359 75.8385 260.172 76.0469C260.036 76.0573 259.839 76.0625 259.578 76.0625C258.568 76.0625 257.646 75.9375 256.812 75.6875C256.771 76.9167 256.734 77.7917 256.703 78.3125C256.693 78.7083 256.667 79.375 256.625 80.3125L256.531 82.8906C256.479 84.3802 256.427 85.6094 256.375 86.5781C256.323 87.5469 256.245 88.474 256.141 89.3594C256.047 90.2031 255.917 90.9219 255.75 91.5156C255.594 92.1198 255.349 92.6458 255.016 93.0938C254.193 94.1979 252.839 94.75 250.953 94.75C250.203 94.75 249.453 94.6042 248.703 94.3125C247.964 94.0312 247.391 93.5729 246.984 92.9375C246.964 92.3125 247.057 91.6823 247.266 91.0469C247.464 90.4219 247.766 89.8854 248.172 89.4375L250.922 90.2656ZM262.266 78.7656C262.266 76.8802 262.568 75.2448 263.172 73.8594C263.776 72.474 264.703 71.401 265.953 70.6406C267.203 69.8698 268.771 69.4844 270.656 69.4844C272.74 69.4844 274.375 69.875 275.562 70.6562C276.75 71.4271 277.578 72.5 278.047 73.875C278.526 75.25 278.766 76.9323 278.766 78.9219C278.766 80.724 278.448 82.3333 277.812 83.75C277.188 85.1562 276.24 86.2708 274.969 87.0938C273.708 87.9062 272.161 88.3125 270.328 88.3125C267.495 88.3125 265.443 87.4427 264.172 85.7031C262.901 83.9531 262.266 81.6406 262.266 78.7656ZM270.969 83.7344C271.5 83.7344 271.823 83.6927 271.938 83.6094C272.177 83.1927 272.359 82.6042 272.484 81.8438C272.609 81.0833 272.672 80.2604 272.672 79.375C272.672 78.5625 272.62 77.8021 272.516 77.0938C272.411 76.375 272.266 75.8125 272.078 75.4062C271.964 75.2708 271.734 75.1719 271.391 75.1094C271.047 75.0365 270.672 75 270.266 75C269.734 75 269.37 75.0573 269.172 75.1719C268.651 76.0677 268.391 77.3125 268.391 78.9062C268.391 79.6562 268.448 80.4219 268.562 81.2031C268.677 81.9844 268.823 82.6927 269 83.3281C269.125 83.4635 269.38 83.5677 269.766 83.6406C270.151 83.7031 270.552 83.7344 270.969 83.7344ZM282.453 83.8125C282.453 83.3646 282.464 82.2656 282.484 80.5156C282.516 77.0781 282.531 75.1979 282.531 74.875L281.094 74.6406C280.896 74.0469 280.755 73.4896 280.672 72.9688C280.589 72.4479 280.547 71.9219 280.547 71.3906C280.547 71.1719 280.552 71.0052 280.562 70.8906C280.74 70.7344 281.016 70.5469 281.391 70.3281C281.766 70.1094 282.208 69.9167 282.719 69.75C283.229 69.5729 283.75 69.4844 284.281 69.4844C285.521 69.4844 286.417 69.7604 286.969 70.3125C287.531 70.8646 287.812 71.6719 287.812 72.7344C287.812 73.3802 287.729 74.2083 287.562 75.2188C287.406 76.2188 287.245 76.9323 287.078 77.3594L287.641 77.4531L288.578 73.9219C288.995 72.3281 289.516 71.1927 290.141 70.5156C290.766 69.8281 291.469 69.4844 292.25 69.4844C292.76 69.4844 293.266 69.5625 293.766 69.7188C294.276 69.875 294.667 70.0677 294.938 70.2969C295.229 70.9427 295.375 71.8021 295.375 72.875C295.375 73.625 295.302 74.3698 295.156 75.1094C295.01 75.8385 294.823 76.4271 294.594 76.875L291.312 76.4375C290.646 77.1458 289.938 78.1302 289.188 79.3906C288.438 80.6406 287.839 81.7917 287.391 82.8438L287.375 83.6562L290.406 82.9375C290.917 83.7188 291.214 84.6458 291.297 85.7188C291.297 85.7812 291.062 86.0365 290.594 86.4844C290.125 86.9323 289.505 87.349 288.734 87.7344C287.974 88.1094 287.099 88.2969 286.109 88.2969C285.089 88.2969 284.234 88.026 283.547 87.4844C282.87 86.9323 282.51 86.0052 282.469 84.7031C282.458 84.5469 282.453 84.25 282.453 83.8125ZM303.188 75.3906C302.875 74.4948 302.719 73.4375 302.719 72.2188C303 71.4375 303.464 70.7812 304.109 70.25C304.755 69.7188 305.568 69.4531 306.547 69.4531C307.172 69.4531 307.714 69.5833 308.172 69.8438C308.63 70.0938 309.047 70.4792 309.422 71C309.995 71.8125 310.438 72.9375 310.75 74.375C311.021 75.6354 311.245 77.1094 311.422 78.7969C311.609 80.474 311.703 82.0573 311.703 83.5469L312.312 83.5625C312.74 82.125 313.083 80.7552 313.344 79.4531C313.604 78.151 313.797 76.599 313.922 74.7969L312.078 74.4375C311.922 73.875 311.812 73.3906 311.75 72.9844C311.688 72.5677 311.656 72.125 311.656 71.6562C311.656 71.3854 311.865 71.0781 312.281 70.7344C312.698 70.3802 313.234 70.0833 313.891 69.8438C314.557 69.6042 315.245 69.4844 315.953 69.4844C318.63 69.4844 319.969 70.8333 319.969 73.5312C319.969 74.3958 319.781 75.3438 319.406 76.375C320.01 78.4583 320.458 80.8542 320.75 83.5625L321.031 83.5781C321.458 82.5781 321.844 81.224 322.188 79.5156C322.542 77.7969 322.719 76.2083 322.719 74.75L321.188 74.4531C321.031 73.8906 320.922 73.4062 320.859 73C320.797 72.5833 320.766 72.1406 320.766 71.6719C320.766 71.401 320.948 71.0938 321.312 70.75C321.688 70.3958 322.182 70.099 322.797 69.8594C323.411 69.6094 324.062 69.4844 324.75 69.4844C327.49 69.4844 328.859 70.9167 328.859 73.7812C328.859 75.5417 328.531 77.3698 327.875 79.2656C327.219 81.1615 326.422 82.8906 325.484 84.4531C324.547 86.0156 323.661 87.2292 322.828 88.0938C322.307 88.2396 321.745 88.3125 321.141 88.3125C320.422 88.3125 319.724 88.2135 319.047 88.0156C318.38 87.8281 317.839 87.5521 317.422 87.1875C317.349 86.9375 317.219 86.25 317.031 85.125C316.76 83.5417 316.552 82.401 316.406 81.7031H316.094C315.521 84.2031 314.677 86.2969 313.562 87.9844C312.99 88.2031 312.255 88.3125 311.359 88.3125C310.599 88.3125 309.875 88.2292 309.188 88.0625C308.5 87.9062 307.984 87.6719 307.641 87.3594C307.505 86.401 307.234 85.099 306.828 83.4531C306.422 81.8073 305.974 80.2396 305.484 78.75C305.005 77.2604 304.583 76.2083 304.219 75.5938L303.188 75.3906ZM335.422 77.7031C336.036 77.7031 336.714 77.7656 337.453 77.8906C338.203 78.0156 338.891 78.1667 339.516 78.3438V77.8594C339.516 77.5365 339.505 77.1771 339.484 76.7812C339.474 76.3854 339.453 76.125 339.422 76C339.328 75.8229 339.057 75.6406 338.609 75.4531C338.172 75.2656 337.453 75.1719 336.453 75.1719C335.839 75.1719 335.203 75.25 334.547 75.4062C333.901 75.5521 333.182 75.75 332.391 76C331.964 75.2917 331.62 74.6198 331.359 73.9844C331.109 73.3385 330.984 72.6927 330.984 72.0469C330.984 71.849 331 71.651 331.031 71.4531C332.719 70.1406 334.901 69.4844 337.578 69.4844C339.057 69.4844 340.37 69.651 341.516 69.9844C342.661 70.3177 343.604 70.9635 344.344 71.9219C345.083 72.8802 345.453 74.2396 345.453 76C345.453 77.7188 345.25 79.3854 344.844 81C344.448 82.6042 344.245 83.4219 344.234 83.4531L346.5 82.4844C346.802 82.8073 347.068 83.2031 347.297 83.6719C347.536 84.1302 347.688 84.6615 347.75 85.2656C347.604 85.5781 347.286 85.9792 346.797 86.4688C346.307 86.9479 345.708 87.375 345 87.75C344.292 88.125 343.552 88.3125 342.781 88.3125C341.917 88.3125 341.26 88.0573 340.812 87.5469C340.375 87.0365 340.156 86.375 340.156 85.5625C340.156 85.1042 340.224 84.6406 340.359 84.1719L339.891 84.0312C339.599 85.6771 338.979 86.8021 338.031 87.4062C337.083 88.0104 336.036 88.3125 334.891 88.3125C334.141 88.3125 333.417 88.1042 332.719 87.6875C332.021 87.2604 331.453 86.6458 331.016 85.8438C330.578 85.0312 330.359 84.0833 330.359 83C330.359 81.2708 330.792 79.9583 331.656 79.0625C332.521 78.1562 333.776 77.7031 335.422 77.7031ZM337.203 83.6562C337.464 83.6042 337.771 83.4583 338.125 83.2188C338.49 82.9792 338.812 82.6927 339.094 82.3594C339.375 82.026 339.542 81.7083 339.594 81.4062L339.5 81.0312C338.948 80.9583 338.359 80.9219 337.734 80.9219C337.203 80.9219 336.839 80.9635 336.641 81.0469C336.307 81.4219 336.141 81.8385 336.141 82.2969C336.141 82.6302 336.224 82.9323 336.391 83.2031C336.568 83.474 336.839 83.625 337.203 83.6562ZM350.109 83.8125C350.109 83.3646 350.12 82.2656 350.141 80.5156C350.172 77.0781 350.188 75.1979 350.188 74.875L348.75 74.6406C348.552 74.0469 348.411 73.4896 348.328 72.9688C348.245 72.4479 348.203 71.9219 348.203 71.3906C348.203 71.1719 348.208 71.0052 348.219 70.8906C348.396 70.7344 348.672 70.5469 349.047 70.3281C349.422 70.1094 349.865 69.9167 350.375 69.75C350.885 69.5729 351.406 69.4844 351.938 69.4844C353.177 69.4844 354.073 69.7604 354.625 70.3125C355.188 70.8646 355.469 71.6719 355.469 72.7344C355.469 73.3802 355.385 74.2083 355.219 75.2188C355.062 76.2188 354.901 76.9323 354.734 77.3594L355.297 77.4531L356.234 73.9219C356.651 72.3281 357.172 71.1927 357.797 70.5156C358.422 69.8281 359.125 69.4844 359.906 69.4844C360.417 69.4844 360.922 69.5625 361.422 69.7188C361.932 69.875 362.323 70.0677 362.594 70.2969C362.885 70.9427 363.031 71.8021 363.031 72.875C363.031 73.625 362.958 74.3698 362.812 75.1094C362.667 75.8385 362.479 76.4271 362.25 76.875L358.969 76.4375C358.302 77.1458 357.594 78.1302 356.844 79.3906C356.094 80.6406 355.495 81.7917 355.047 82.8438L355.031 83.6562L358.062 82.9375C358.573 83.7188 358.87 84.6458 358.953 85.7188C358.953 85.7812 358.719 86.0365 358.25 86.4844C357.781 86.9323 357.161 87.349 356.391 87.7344C355.63 88.1094 354.755 88.2969 353.766 88.2969C352.745 88.2969 351.891 88.026 351.203 87.4844C350.526 86.9323 350.167 86.0052 350.125 84.7031C350.115 84.5469 350.109 84.25 350.109 83.8125Z" fill="black"/>
<path d="M37.2812 149.062C37.2812 146.698 37.6302 144.594 38.3281 142.75C39.0365 140.896 40.1406 139.432 41.6406 138.359C43.1406 137.286 45.0365 136.75 47.3281 136.75C48.8906 136.75 50.5417 136.953 52.2812 137.359C52.8438 137.693 53.3333 138.042 53.75 138.406C54.1771 138.76 54.5833 139.193 54.9688 139.703C54.9688 140.443 54.8698 141.427 54.6719 142.656C54.474 143.875 54.224 145.016 53.9219 146.078C53.6302 147.13 53.349 147.812 53.0781 148.125C52.8073 148.26 52.5781 148.354 52.3906 148.406C52.2031 148.448 51.9115 148.469 51.5156 148.469C51.026 148.469 50.5677 148.432 50.1406 148.359C49.7135 148.286 49.3906 148.188 49.1719 148.062L48.625 142.797C47.8854 142.589 46.8594 142.484 45.5469 142.484C45.1927 142.484 44.9323 142.49 44.7656 142.5C44.3177 143.938 44.0677 145.87 44.0156 148.297C44.0052 148.589 44 149.031 44 149.625C44 151.021 44.0729 152.151 44.2188 153.016C44.3542 153.828 44.5 154.438 44.6562 154.844C44.8125 155.25 45.0833 155.562 45.4688 155.781C45.8646 156 46.4531 156.109 47.2344 156.109C48.2865 156.109 49.2552 155.958 50.1406 155.656C51.0365 155.344 52.0104 154.891 53.0625 154.297C53.4583 154.724 53.7604 155.073 53.9688 155.344C54.1875 155.615 54.3854 155.948 54.5625 156.344C54.75 156.74 54.875 157.193 54.9375 157.703C54.7708 158.047 54.3281 158.505 53.6094 159.078C52.8906 159.651 51.9479 160.167 50.7812 160.625C49.6146 161.083 48.3073 161.312 46.8594 161.312C43.474 161.312 41.0312 160.255 39.5312 158.141C38.0312 156.026 37.2812 153 37.2812 149.062ZM57.4688 150.844C57.4688 146.01 57.5625 142.688 57.75 140.875L55.9844 140.562C55.7344 139.604 55.6094 138.573 55.6094 137.469C55.7656 137.271 56.0573 137.026 56.4844 136.734C56.9115 136.443 57.4062 136.188 57.9688 135.969C58.5417 135.75 59.1094 135.641 59.6719 135.641C60.9531 135.641 61.9062 135.969 62.5312 136.625C63.1562 137.281 63.4688 138.286 63.4688 139.641C63.4688 140.234 63.4167 141.193 63.3125 142.516C63.2083 143.828 63.0573 145.24 62.8594 146.75C62.6615 148.25 62.4323 149.589 62.1719 150.766C62.1719 150.828 62.2083 150.885 62.2812 150.938C62.3542 150.99 62.4323 151.016 62.5156 151.016C62.6094 151.016 62.6719 150.979 62.7031 150.906C63.1198 149.25 63.5365 147.865 63.9531 146.75C64.3698 145.635 65 144.646 65.8438 143.781C66.6875 142.917 67.7812 142.484 69.125 142.484C70.7917 142.484 71.9896 142.995 72.7188 144.016C73.4479 145.026 73.8125 146.302 73.8125 147.844C73.8125 149.219 73.651 150.547 73.3281 151.828C73.0052 153.099 72.6042 154.427 72.125 155.812C72.1458 155.76 72.0729 155.964 71.9062 156.422L71.9375 156.453L74.25 155.484C75.0625 156.182 75.5365 157.109 75.6719 158.266C75.6719 158.339 75.4375 158.641 74.9688 159.172C74.5 159.693 73.8802 160.182 73.1094 160.641C72.349 161.089 71.474 161.312 70.4844 161.312C69.4948 161.312 68.6875 161.047 68.0625 160.516C67.4375 159.984 67.125 159.078 67.125 157.797C67.125 156.776 67.1667 155.411 67.25 153.703C67.3333 151.995 67.4167 150.62 67.5 149.578C67.2292 149.286 66.8958 149.13 66.5 149.109C66.1354 149.578 65.599 150.516 64.8906 151.922C64.1823 153.328 63.6823 154.38 63.3906 155.078C63.3698 155.224 63.3594 155.365 63.3594 155.5C63.3594 156.021 63.4375 156.724 63.5938 157.609C63.75 158.484 63.9427 159.302 64.1719 160.062C63.9844 160.417 63.599 160.714 63.0156 160.953C62.4323 161.193 61.7135 161.312 60.8594 161.312C60.0885 161.312 59.4688 161.25 59 161.125C58.5417 161 58.2188 160.87 58.0312 160.734C57.8438 160.589 57.75 160.5 57.75 160.469C57.7396 160.375 57.7135 160.13 57.6719 159.734C57.6302 159.328 57.5885 158.766 57.5469 158.047C57.5052 157.318 57.4844 156.49 57.4844 155.562L57.4688 150.844ZM76.8281 151.766C76.8281 149.88 77.1302 148.245 77.7344 146.859C78.3385 145.474 79.2656 144.401 80.5156 143.641C81.7656 142.87 83.3333 142.484 85.2188 142.484C87.3021 142.484 88.9375 142.875 90.125 143.656C91.3125 144.427 92.1406 145.5 92.6094 146.875C93.0885 148.25 93.3281 149.932 93.3281 151.922C93.3281 153.724 93.0104 155.333 92.375 156.75C91.75 158.156 90.8021 159.271 89.5312 160.094C88.2708 160.906 86.724 161.312 84.8906 161.312C82.0573 161.312 80.0052 160.443 78.7344 158.703C77.4635 156.953 76.8281 154.641 76.8281 151.766ZM85.5312 156.734C86.0625 156.734 86.3854 156.693 86.5 156.609C86.7396 156.193 86.9219 155.604 87.0469 154.844C87.1719 154.083 87.2344 153.26 87.2344 152.375C87.2344 151.562 87.1823 150.802 87.0781 150.094C86.974 149.375 86.8281 148.812 86.6406 148.406C86.526 148.271 86.2969 148.172 85.9531 148.109C85.6094 148.036 85.2344 148 84.8281 148C84.2969 148 83.9323 148.057 83.7344 148.172C83.2135 149.068 82.9531 150.312 82.9531 151.906C82.9531 152.656 83.0104 153.422 83.125 154.203C83.2396 154.984 83.3854 155.693 83.5625 156.328C83.6875 156.464 83.9427 156.568 84.3281 156.641C84.7135 156.703 85.1146 156.734 85.5312 156.734ZM95.4219 151.766C95.4219 149.88 95.724 148.245 96.3281 146.859C96.9323 145.474 97.8594 144.401 99.1094 143.641C100.359 142.87 101.927 142.484 103.812 142.484C105.896 142.484 107.531 142.875 108.719 143.656C109.906 144.427 110.734 145.5 111.203 146.875C111.682 148.25 111.922 149.932 111.922 151.922C111.922 153.724 111.604 155.333 110.969 156.75C110.344 158.156 109.396 159.271 108.125 160.094C106.865 160.906 105.318 161.312 103.484 161.312C100.651 161.312 98.599 160.443 97.3281 158.703C96.0573 156.953 95.4219 154.641 95.4219 151.766ZM104.125 156.734C104.656 156.734 104.979 156.693 105.094 156.609C105.333 156.193 105.516 155.604 105.641 154.844C105.766 154.083 105.828 153.26 105.828 152.375C105.828 151.562 105.776 150.802 105.672 150.094C105.568 149.375 105.422 148.812 105.234 148.406C105.12 148.271 104.891 148.172 104.547 148.109C104.203 148.036 103.828 148 103.422 148C102.891 148 102.526 148.057 102.328 148.172C101.807 149.068 101.547 150.312 101.547 151.906C101.547 152.656 101.604 153.422 101.719 154.203C101.833 154.984 101.979 155.693 102.156 156.328C102.281 156.464 102.536 156.568 102.922 156.641C103.307 156.703 103.708 156.734 104.125 156.734ZM115.516 155.484C116.432 155.849 117.167 156.13 117.719 156.328C118.271 156.526 118.875 156.698 119.531 156.844C120.198 156.99 120.859 157.062 121.516 157.062C121.807 157.062 122.016 157.036 122.141 156.984C122.172 156.943 122.198 156.88 122.219 156.797C122.25 156.703 122.266 156.609 122.266 156.516C122.266 156.307 122.146 156.135 121.906 156C121.531 155.792 120.865 155.464 119.906 155.016C118.594 154.391 117.552 153.833 116.781 153.344C116.021 152.854 115.375 152.203 114.844 151.391C114.323 150.578 114.062 149.557 114.062 148.328C114.062 146.568 114.589 145.156 115.641 144.094C116.693 143.021 118.359 142.484 120.641 142.484C123.359 142.484 125.474 142.839 126.984 143.547C127.057 143.849 127.094 144.229 127.094 144.688C127.094 145.562 126.958 146.458 126.688 147.375C126.417 148.281 126.062 148.953 125.625 149.391C125.031 149.193 124.193 148.875 123.109 148.438C122.318 148.125 121.688 147.885 121.219 147.719C120.76 147.542 120.339 147.417 119.953 147.344C119.745 147.396 119.578 147.521 119.453 147.719C119.328 147.906 119.266 148.13 119.266 148.391C119.266 148.62 119.333 148.812 119.469 148.969C119.604 149.125 119.755 149.25 119.922 149.344C120.099 149.427 120.349 149.542 120.672 149.688C120.839 149.76 120.995 149.828 121.141 149.891C121.286 149.943 121.422 149.995 121.547 150.047C122.359 150.391 123 150.672 123.469 150.891C123.938 151.109 124.391 151.37 124.828 151.672C125.63 152.224 126.26 152.854 126.719 153.562C127.177 154.271 127.406 155.047 127.406 155.891C127.406 157.057 127.073 158.068 126.406 158.922C125.75 159.766 124.906 160.38 123.875 160.766C123.333 160.964 122.74 161.104 122.094 161.188C121.458 161.281 120.714 161.328 119.859 161.328C118.849 161.328 117.807 161.135 116.734 160.75C115.672 160.354 114.859 159.698 114.297 158.781C114.307 158.146 114.391 157.594 114.547 157.125C114.714 156.646 115.036 156.099 115.516 155.484ZM129.141 151.922C129.141 150.12 129.443 148.51 130.047 147.094C130.651 145.677 131.583 144.557 132.844 143.734C134.115 142.901 135.698 142.484 137.594 142.484C138.583 142.484 139.573 142.604 140.562 142.844C141.552 143.073 142.391 143.458 143.078 144C143.714 144.51 144.172 145.188 144.453 146.031C144.745 146.865 144.891 147.792 144.891 148.812C144.891 149.49 144.833 150.182 144.719 150.891C144.594 151.099 144.349 151.375 143.984 151.719C143.62 152.052 143.193 152.38 142.703 152.703C142.214 153.026 141.74 153.276 141.281 153.453C140.844 153.484 140.391 153.5 139.922 153.5C139.099 153.5 138.266 153.464 137.422 153.391C136.578 153.318 135.839 153.234 135.203 153.141C135.286 154.026 135.557 154.797 136.016 155.453C136.474 156.109 137.203 156.438 138.203 156.438C138.297 156.438 138.448 156.427 138.656 156.406C139.292 156.344 140.031 156.177 140.875 155.906C141.729 155.625 142.578 155.302 143.422 154.938C143.818 155.333 144.109 155.729 144.297 156.125C144.484 156.521 144.615 157.089 144.688 157.828C144.365 158.203 143.839 158.661 143.109 159.203C142.391 159.745 141.51 160.234 140.469 160.672C139.427 161.099 138.339 161.312 137.203 161.312C135.495 161.312 134.031 160.901 132.812 160.078C131.604 159.245 130.688 158.12 130.062 156.703C129.448 155.276 129.141 153.682 129.141 151.922ZM139.203 148.328C139.057 148.172 138.812 148.052 138.469 147.969C138.125 147.875 137.766 147.828 137.391 147.828C137.089 147.828 136.781 147.854 136.469 147.906C136.167 147.958 135.984 148.016 135.922 148.078C135.568 148.776 135.344 149.568 135.25 150.453L139.422 150.047L139.203 148.328ZM159.562 159.047C159.365 158.276 158.995 157.161 158.453 155.703C157.911 154.234 157.344 152.823 156.75 151.469C156.156 150.115 155.688 149.182 155.344 148.672L153.906 148.422C153.76 148.016 153.646 147.568 153.562 147.078C153.49 146.578 153.427 146 153.375 145.344C153.552 144.854 153.823 144.391 154.188 143.953C154.552 143.516 154.99 143.161 155.5 142.891C156.021 142.62 156.583 142.484 157.188 142.484C158.177 142.484 158.995 142.766 159.641 143.328C160.297 143.88 160.802 144.578 161.156 145.422C161.521 146.255 161.839 147.24 162.109 148.375C162.661 150.573 163.016 153.297 163.172 156.547L163.516 156.484C163.922 155.578 164.266 154.281 164.547 152.594C164.839 150.906 164.995 149.286 165.016 147.734L163.062 147.438C162.833 146.562 162.719 145.536 162.719 144.359C162.948 144.078 163.276 143.797 163.703 143.516C164.141 143.224 164.656 142.979 165.25 142.781C165.844 142.583 166.474 142.484 167.141 142.484C169.828 142.484 171.172 143.833 171.172 146.531C171.172 148.656 170.786 150.719 170.016 152.719C169.255 154.719 168.109 156.526 166.578 158.141C165.047 159.755 163.182 161.026 160.984 161.953L161.109 162.469C161.391 162.5 161.667 162.516 161.938 162.516C162.823 162.516 163.891 162.37 165.141 162.078C165.849 162.87 166.203 163.734 166.203 164.672C166.203 164.953 166.172 165.24 166.109 165.531C165.484 166.135 164.703 166.656 163.766 167.094C162.828 167.531 161.797 167.75 160.672 167.75C159.036 167.75 157.714 167.38 156.703 166.641C155.693 165.901 155.188 164.776 155.188 163.266C155.188 162.589 155.391 161.995 155.797 161.484C156.214 160.984 156.693 160.578 157.234 160.266C157.786 159.943 158.562 159.536 159.562 159.047ZM172.859 151.766C172.859 149.88 173.161 148.245 173.766 146.859C174.37 145.474 175.297 144.401 176.547 143.641C177.797 142.87 179.365 142.484 181.25 142.484C183.333 142.484 184.969 142.875 186.156 143.656C187.344 144.427 188.172 145.5 188.641 146.875C189.12 148.25 189.359 149.932 189.359 151.922C189.359 153.724 189.042 155.333 188.406 156.75C187.781 158.156 186.833 159.271 185.562 160.094C184.302 160.906 182.755 161.312 180.922 161.312C178.089 161.312 176.036 160.443 174.766 158.703C173.495 156.953 172.859 154.641 172.859 151.766ZM181.562 156.734C182.094 156.734 182.417 156.693 182.531 156.609C182.771 156.193 182.953 155.604 183.078 154.844C183.203 154.083 183.266 153.26 183.266 152.375C183.266 151.562 183.214 150.802 183.109 150.094C183.005 149.375 182.859 148.812 182.672 148.406C182.557 148.271 182.328 148.172 181.984 148.109C181.641 148.036 181.266 148 180.859 148C180.328 148 179.964 148.057 179.766 148.172C179.245 149.068 178.984 150.312 178.984 151.906C178.984 152.656 179.042 153.422 179.156 154.203C179.271 154.984 179.417 155.693 179.594 156.328C179.719 156.464 179.974 156.568 180.359 156.641C180.745 156.703 181.146 156.734 181.562 156.734ZM191.312 147.531C191.135 146.771 191.021 146.214 190.969 145.859C190.917 145.505 190.891 144.969 190.891 144.25C191.505 143.667 192.167 143.229 192.875 142.938C193.583 142.635 194.38 142.484 195.266 142.484C197.953 142.484 199.297 143.833 199.297 146.531C199.297 147.25 199.229 148.083 199.094 149.031C198.969 149.979 198.786 151.172 198.547 152.609C198.516 152.797 198.432 153.302 198.297 154.125C198.161 154.948 198.068 155.635 198.016 156.188C198.193 156.375 198.411 156.505 198.672 156.578C198.797 156.578 199.083 156.323 199.531 155.812C199.99 155.292 200.479 154.661 201 153.922C201.521 153.182 201.948 152.5 202.281 151.875C202.365 150.385 202.479 149.016 202.625 147.766L200.984 147.438C200.849 146.917 200.755 146.458 200.703 146.062C200.651 145.667 200.625 145.245 200.625 144.797L200.641 144.359C201.016 143.88 201.578 143.448 202.328 143.062C203.078 142.677 203.938 142.484 204.906 142.484C207.594 142.484 208.938 143.833 208.938 146.531C208.938 147.625 208.755 149.068 208.391 150.859C208.026 152.641 207.599 154.443 207.109 156.266L208.906 155.484C209.208 155.807 209.474 156.203 209.703 156.672C209.943 157.13 210.094 157.661 210.156 158.266C210.01 158.578 209.693 158.979 209.203 159.469C208.714 159.948 208.115 160.375 207.406 160.75C206.698 161.125 205.958 161.312 205.188 161.312C204.323 161.312 203.656 161.057 203.188 160.547C202.729 160.026 202.5 159.365 202.5 158.562C202.5 158.354 202.552 157.927 202.656 157.281C202.771 156.635 202.865 156.188 202.938 155.938L202.5 155.797C201.979 157.62 201.26 158.995 200.344 159.922C199.438 160.849 198.401 161.312 197.234 161.312C195.557 161.312 194.375 160.76 193.688 159.656C193 158.542 192.656 157.161 192.656 155.516C192.656 152.422 192.76 149.839 192.969 147.766L191.312 147.531ZM213.047 156.812C213.047 156.365 213.057 155.266 213.078 153.516C213.109 150.078 213.125 148.198 213.125 147.875L211.688 147.641C211.49 147.047 211.349 146.49 211.266 145.969C211.182 145.448 211.141 144.922 211.141 144.391C211.141 144.172 211.146 144.005 211.156 143.891C211.333 143.734 211.609 143.547 211.984 143.328C212.359 143.109 212.802 142.917 213.312 142.75C213.823 142.573 214.344 142.484 214.875 142.484C216.115 142.484 217.01 142.76 217.562 143.312C218.125 143.865 218.406 144.672 218.406 145.734C218.406 146.38 218.323 147.208 218.156 148.219C218 149.219 217.839 149.932 217.672 150.359L218.234 150.453L219.172 146.922C219.589 145.328 220.109 144.193 220.734 143.516C221.359 142.828 222.062 142.484 222.844 142.484C223.354 142.484 223.859 142.562 224.359 142.719C224.87 142.875 225.26 143.068 225.531 143.297C225.823 143.943 225.969 144.802 225.969 145.875C225.969 146.625 225.896 147.37 225.75 148.109C225.604 148.839 225.417 149.427 225.188 149.875L221.906 149.438C221.24 150.146 220.531 151.13 219.781 152.391C219.031 153.641 218.432 154.792 217.984 155.844L217.969 156.656L221 155.938C221.51 156.719 221.807 157.646 221.891 158.719C221.891 158.781 221.656 159.036 221.188 159.484C220.719 159.932 220.099 160.349 219.328 160.734C218.568 161.109 217.693 161.297 216.703 161.297C215.682 161.297 214.828 161.026 214.141 160.484C213.464 159.932 213.104 159.005 213.062 157.703C213.052 157.547 213.047 157.25 213.047 156.812ZM243.328 163.484C244.026 163.484 244.63 163.406 245.141 163.25C245.297 163.094 245.406 162.911 245.469 162.703C245.531 162.505 245.562 162.318 245.562 162.141C245.562 161.953 245.547 161.812 245.516 161.719C245.484 161.635 245.432 161.557 245.359 161.484C244.922 161.411 244.406 161.359 243.812 161.328C243.229 161.307 242.88 161.292 242.766 161.281C241.318 161.219 240.141 161.115 239.234 160.969C238.328 160.812 237.552 160.479 236.906 159.969C236.26 159.448 235.938 158.667 235.938 157.625C235.938 157.062 236.12 156.536 236.484 156.047C236.849 155.547 237.323 155.109 237.906 154.734C236.719 154.245 235.766 153.51 235.047 152.531C234.339 151.542 233.984 150.266 233.984 148.703C233.984 147.151 234.38 145.906 235.172 144.969C235.974 144.021 236.958 143.354 238.125 142.969C239.292 142.583 240.479 142.391 241.688 142.391C242.448 142.391 243.193 142.464 243.922 142.609C244.651 142.755 245.328 142.964 245.953 143.234L245.281 139.266C245.917 138.88 246.708 138.688 247.656 138.688C248.344 138.688 248.984 138.802 249.578 139.031C250.172 139.26 250.625 139.589 250.938 140.016C250.958 140.12 250.969 140.286 250.969 140.516C250.969 141.37 250.812 142.323 250.5 143.375C250.198 144.417 249.672 145.255 248.922 145.891C249.297 146.641 249.484 147.448 249.484 148.312C249.484 149.583 249.24 150.755 248.75 151.828C248.271 152.901 247.469 153.776 246.344 154.453C245.219 155.12 243.755 155.453 241.953 155.453C241.432 155.453 240.891 155.422 240.328 155.359C240.297 155.88 240.422 156.401 240.703 156.922C242.109 156.651 243.245 156.51 244.109 156.5L245.172 156.484C246.609 156.484 247.698 156.573 248.438 156.75C249.25 156.948 249.854 157.396 250.25 158.094C250.656 158.792 250.859 159.641 250.859 160.641C250.859 162.203 250.38 163.516 249.422 164.578C248.474 165.651 247.24 166.448 245.719 166.969C244.208 167.49 242.604 167.75 240.906 167.75C239.333 167.75 237.932 167.484 236.703 166.953C235.474 166.422 234.698 165.448 234.375 164.031C234.719 162.833 235.375 161.927 236.344 161.312C237.646 162.094 238.891 162.651 240.078 162.984C241.276 163.318 242.359 163.484 243.328 163.484ZM242.375 151.594C243.125 151.594 243.562 151.547 243.688 151.453C243.969 150.891 244.109 150.312 244.109 149.719C244.109 149.104 243.969 148.526 243.688 147.984C243.552 147.87 243.25 147.781 242.781 147.719C242.323 147.656 241.823 147.625 241.281 147.625C240.604 147.625 240.151 147.667 239.922 147.75C239.599 148.323 239.438 148.901 239.438 149.484C239.438 150.078 239.589 150.641 239.891 151.172C240.12 151.318 240.464 151.427 240.922 151.5C241.391 151.562 241.875 151.594 242.375 151.594ZM252.297 151.922C252.297 150.12 252.599 148.51 253.203 147.094C253.807 145.677 254.74 144.557 256 143.734C257.271 142.901 258.854 142.484 260.75 142.484C261.74 142.484 262.729 142.604 263.719 142.844C264.708 143.073 265.547 143.458 266.234 144C266.87 144.51 267.328 145.188 267.609 146.031C267.901 146.865 268.047 147.792 268.047 148.812C268.047 149.49 267.99 150.182 267.875 150.891C267.75 151.099 267.505 151.375 267.141 151.719C266.776 152.052 266.349 152.38 265.859 152.703C265.37 153.026 264.896 153.276 264.438 153.453C264 153.484 263.547 153.5 263.078 153.5C262.255 153.5 261.422 153.464 260.578 153.391C259.734 153.318 258.995 153.234 258.359 153.141C258.443 154.026 258.714 154.797 259.172 155.453C259.63 156.109 260.359 156.438 261.359 156.438C261.453 156.438 261.604 156.427 261.812 156.406C262.448 156.344 263.188 156.177 264.031 155.906C264.885 155.625 265.734 155.302 266.578 154.938C266.974 155.333 267.266 155.729 267.453 156.125C267.641 156.521 267.771 157.089 267.844 157.828C267.521 158.203 266.995 158.661 266.266 159.203C265.547 159.745 264.667 160.234 263.625 160.672C262.583 161.099 261.495 161.312 260.359 161.312C258.651 161.312 257.188 160.901 255.969 160.078C254.76 159.245 253.844 158.12 253.219 156.703C252.604 155.276 252.297 153.682 252.297 151.922ZM262.359 148.328C262.214 148.172 261.969 148.052 261.625 147.969C261.281 147.875 260.922 147.828 260.547 147.828C260.245 147.828 259.938 147.854 259.625 147.906C259.323 147.958 259.141 148.016 259.078 148.078C258.724 148.776 258.5 149.568 258.406 150.453L262.578 150.047L262.359 148.328ZM271.609 155.562C271.609 153.865 271.63 152.583 271.672 151.719C271.714 150.844 271.823 149.562 272 147.875L270.188 147.641C269.969 146.964 269.823 146.359 269.75 145.828C269.688 145.297 269.656 144.609 269.656 143.766C269.823 143.62 270.099 143.448 270.484 143.25C270.88 143.042 271.349 142.865 271.891 142.719C272.432 142.562 272.979 142.484 273.531 142.484C274.792 142.484 275.682 142.755 276.203 143.297C276.734 143.839 277 144.651 277 145.734C277 146.339 276.911 147.156 276.734 148.188C276.443 149.844 276.297 150.714 276.297 150.797C276.297 150.849 276.333 150.901 276.406 150.953C276.479 150.995 276.557 151.016 276.641 151.016C276.734 151.016 276.797 150.979 276.828 150.906C277.245 149.25 277.661 147.865 278.078 146.75C278.495 145.635 279.125 144.646 279.969 143.781C280.812 142.917 281.906 142.484 283.25 142.484C284.917 142.484 286.115 142.995 286.844 144.016C287.573 145.026 287.938 146.302 287.938 147.844C287.938 149.219 287.776 150.547 287.453 151.828C287.13 153.099 286.729 154.427 286.25 155.812C286.271 155.76 286.198 155.964 286.031 156.422L286.062 156.453L288.344 155.516C289.156 156.214 289.63 157.141 289.766 158.297C289.766 158.37 289.531 158.667 289.062 159.188C288.604 159.708 287.995 160.193 287.234 160.641C286.474 161.089 285.599 161.312 284.609 161.312C283.62 161.312 282.812 161.047 282.188 160.516C281.562 159.984 281.25 159.078 281.25 157.797C281.25 156.776 281.292 155.411 281.375 153.703C281.458 151.995 281.542 150.62 281.625 149.578C281.354 149.286 281.021 149.13 280.625 149.109C280.26 149.578 279.724 150.516 279.016 151.922C278.307 153.328 277.807 154.38 277.516 155.078C277.495 155.224 277.484 155.365 277.484 155.5C277.484 156.021 277.562 156.724 277.719 157.609C277.875 158.484 278.068 159.302 278.297 160.062C278.109 160.417 277.724 160.714 277.141 160.953C276.557 161.193 275.839 161.312 274.984 161.312C274.214 161.312 273.594 161.25 273.125 161.125C272.667 161 272.344 160.87 272.156 160.734C271.969 160.589 271.875 160.5 271.875 160.469C271.865 160.375 271.839 160.13 271.797 159.734C271.755 159.328 271.714 158.766 271.672 158.047C271.63 157.318 271.609 156.49 271.609 155.562ZM290.953 151.922C290.953 150.12 291.255 148.51 291.859 147.094C292.464 145.677 293.396 144.557 294.656 143.734C295.927 142.901 297.51 142.484 299.406 142.484C300.396 142.484 301.385 142.604 302.375 142.844C303.365 143.073 304.203 143.458 304.891 144C305.526 144.51 305.984 145.188 306.266 146.031C306.557 146.865 306.703 147.792 306.703 148.812C306.703 149.49 306.646 150.182 306.531 150.891C306.406 151.099 306.161 151.375 305.797 151.719C305.432 152.052 305.005 152.38 304.516 152.703C304.026 153.026 303.552 153.276 303.094 153.453C302.656 153.484 302.203 153.5 301.734 153.5C300.911 153.5 300.078 153.464 299.234 153.391C298.391 153.318 297.651 153.234 297.016 153.141C297.099 154.026 297.37 154.797 297.828 155.453C298.286 156.109 299.016 156.438 300.016 156.438C300.109 156.438 300.26 156.427 300.469 156.406C301.104 156.344 301.844 156.177 302.688 155.906C303.542 155.625 304.391 155.302 305.234 154.938C305.63 155.333 305.922 155.729 306.109 156.125C306.297 156.521 306.427 157.089 306.5 157.828C306.177 158.203 305.651 158.661 304.922 159.203C304.203 159.745 303.323 160.234 302.281 160.672C301.24 161.099 300.151 161.312 299.016 161.312C297.307 161.312 295.844 160.901 294.625 160.078C293.417 159.245 292.5 158.12 291.875 156.703C291.26 155.276 290.953 153.682 290.953 151.922ZM301.016 148.328C300.87 148.172 300.625 148.052 300.281 147.969C299.938 147.875 299.578 147.828 299.203 147.828C298.901 147.828 298.594 147.854 298.281 147.906C297.979 147.958 297.797 148.016 297.734 148.078C297.38 148.776 297.156 149.568 297.062 150.453L301.234 150.047L301.016 148.328ZM308.844 151.984C308.844 150.401 309.062 148.885 309.5 147.438C309.948 145.99 310.646 144.802 311.594 143.875C312.552 142.948 313.755 142.484 315.203 142.484C316.828 142.484 318.38 143 319.859 144.031L320.109 143.875C320.078 142.656 319.927 141.552 319.656 140.562L316.484 140.359C316.339 140.172 316.224 139.896 316.141 139.531C316.057 139.156 316.016 138.771 316.016 138.375C316.016 137.844 316.078 137.385 316.203 137C316.828 136.552 317.63 136.214 318.609 135.984C319.589 135.755 320.568 135.641 321.547 135.641C322.63 135.641 323.448 135.87 324 136.328C324.552 136.776 324.922 137.458 325.109 138.375C325.307 139.281 325.406 140.542 325.406 142.156C325.406 144.281 325.318 146.693 325.141 149.391C324.964 152.089 324.734 154.292 324.453 156L324.391 156.266L326.203 155.484C326.505 155.807 326.771 156.203 327 156.672C327.24 157.13 327.391 157.661 327.453 158.266C327.307 158.578 326.99 158.979 326.5 159.469C326.01 159.948 325.411 160.375 324.703 160.75C323.995 161.125 323.255 161.312 322.484 161.312C321.62 161.312 320.953 161.057 320.484 160.547C320.026 160.026 319.797 159.365 319.797 158.562C319.797 158.354 319.849 157.927 319.953 157.281C320.068 156.635 320.161 156.188 320.234 155.938L319.766 155.797C319.234 157.661 318.531 159.047 317.656 159.953C316.781 160.859 315.698 161.312 314.406 161.312C313.021 161.312 311.911 160.854 311.078 159.938C310.255 159.01 309.677 157.849 309.344 156.453C309.01 155.057 308.844 153.568 308.844 151.984ZM319.562 151.703C319.625 151.328 319.656 150.891 319.656 150.391C319.656 150.068 319.641 149.76 319.609 149.469C319.589 149.177 319.562 148.969 319.531 148.844C319.115 148.542 318.641 148.328 318.109 148.203C317.589 148.078 317.109 148.016 316.672 148.016C316.401 148.016 316.109 148.042 315.797 148.094C315.589 148.302 315.422 148.755 315.297 149.453C315.172 150.141 315.109 150.917 315.109 151.781C315.109 152.708 315.172 153.609 315.297 154.484C315.432 155.349 315.62 156.026 315.859 156.516C316.026 156.516 316.349 156.26 316.828 155.75C317.318 155.229 317.823 154.594 318.344 153.844C318.865 153.083 319.271 152.37 319.562 151.703ZM328.516 151.922C328.516 150.12 328.818 148.51 329.422 147.094C330.026 145.677 330.958 144.557 332.219 143.734C333.49 142.901 335.073 142.484 336.969 142.484C337.958 142.484 338.948 142.604 339.938 142.844C340.927 143.073 341.766 143.458 342.453 144C343.089 144.51 343.547 145.188 343.828 146.031C344.12 146.865 344.266 147.792 344.266 148.812C344.266 149.49 344.208 150.182 344.094 150.891C343.969 151.099 343.724 151.375 343.359 151.719C342.995 152.052 342.568 152.38 342.078 152.703C341.589 153.026 341.115 153.276 340.656 153.453C340.219 153.484 339.766 153.5 339.297 153.5C338.474 153.5 337.641 153.464 336.797 153.391C335.953 153.318 335.214 153.234 334.578 153.141C334.661 154.026 334.932 154.797 335.391 155.453C335.849 156.109 336.578 156.438 337.578 156.438C337.672 156.438 337.823 156.427 338.031 156.406C338.667 156.344 339.406 156.177 340.25 155.906C341.104 155.625 341.953 155.302 342.797 154.938C343.193 155.333 343.484 155.729 343.672 156.125C343.859 156.521 343.99 157.089 344.062 157.828C343.74 158.203 343.214 158.661 342.484 159.203C341.766 159.745 340.885 160.234 339.844 160.672C338.802 161.099 337.714 161.312 336.578 161.312C334.87 161.312 333.406 160.901 332.188 160.078C330.979 159.245 330.062 158.12 329.438 156.703C328.823 155.276 328.516 153.682 328.516 151.922ZM338.578 148.328C338.432 148.172 338.188 148.052 337.844 147.969C337.5 147.875 337.141 147.828 336.766 147.828C336.464 147.828 336.156 147.854 335.844 147.906C335.542 147.958 335.359 148.016 335.297 148.078C334.943 148.776 334.719 149.568 334.625 150.453L338.797 150.047L338.578 148.328ZM347.922 156.812C347.922 156.365 347.932 155.266 347.953 153.516C347.984 150.078 348 148.198 348 147.875L346.562 147.641C346.365 147.047 346.224 146.49 346.141 145.969C346.057 145.448 346.016 144.922 346.016 144.391C346.016 144.172 346.021 144.005 346.031 143.891C346.208 143.734 346.484 143.547 346.859 143.328C347.234 143.109 347.677 142.917 348.188 142.75C348.698 142.573 349.219 142.484 349.75 142.484C350.99 142.484 351.885 142.76 352.438 143.312C353 143.865 353.281 144.672 353.281 145.734C353.281 146.38 353.198 147.208 353.031 148.219C352.875 149.219 352.714 149.932 352.547 150.359L353.109 150.453L354.047 146.922C354.464 145.328 354.984 144.193 355.609 143.516C356.234 142.828 356.938 142.484 357.719 142.484C358.229 142.484 358.734 142.562 359.234 142.719C359.745 142.875 360.135 143.068 360.406 143.297C360.698 143.943 360.844 144.802 360.844 145.875C360.844 146.625 360.771 147.37 360.625 148.109C360.479 148.839 360.292 149.427 360.062 149.875L356.781 149.438C356.115 150.146 355.406 151.13 354.656 152.391C353.906 153.641 353.307 154.792 352.859 155.844L352.844 156.656L355.875 155.938C356.385 156.719 356.682 157.646 356.766 158.719C356.766 158.781 356.531 159.036 356.062 159.484C355.594 159.932 354.974 160.349 354.203 160.734C353.443 161.109 352.568 161.297 351.578 161.297C350.557 161.297 349.703 161.026 349.016 160.484C348.339 159.932 347.979 159.005 347.938 157.703C347.927 157.547 347.922 157.25 347.922 156.812ZM366.266 154.734C367.641 154.734 368.641 155.036 369.266 155.641C369.901 156.234 370.219 156.984 370.219 157.891C370.219 158.495 370.026 159.062 369.641 159.594C369.266 160.115 368.771 160.531 368.156 160.844C367.552 161.156 366.922 161.312 366.266 161.312C365.609 161.312 364.974 161.156 364.359 160.844C363.755 160.531 363.26 160.115 362.875 159.594C362.5 159.062 362.312 158.495 362.312 157.891C362.312 156.984 362.625 156.234 363.25 155.641C363.885 155.036 364.891 154.734 366.266 154.734ZM366.266 142.75C367.641 142.75 368.641 143.052 369.266 143.656C369.901 144.25 370.219 145 370.219 145.906C370.219 146.51 370.026 147.078 369.641 147.609C369.266 148.13 368.771 148.547 368.156 148.859C367.552 149.172 366.922 149.328 366.266 149.328C365.609 149.328 364.974 149.172 364.359 148.859C363.755 148.547 363.26 148.13 362.875 147.609C362.5 147.078 362.312 146.51 362.312 145.906C362.312 145 362.625 144.25 363.25 143.656C363.885 143.052 364.891 142.75 366.266 142.75Z" fill="black"/>
<path d="M66 396.516C67.1935 396.516 68.3381 396.031 69.182 395.166C70.0259 394.301 70.5 393.129 70.5 391.906C70.5 390.683 70.0259 389.51 69.182 388.646C68.3381 387.781 67.1935 387.295 66 387.295C64.8065 387.295 63.6619 387.781 62.818 388.646C61.9741 389.51 61.5 390.683 61.5 391.906C61.5 393.129 61.9741 394.301 62.818 395.166C63.6619 396.031 64.8065 396.516 66 396.516V396.516ZM66 399.59C68.3869 399.59 70.6761 400.562 72.364 402.291C74.0518 404.02 75 406.366 75 408.811H57C57 406.366 57.9482 404.02 59.636 402.291C61.3239 400.562 63.6131 399.59 66 399.59V399.59ZM78 393.443C78 393.035 77.842 392.644 77.5607 392.356C77.2794 392.068 76.8978 391.906 76.5 391.906C76.1022 391.906 75.7206 392.068 75.4393 392.356C75.158 392.644 75 393.035 75 393.443V394.98H73.5C73.1022 394.98 72.7206 395.141 72.4393 395.43C72.158 395.718 72 396.109 72 396.516C72 396.924 72.158 397.315 72.4393 397.603C72.7206 397.891 73.1022 398.053 73.5 398.053H75V399.59C75 399.998 75.158 400.389 75.4393 400.677C75.7206 400.965 76.1022 401.127 76.5 401.127C76.8978 401.127 77.2794 400.965 77.5607 400.677C77.842 400.389 78 399.998 78 399.59V398.053H79.5C79.8978 398.053 80.2794 397.891 80.5607 397.603C80.842 397.315 81 396.924 81 396.516C81 396.109 80.842 395.718 80.5607 395.43C80.2794 395.141 79.8978 394.98 79.5 394.98H78V393.443Z" fill="black"/>
<path d="M66 459.75V454.75V459.75ZM76 459.75V454.75V459.75ZM64.75 464.75H77.25H64.75ZM62.25 477.25H79.75C80.413 477.25 81.0489 476.987 81.5178 476.518C81.9866 476.049 82.25 475.413 82.25 474.75V459.75C82.25 459.087 81.9866 458.451 81.5178 457.982C81.0489 457.513 80.413 457.25 79.75 457.25H62.25C61.587 457.25 60.9511 457.513 60.4822 457.982C60.0134 458.451 59.75 459.087 59.75 459.75V474.75C59.75 475.413 60.0134 476.049 60.4822 476.518C60.9511 476.987 61.587 477.25 62.25 477.25Z" stroke="black" stroke-width="2" stroke-linecap="round" stroke-linejoin="round"/>
<path d="M99.1136 360V342.545H105.216C106.432 342.545 107.435 342.756 108.224 343.176C109.014 343.591 109.602 344.151 109.989 344.855C110.375 345.554 110.568 346.33 110.568 347.182C110.568 347.932 110.435 348.551 110.168 349.04C109.906 349.528 109.56 349.915 109.128 350.199C108.702 350.483 108.239 350.693 107.739 350.83V351C108.273 351.034 108.81 351.222 109.349 351.562C109.889 351.903 110.341 352.392 110.705 353.028C111.068 353.665 111.25 354.443 111.25 355.364C111.25 356.239 111.051 357.026 110.653 357.724C110.256 358.423 109.628 358.977 108.77 359.386C107.912 359.795 106.795 360 105.42 360H99.1136ZM101.227 358.125H105.42C106.801 358.125 107.781 357.858 108.361 357.324C108.946 356.784 109.239 356.131 109.239 355.364C109.239 354.773 109.088 354.227 108.787 353.727C108.486 353.222 108.057 352.818 107.5 352.517C106.943 352.21 106.284 352.057 105.523 352.057H101.227V358.125ZM101.227 350.216H105.148C105.784 350.216 106.358 350.091 106.869 349.841C107.386 349.591 107.795 349.239 108.097 348.784C108.403 348.33 108.557 347.795 108.557 347.182C108.557 346.415 108.29 345.764 107.756 345.23C107.222 344.69 106.375 344.42 105.216 344.42H101.227V350.216ZM129.45 351.273C129.45 353.114 129.118 354.705 128.453 356.045C127.788 357.386 126.876 358.42 125.717 359.148C124.558 359.875 123.234 360.239 121.746 360.239C120.257 360.239 118.933 359.875 117.774 359.148C116.615 358.42 115.703 357.386 115.038 356.045C114.374 354.705 114.041 353.114 114.041 351.273C114.041 349.432 114.374 347.841 115.038 346.5C115.703 345.159 116.615 344.125 117.774 343.398C118.933 342.67 120.257 342.307 121.746 342.307C123.234 342.307 124.558 342.67 125.717 343.398C126.876 344.125 127.788 345.159 128.453 346.5C129.118 347.841 129.45 349.432 129.45 351.273ZM127.405 351.273C127.405 349.761 127.152 348.486 126.646 347.446C126.146 346.406 125.467 345.619 124.609 345.085C123.757 344.551 122.803 344.284 121.746 344.284C120.689 344.284 119.732 344.551 118.874 345.085C118.021 345.619 117.342 346.406 116.837 347.446C116.337 348.486 116.087 349.761 116.087 351.273C116.087 352.784 116.337 354.06 116.837 355.099C117.342 356.139 118.021 356.926 118.874 357.46C119.732 357.994 120.689 358.261 121.746 358.261C122.803 358.261 123.757 357.994 124.609 357.46C125.467 356.926 126.146 356.139 126.646 355.099C127.152 354.06 127.405 352.784 127.405 351.273ZM130.684 342.545H133.104L137.945 350.693H138.15L142.991 342.545H145.411L139.104 352.807V360H136.991V352.807L130.684 342.545Z" fill="#00F0FF"/>
<rect x="1.5" y="1.5" width="417" height="622" rx="18.5" stroke="url(#paint0_linear_2_25)" stroke-width="3"/>
<defs>
<linearGradient id="paint0_linear_2_25" x1="210" y1="632.589" x2="210" y2="-7.58928" gradientUnits="userSpaceOnUse">
<stop stop-color="#E0D4A9" stop-opacity="0.68"/>
<stop offset="1" stop-color="#FFDD00" stop-opacity="0"/>
</linearGradient>
</defs>
</svg>
