<svg width="86" height="34" viewBox="0 0 86 34" fill="none" xmlns="http://www.w3.org/2000/svg">
<rect x="1.5" y="1.5" width="83" height="31" rx="15.5" fill="#FFC10E" fill-opacity="0.6" stroke="#EF4130" stroke-width="3"/>
<circle cx="19" cy="17" r="13" fill="#EF4130"/>
<path d="M53.6399 21H51.3331L54.848 10.8182H57.6222L61.1321 21H58.8253L56.2749 13.1449H56.1953L53.6399 21ZM53.4957 16.9979H58.9446V18.6783H53.4957V16.9979ZM64.7763 21.1243C64.1963 21.1243 63.6709 20.9751 63.2003 20.6768C62.733 20.3752 62.3617 19.9328 62.0866 19.3494C61.8149 18.7628 61.679 18.0436 61.679 17.1918C61.679 16.3168 61.8198 15.5893 62.1016 15.0092C62.3833 14.4259 62.7578 13.9901 63.2251 13.7017C63.6958 13.41 64.2112 13.2642 64.7713 13.2642C65.1989 13.2642 65.5552 13.3371 65.8402 13.483C66.1286 13.6255 66.3606 13.8045 66.5362 14.0199C66.7152 14.232 66.8511 14.4408 66.9439 14.6463H67.0085V10.8182H69.1214V21H67.0334V19.777H66.9439C66.8445 19.9891 66.7036 20.1996 66.5213 20.4084C66.3423 20.6139 66.1087 20.7846 65.8203 20.9205C65.5353 21.0563 65.1873 21.1243 64.7763 21.1243ZM65.4474 19.4389C65.7888 19.4389 66.0772 19.3461 66.3125 19.1605C66.5511 18.9716 66.7334 18.7081 66.8594 18.37C66.9886 18.032 67.0533 17.6359 67.0533 17.1818C67.0533 16.7277 66.9903 16.3333 66.8643 15.9986C66.7384 15.6638 66.5561 15.4053 66.3175 15.223C66.0788 15.0407 65.7888 14.9496 65.4474 14.9496C65.0994 14.9496 64.8061 15.044 64.5675 15.233C64.3288 15.4219 64.1482 15.6837 64.0256 16.0185C63.9029 16.3532 63.8416 16.741 63.8416 17.1818C63.8416 17.6259 63.9029 18.0187 64.0256 18.3601C64.1515 18.6982 64.3321 18.9633 64.5675 19.1555C64.8061 19.3445 65.0994 19.4389 65.4474 19.4389ZM73.6767 21.1243C73.0967 21.1243 72.5713 20.9751 72.1007 20.6768C71.6333 20.3752 71.2621 19.9328 70.987 19.3494C70.7153 18.7628 70.5794 18.0436 70.5794 17.1918C70.5794 16.3168 70.7202 15.5893 71.002 15.0092C71.2837 14.4259 71.6582 13.9901 72.1255 13.7017C72.5962 13.41 73.1116 13.2642 73.6717 13.2642C74.0993 13.2642 74.4556 13.3371 74.7406 13.483C75.0289 13.6255 75.2609 13.8045 75.4366 14.0199C75.6156 14.232 75.7515 14.4408 75.8443 14.6463H75.9089V10.8182H78.0218V21H75.9338V19.777H75.8443C75.7449 19.9891 75.604 20.1996 75.4217 20.4084C75.2427 20.6139 75.0091 20.7846 74.7207 20.9205C74.4357 21.0563 74.0877 21.1243 73.6767 21.1243ZM74.3478 19.4389C74.6892 19.4389 74.9776 19.3461 75.2129 19.1605C75.4515 18.9716 75.6338 18.7081 75.7598 18.37C75.889 18.032 75.9537 17.6359 75.9537 17.1818C75.9537 16.7277 75.8907 16.3333 75.7647 15.9986C75.6388 15.6638 75.4565 15.4053 75.2179 15.223C74.9792 15.0407 74.6892 14.9496 74.3478 14.9496C73.9998 14.9496 73.7065 15.044 73.4679 15.233C73.2292 15.4219 73.0486 15.6837 72.926 16.0185C72.8033 16.3532 72.742 16.741 72.742 17.1818C72.742 17.6259 72.8033 18.0187 72.926 18.3601C73.0519 18.6982 73.2325 18.9633 73.4679 19.1555C73.7065 19.3445 73.9998 19.4389 74.3478 19.4389Z" fill="#EF4130"/>
</svg>
