<svg width="86" height="34" viewBox="0 0 86 34" fill="none" xmlns="http://www.w3.org/2000/svg">
<rect x="1.5" y="1.5" width="83" height="31" rx="15.5" fill="#FFC10E" fill-opacity="0.6" stroke="#EF4130" stroke-width="3"/>
<circle cx="67" cy="17" r="13" fill="#EF4130"/>
<path d="M10.8849 22V11.8182H13.0376V20.2251H17.4027V22H10.8849ZM20.9661 22.1442C20.4789 22.1442 20.0447 22.0597 19.6635 21.8906C19.2824 21.7183 18.9808 21.4647 18.7587 21.13C18.54 20.7919 18.4306 20.371 18.4306 19.8672C18.4306 19.4429 18.5085 19.0866 18.6642 18.7983C18.82 18.5099 19.0321 18.2779 19.3006 18.1023C19.5691 17.9266 19.874 17.794 20.2154 17.7045C20.5601 17.6151 20.9213 17.5521 21.2992 17.5156C21.7433 17.4692 22.1013 17.4261 22.373 17.3864C22.6448 17.3433 22.842 17.2803 22.9647 17.1974C23.0873 17.1146 23.1486 16.992 23.1486 16.8295V16.7997C23.1486 16.4848 23.0492 16.2412 22.8503 16.0689C22.6548 15.8965 22.3764 15.8104 22.0151 15.8104C21.6339 15.8104 21.3307 15.8949 21.1053 16.0639C20.8799 16.2296 20.7308 16.4384 20.6578 16.6903L18.699 16.5312C18.7985 16.0672 18.994 15.6662 19.2857 15.3281C19.5774 14.9867 19.9535 14.7249 20.4142 14.5426C20.8783 14.357 21.4152 14.2642 22.025 14.2642C22.4493 14.2642 22.8553 14.3139 23.2431 14.4134C23.6342 14.5128 23.9805 14.6669 24.2821 14.8757C24.5871 15.0845 24.8274 15.353 25.003 15.6811C25.1787 16.0059 25.2665 16.3954 25.2665 16.8494V22H23.258V20.9411H23.1983C23.0757 21.1797 22.9116 21.3902 22.7061 21.5724C22.5007 21.7514 22.2537 21.8923 21.9654 21.995C21.677 22.0945 21.3439 22.1442 20.9661 22.1442ZM21.5726 20.6825C21.8842 20.6825 22.1593 20.6212 22.3979 20.4986C22.6365 20.3726 22.8238 20.2036 22.9597 19.9915C23.0956 19.7794 23.1635 19.5391 23.1635 19.2706V18.4602C23.0972 18.5033 23.0061 18.5431 22.8901 18.5795C22.7774 18.6127 22.6498 18.6442 22.5073 18.674C22.3648 18.7005 22.2222 18.7254 22.0797 18.7486C21.9372 18.7685 21.8079 18.7867 21.6919 18.8033C21.4434 18.8397 21.2263 18.8977 21.0407 18.9773C20.8551 19.0568 20.7109 19.1645 20.6081 19.3004C20.5054 19.433 20.454 19.5987 20.454 19.7976C20.454 20.0859 20.5584 20.3063 20.7672 20.4588C20.9793 20.608 21.2478 20.6825 21.5726 20.6825ZM33.2633 16.5412L31.3244 16.6605C31.2913 16.4948 31.22 16.3456 31.1106 16.2131C31.0012 16.0772 30.8571 15.9695 30.6781 15.8899C30.5024 15.8071 30.292 15.7656 30.0467 15.7656C29.7186 15.7656 29.4418 15.8352 29.2164 15.9744C28.9911 16.1103 28.8784 16.2926 28.8784 16.5213C28.8784 16.7036 28.9513 16.8577 29.0971 16.9837C29.243 17.1096 29.4932 17.2107 29.8478 17.2869L31.2299 17.5653C31.9724 17.7178 32.5259 17.9631 32.8904 18.3011C33.255 18.6392 33.4373 19.0833 33.4373 19.6335C33.4373 20.134 33.2898 20.5732 32.9949 20.951C32.7032 21.3288 32.3021 21.6238 31.7917 21.8359C31.2846 22.0447 30.6996 22.1491 30.0368 22.1491C29.0259 22.1491 28.2205 21.9387 27.6206 21.5178C27.024 21.0935 26.6743 20.5168 26.5716 19.7876L28.6547 19.6783C28.7176 19.9865 28.8701 20.2218 29.112 20.3842C29.354 20.5433 29.6639 20.6229 30.0417 20.6229C30.4129 20.6229 30.7112 20.5516 30.9366 20.4091C31.1653 20.2633 31.2813 20.076 31.2846 19.8473C31.2813 19.6551 31.2001 19.4976 31.041 19.375C30.8819 19.2491 30.6367 19.1529 30.3052 19.0866L28.9828 18.8232C28.237 18.674 27.6819 18.4155 27.3173 18.0476C26.956 17.6797 26.7754 17.2107 26.7754 16.6406C26.7754 16.1501 26.908 15.7275 27.1731 15.3729C27.4416 15.0182 27.8178 14.7448 28.3017 14.5526C28.7889 14.3603 29.359 14.2642 30.0119 14.2642C30.9764 14.2642 31.7354 14.468 32.2889 14.8757C32.8457 15.2834 33.1705 15.8385 33.2633 16.5412ZM38.8327 14.3636V15.9545H34.234V14.3636H38.8327ZM35.2781 12.5341H37.396V19.6534C37.396 19.849 37.4258 20.0014 37.4854 20.1108C37.5451 20.2169 37.628 20.2914 37.734 20.3345C37.8434 20.3776 37.9693 20.3991 38.1119 20.3991C38.2113 20.3991 38.3107 20.3909 38.4102 20.3743C38.5096 20.3544 38.5858 20.3395 38.6388 20.3295L38.9719 21.9055C38.8659 21.9387 38.7167 21.9768 38.5245 22.0199C38.3323 22.0663 38.0986 22.0945 37.8235 22.1044C37.3131 22.1243 36.8656 22.0563 36.4812 21.9006C36.1 21.7448 35.8034 21.5028 35.5913 21.1747C35.3791 20.8466 35.2747 20.4323 35.2781 19.9318V12.5341Z" fill="#EF4130"/>
</svg>
