<svg width="86" height="34" viewBox="0 0 86 34" fill="none" xmlns="http://www.w3.org/2000/svg">
<rect x="1.5" y="1.5" width="83" height="31" rx="15.5" fill="#FFC10E" fill-opacity="0.6" stroke="#EF4130" stroke-width="3"/>
<circle cx="19" cy="17" r="13" fill="#EF4130"/>
<path d="M48.8849 22V11.8182H55.6264V13.593H51.0376V16.0192H55.179V17.794H51.0376V22H48.8849ZM57.0346 22V14.3636H59.1525V22H57.0346ZM58.0985 13.3793C57.7837 13.3793 57.5136 13.2749 57.2882 13.0661C57.0661 12.8539 56.9551 12.6004 56.9551 12.3054C56.9551 12.0137 57.0661 11.7635 57.2882 11.5547C57.5136 11.3426 57.7837 11.2365 58.0985 11.2365C58.4134 11.2365 58.6819 11.3426 58.9039 11.5547C59.1293 11.7635 59.242 12.0137 59.242 12.3054C59.242 12.6004 59.1293 12.8539 58.9039 13.0661C58.6819 13.2749 58.4134 13.3793 58.0985 13.3793ZM60.8491 22V14.3636H62.9023V15.696H62.9819C63.1211 15.2221 63.3548 14.8641 63.6829 14.6222C64.011 14.3769 64.3888 14.2543 64.8164 14.2543C64.9225 14.2543 65.0368 14.2609 65.1594 14.2741C65.2821 14.2874 65.3898 14.3056 65.4826 14.3288V16.2081C65.3832 16.1783 65.2456 16.1518 65.07 16.1286C64.8943 16.1054 64.7335 16.0938 64.5877 16.0938C64.2762 16.0938 63.9978 16.1617 63.7525 16.2976C63.5105 16.4302 63.3183 16.6158 63.1758 16.8544C63.0366 17.093 62.967 17.3681 62.967 17.6797V22H60.8491ZM72.9313 16.5412L70.9924 16.6605C70.9592 16.4948 70.888 16.3456 70.7786 16.2131C70.6692 16.0772 70.525 15.9695 70.3461 15.8899C70.1704 15.8071 69.9599 15.7656 69.7147 15.7656C69.3865 15.7656 69.1098 15.8352 68.8844 15.9744C68.659 16.1103 68.5463 16.2926 68.5463 16.5213C68.5463 16.7036 68.6193 16.8577 68.7651 16.9837C68.9109 17.1096 69.1612 17.2107 69.5158 17.2869L70.8979 17.5653C71.6403 17.7178 72.1938 17.9631 72.5584 18.3011C72.923 18.6392 73.1053 19.0833 73.1053 19.6335C73.1053 20.134 72.9578 20.5732 72.6628 20.951C72.3712 21.3288 71.9701 21.6238 71.4597 21.8359C70.9526 22.0447 70.3676 22.1491 69.7047 22.1491C68.6938 22.1491 67.8884 21.9387 67.2885 21.5178C66.6919 21.0935 66.3423 20.5168 66.2395 19.7876L68.3226 19.6783C68.3856 19.9865 68.5381 20.2218 68.78 20.3842C69.022 20.5433 69.3319 20.6229 69.7097 20.6229C70.0809 20.6229 70.3792 20.5516 70.6046 20.4091C70.8333 20.2633 70.9493 20.076 70.9526 19.8473C70.9493 19.6551 70.8681 19.4976 70.709 19.375C70.5499 19.2491 70.3046 19.1529 69.9732 19.0866L68.6507 18.8232C67.905 18.674 67.3498 18.4155 66.9853 18.0476C66.624 17.6797 66.4434 17.2107 66.4434 16.6406C66.4434 16.1501 66.5759 15.7275 66.8411 15.3729C67.1096 15.0182 67.4857 14.7448 67.9696 14.5526C68.4569 14.3603 69.0269 14.2642 69.6799 14.2642C70.6444 14.2642 71.4034 14.468 71.9569 14.8757C72.5137 15.2834 72.8385 15.8385 72.9313 16.5412ZM78.5007 14.3636V15.9545H73.902V14.3636H78.5007ZM74.946 12.5341H77.0639V19.6534C77.0639 19.849 77.0938 20.0014 77.1534 20.1108C77.2131 20.2169 77.2959 20.2914 77.402 20.3345C77.5114 20.3776 77.6373 20.3991 77.7798 20.3991C77.8793 20.3991 77.9787 20.3909 78.0781 20.3743C78.1776 20.3544 78.2538 20.3395 78.3068 20.3295L78.6399 21.9055C78.5339 21.9387 78.3847 21.9768 78.1925 22.0199C78.0002 22.0663 77.7666 22.0945 77.4915 22.1044C76.9811 22.1243 76.5336 22.0563 76.1491 21.9006C75.768 21.7448 75.4714 21.5028 75.2592 21.1747C75.0471 20.8466 74.9427 20.4323 74.946 19.9318V12.5341Z" fill="#EF4130"/>
</svg>
