<svg width="86" height="34" viewBox="0 0 86 34" fill="none" xmlns="http://www.w3.org/2000/svg">
<rect x="1.5" y="1.5" width="83" height="31" rx="15.5" fill="#FFC10E" fill-opacity="0.6" stroke="#EF4130" stroke-width="3"/>
<circle cx="67" cy="17" r="13" fill="#EF4130"/>
<path d="M5.75852 20V11.2727H9.2017C9.8608 11.2727 10.4233 11.3906 10.8892 11.6264C11.358 11.8594 11.7145 12.1903 11.9588 12.6193C12.206 13.0455 12.3295 13.5469 12.3295 14.1236C12.3295 14.7031 12.2045 15.2017 11.9545 15.6193C11.7045 16.0341 11.3423 16.3523 10.8679 16.5739C10.3963 16.7955 9.82528 16.9062 9.15483 16.9062H6.84943V15.4233H8.85653C9.20881 15.4233 9.50142 15.375 9.73438 15.2784C9.96733 15.1818 10.1406 15.0369 10.2543 14.8438C10.3707 14.6506 10.429 14.4105 10.429 14.1236C10.429 13.8338 10.3707 13.5895 10.2543 13.3906C10.1406 13.1918 9.96591 13.0412 9.73011 12.9389C9.49716 12.8338 9.20313 12.7812 8.84801 12.7812H7.60369V20H5.75852ZM10.4716 16.0284L12.6406 20H10.6037L8.48153 16.0284H10.4716ZM16.4769 20.1278C15.8036 20.1278 15.2241 19.9915 14.7383 19.7188C14.2553 19.4432 13.8832 19.054 13.6218 18.5511C13.3604 18.0455 13.2298 17.4474 13.2298 16.7571C13.2298 16.0838 13.3604 15.4929 13.6218 14.9844C13.8832 14.4759 14.2511 14.0795 14.7255 13.7955C15.2028 13.5114 15.7624 13.3693 16.4045 13.3693C16.8363 13.3693 17.2383 13.4389 17.6104 13.5781C17.9854 13.7145 18.3121 13.9205 18.5906 14.196C18.8718 14.4716 19.0906 14.8182 19.2468 15.2358C19.4031 15.6506 19.4812 16.1364 19.4812 16.6932V17.1918H13.9542V16.0668H17.7724C17.7724 15.8054 17.7156 15.5739 17.6019 15.3722C17.4883 15.1705 17.3306 15.0128 17.1289 14.8991C16.93 14.7827 16.6985 14.7244 16.4343 14.7244C16.1587 14.7244 15.9144 14.7884 15.7013 14.9162C15.4911 15.0412 15.3263 15.2102 15.207 15.4233C15.0877 15.6335 15.0266 15.8679 15.0238 16.1264V17.196C15.0238 17.5199 15.0835 17.7997 15.2028 18.0355C15.3249 18.2713 15.4968 18.4531 15.7184 18.581C15.94 18.7088 16.2028 18.7727 16.5067 18.7727C16.7085 18.7727 16.8931 18.7443 17.0607 18.6875C17.2283 18.6307 17.3718 18.5455 17.4911 18.4318C17.6104 18.3182 17.7013 18.179 17.7638 18.0142L19.4428 18.125C19.3576 18.5284 19.1829 18.8807 18.9187 19.1818C18.6573 19.4801 18.3192 19.7131 17.9045 19.8807C17.4925 20.0455 17.0167 20.1278 16.4769 20.1278ZM20.6658 20V13.4545H22.396V14.6094H22.4727C22.609 14.2259 22.8363 13.9233 23.1545 13.7017C23.4727 13.4801 23.8533 13.3693 24.2965 13.3693C24.7454 13.3693 25.1275 13.4815 25.4428 13.706C25.7582 13.9276 25.9684 14.2287 26.0735 14.6094H26.1417C26.2752 14.2344 26.5167 13.9347 26.8661 13.7102C27.2184 13.483 27.6346 13.3693 28.1147 13.3693C28.7255 13.3693 29.2212 13.5639 29.6019 13.9531C29.9854 14.3395 30.1772 14.8878 30.1772 15.598V20H28.3661V15.956C28.3661 15.5923 28.2695 15.3196 28.0763 15.1378C27.8832 14.956 27.6417 14.8651 27.3519 14.8651C27.0224 14.8651 26.7653 14.9702 26.5806 15.1804C26.396 15.3878 26.3036 15.6619 26.3036 16.0028V20H24.5437V15.9176C24.5437 15.5966 24.4513 15.3409 24.2667 15.1506C24.0849 14.9602 23.8448 14.8651 23.5465 14.8651C23.3448 14.8651 23.163 14.9162 23.0011 15.0185C22.842 15.1179 22.7156 15.2585 22.6218 15.4403C22.5281 15.6193 22.4812 15.8295 22.4812 16.071V20H20.6658ZM34.5685 20.1278C33.9066 20.1278 33.3342 19.9872 32.8512 19.706C32.3711 19.4219 32.0004 19.027 31.739 18.5213C31.4776 18.0128 31.3469 17.4233 31.3469 16.7528C31.3469 16.0767 31.4776 15.4858 31.739 14.9801C32.0004 14.4716 32.3711 14.0767 32.8512 13.7955C33.3342 13.5114 33.9066 13.3693 34.5685 13.3693C35.2305 13.3693 35.8015 13.5114 36.2816 13.7955C36.7646 14.0767 37.1367 14.4716 37.3981 14.9801C37.6594 15.4858 37.7901 16.0767 37.7901 16.7528C37.7901 17.4233 37.6594 18.0128 37.3981 18.5213C37.1367 19.027 36.7646 19.4219 36.2816 19.706C35.8015 19.9872 35.2305 20.1278 34.5685 20.1278ZM34.5771 18.7216C34.8782 18.7216 35.1296 18.6364 35.3313 18.4659C35.533 18.2926 35.685 18.0568 35.7873 17.7585C35.8924 17.4602 35.945 17.1207 35.945 16.7401C35.945 16.3594 35.8924 16.0199 35.7873 15.7216C35.685 15.4233 35.533 15.1875 35.3313 15.0142C35.1296 14.8409 34.8782 14.7543 34.5771 14.7543C34.2731 14.7543 34.0174 14.8409 33.81 15.0142C33.6055 15.1875 33.4506 15.4233 33.3455 15.7216C33.2433 16.0199 33.1921 16.3594 33.1921 16.7401C33.1921 17.1207 33.2433 17.4602 33.3455 17.7585C33.4506 18.0568 33.6055 18.2926 33.81 18.4659C34.0174 18.6364 34.2731 18.7216 34.5771 18.7216ZM44.8619 13.4545L42.5735 20H40.5281L38.2397 13.4545H40.1573L41.5167 18.1378H41.5849L42.94 13.4545H44.8619ZM48.5629 20.1278C47.8896 20.1278 47.31 19.9915 46.8242 19.7188C46.3413 19.4432 45.9691 19.054 45.7077 18.5511C45.4464 18.0455 45.3157 17.4474 45.3157 16.7571C45.3157 16.0838 45.4464 15.4929 45.7077 14.9844C45.9691 14.4759 46.337 14.0795 46.8114 13.7955C47.2887 13.5114 47.8484 13.3693 48.4904 13.3693C48.9222 13.3693 49.3242 13.4389 49.6964 13.5781C50.0714 13.7145 50.3981 13.9205 50.6765 14.196C50.9577 14.4716 51.1765 14.8182 51.3327 15.2358C51.489 15.6506 51.5671 16.1364 51.5671 16.6932V17.1918H46.0401V16.0668H49.8583C49.8583 15.8054 49.8015 15.5739 49.6879 15.3722C49.5742 15.1705 49.4165 15.0128 49.2148 14.8991C49.016 14.7827 48.7844 14.7244 48.5202 14.7244C48.2447 14.7244 48.0004 14.7884 47.7873 14.9162C47.5771 15.0412 47.4123 15.2102 47.293 15.4233C47.1737 15.6335 47.1126 15.8679 47.1097 16.1264V17.196C47.1097 17.5199 47.1694 17.7997 47.2887 18.0355C47.4109 18.2713 47.5827 18.4531 47.8043 18.581C48.0259 18.7088 48.2887 18.7727 48.5927 18.7727C48.7944 18.7727 48.979 18.7443 49.1467 18.6875C49.3143 18.6307 49.4577 18.5455 49.5771 18.4318C49.6964 18.3182 49.7873 18.179 49.8498 18.0142L51.5288 18.125C51.4435 18.5284 51.2688 18.8807 51.0046 19.1818C50.7433 19.4801 50.4052 19.7131 49.9904 19.8807C49.5785 20.0455 49.1026 20.1278 48.5629 20.1278Z" fill="#EF4130"/>
</svg>
