<svg width="230" height="90" viewBox="0 0 230 90" fill="none" xmlns="http://www.w3.org/2000/svg">
<rect width="230" height="90" rx="45" fill="#E05259"/>
<path d="M47.1606 28.6364H54.76V53.9915C54.76 56.3352 54.2333 58.3712 53.1798 60.0994C52.1381 61.8277 50.6881 63.1593 48.8296 64.0945C46.9712 65.0296 44.8109 65.4972 42.3488 65.4972C40.1589 65.4972 38.1703 65.1125 36.3829 64.343C34.6073 63.5618 33.1987 62.3781 32.157 60.7919C31.1154 59.1939 30.6005 57.1875 30.6123 54.7727H38.265C38.2887 55.7315 38.484 56.5542 38.8509 57.2408C39.2297 57.9155 39.7446 58.4363 40.3957 58.8033C41.0586 59.1584 41.8398 59.3359 42.7394 59.3359C43.6864 59.3359 44.4854 59.1347 45.1365 58.7322C45.7993 58.3179 46.3024 57.7143 46.6457 56.9212C46.989 56.1281 47.1606 55.1515 47.1606 53.9915V28.6364ZM83.5775 28.6364H91.2657V52.2514C91.2657 54.9029 90.6324 57.223 89.3659 59.2116C88.1111 61.2003 86.3533 62.7509 84.0924 63.8636C81.8315 64.9645 79.1978 65.5149 76.1911 65.5149C73.1727 65.5149 70.533 64.9645 68.2721 63.8636C66.0112 62.7509 64.2534 61.2003 62.9987 59.2116C61.7439 57.223 61.1166 54.9029 61.1166 52.2514V28.6364H68.8048V51.5945C68.8048 52.9794 69.1066 54.2105 69.7103 55.2876C70.3258 56.3648 71.19 57.2112 72.3026 57.8267C73.4153 58.4422 74.7115 58.75 76.1911 58.75C77.6826 58.75 78.9788 58.4422 80.0796 57.8267C81.1923 57.2112 82.0505 56.3648 82.6542 55.2876C83.2697 54.2105 83.5775 52.9794 83.5775 51.5945V28.6364ZM121.703 40.3906C121.455 39.5265 121.106 38.763 120.656 38.1001C120.206 37.4254 119.656 36.8572 119.005 36.3956C118.365 35.9221 117.631 35.5611 116.803 35.3125C115.986 35.0639 115.081 34.9396 114.086 34.9396C112.228 34.9396 110.594 35.4013 109.186 36.3246C107.789 37.2479 106.7 38.5914 105.919 40.3551C105.137 42.107 104.747 44.2495 104.747 46.7827C104.747 49.3158 105.131 51.4702 105.901 53.2457C106.67 55.0213 107.759 56.3767 109.168 57.3118C110.576 58.2351 112.24 58.6967 114.157 58.6967C115.897 58.6967 117.383 58.389 118.614 57.7734C119.857 57.1461 120.804 56.2642 121.455 55.1278C122.118 53.9915 122.449 52.648 122.449 51.0973L124.012 51.3281H114.637V45.5398H129.853V50.1207C129.853 53.3168 129.179 56.063 127.829 58.3594C126.48 60.6439 124.621 62.4077 122.254 63.6506C119.886 64.8816 117.176 65.4972 114.122 65.4972C110.713 65.4972 107.718 64.7455 105.137 63.2422C102.557 61.727 100.545 59.5786 99.1004 56.7969C97.6681 54.0033 96.952 50.6889 96.952 46.8537C96.952 43.9062 97.3781 41.2784 98.2304 38.9702C99.0945 36.6501 100.302 34.6851 101.853 33.0753C103.403 31.4654 105.208 30.2403 107.268 29.3999C109.328 28.5594 111.559 28.1392 113.962 28.1392C116.022 28.1392 117.939 28.4411 119.715 29.0447C121.49 29.6366 123.065 30.477 124.438 31.5661C125.823 32.6551 126.953 33.9512 127.829 35.4545C128.705 36.946 129.267 38.5914 129.516 40.3906H121.703ZM140.773 65H132.534L145.088 28.6364H154.995L167.531 65H159.292L150.184 36.946H149.899L140.773 65ZM140.258 50.7067H159.718V56.7081H140.258V50.7067ZM171.908 65V28.6364H186.254C189 28.6364 191.344 29.1276 193.285 30.1101C195.239 31.0807 196.724 32.4598 197.742 34.2472C198.772 36.0227 199.287 38.112 199.287 40.5149C199.287 42.9297 198.766 45.0071 197.724 46.7472C196.683 48.4754 195.173 49.8011 193.197 50.7244C191.232 51.6477 188.852 52.1094 186.059 52.1094H176.453V45.9304H184.816C186.284 45.9304 187.503 45.7292 188.474 45.3267C189.444 44.9242 190.166 44.3205 190.64 43.5156C191.125 42.7107 191.368 41.7105 191.368 40.5149C191.368 39.3075 191.125 38.2895 190.64 37.4609C190.166 36.6323 189.438 36.005 188.456 35.5788C187.485 35.1409 186.26 34.9219 184.78 34.9219H179.596V65H171.908ZM191.545 48.4517L200.583 65H192.096L183.253 48.4517H191.545Z" fill="white"/>
</svg>
