<svg width="50" height="50" viewBox="0 0 50 50" fill="none" xmlns="http://www.w3.org/2000/svg">
<rect width="50" height="50" rx="25" fill="#E05259" fill-opacity="0.6"/>
<path d="M22.9167 31.25L16.6667 25M16.6667 25L22.9167 18.75M16.6667 25H33.3333M6.25 25C6.25 22.5377 6.73498 20.0995 7.67726 17.8247C8.61953 15.5498 10.0006 13.4828 11.7417 11.7417C13.4828 10.0006 15.5498 8.61953 17.8247 7.67726C20.0995 6.73498 22.5377 6.25 25 6.25C27.4623 6.25 29.9005 6.73498 32.1753 7.67726C34.4502 8.61953 36.5172 10.0006 38.2582 11.7417C39.9993 13.4828 41.3805 15.5498 42.3227 17.8247C43.265 20.0995 43.75 22.5377 43.75 25C43.75 29.9728 41.7746 34.7419 38.2582 38.2582C34.7419 41.7746 29.9728 43.75 25 43.75C20.0272 43.75 15.2581 41.7746 11.7417 38.2582C8.22544 34.7419 6.25 29.9728 6.25 25V25Z" stroke="#FFF100" stroke-width="2" stroke-linecap="round" stroke-linejoin="round"/>
</svg>
